<?xml version="1.0" encoding="UTF-8" standalone="no"?>
<!DOCTYPE svg PUBLIC "-//W3C//DTD SVG 1.1//EN"
 "http://www.w3.org/Graphics/SVG/1.1/DTD/svg11.dtd">
<!-- Generated by graphviz version 2.38.0 (20140413.2041)
 -->
<!-- Title: mlm_client Pages: 1 -->
<svg width="2009pt" height="1616pt"
 viewBox="0.00 0.00 2008.50 1616.32" xmlns="http://www.w3.org/2000/svg" xmlns:xlink="http://www.w3.org/1999/xlink">
<g id="graph0" class="graph" transform="scale(1 1) rotate(0) translate(4 1612.32)">
<title>mlm_client</title>
<polygon fill="white" stroke="none" points="-4,4 -4,-1612.32 2004.5,-1612.32 2004.5,4 -4,4"/>
<!-- start -->
<g id="node1" class="node"><title>start</title>
<ellipse fill="none" stroke="black" cx="1578.5" cy="-1576.66" rx="27.8023" ry="27.8023"/>
<ellipse fill="none" stroke="black" cx="1578.5" cy="-1576.66" rx="31.8227" ry="31.8227"/>
<text text-anchor="middle" x="1578.5" y="-1572.46" font-family="Times,serif" font-size="14.00">start</text>
</g>
<!-- start &#160;&#160;&#160;&#160;&#160;&#160;&#160;&#160;set plain auth -->
<g id="node2" class="node"><title>start &#160;&#160;&#160;&#160;&#160;&#160;&#160;&#160;set plain auth</title>
<path fill="none" stroke="black" d="M877,-1402.5C877,-1402.5 1046,-1402.5 1046,-1402.5 1052,-1402.5 1058,-1408.5 1058,-1414.5 1058,-1414.5 1058,-1472.5 1058,-1472.5 1058,-1478.5 1052,-1484.5 1046,-1484.5 1046,-1484.5 877,-1484.5 877,-1484.5 871,-1484.5 865,-1478.5 865,-1472.5 865,-1472.5 865,-1414.5 865,-1414.5 865,-1408.5 871,-1402.5 877,-1402.5"/>
<polygon fill="white" stroke="none" points="873,-1406.5 873,-1480.5 1050,-1480.5 1050,-1406.5 873,-1406.5"/>
<polygon fill="black" stroke="none" points="875.5,-1456.5 875.5,-1478.5 1048.5,-1478.5 1048.5,-1456.5 875.5,-1456.5"/>
<text text-anchor="start" x="924.675" y="-1462.9" font-family="Times,serif" font-size="14.00" fill="white">set plain auth</text>
<text text-anchor="start" x="878.385" y="-1438.9" font-family="Times,serif" font-size="14.00">use plain security mechanism</text>
<text text-anchor="start" x="878.5" y="-1414.9" font-family="Times,serif" font-size="14.00">signal success</text>
</g>
<!-- start&#45;&gt;start &#160;&#160;&#160;&#160;&#160;&#160;&#160;&#160;set plain auth -->
<g id="edge1" class="edge"><title>start&#45;&gt;start &#160;&#160;&#160;&#160;&#160;&#160;&#160;&#160;set plain auth</title>
<path fill="none" stroke="black" d="M1546.59,-1576.02C1463.31,-1576.2 1234.68,-1570.96 1058.5,-1509 1044.63,-1504.12 1030.62,-1497.26 1017.71,-1489.82"/>
<polygon fill="black" stroke="black" points="1019.33,-1486.72 1008.95,-1484.6 1015.74,-1492.73 1019.33,-1486.72"/>
</g>
<!-- start &#160;&#160;&#160;&#160;&#160;&#160;&#160;&#160;connect -->
<g id="node3" class="node"><title>start &#160;&#160;&#160;&#160;&#160;&#160;&#160;&#160;connect</title>
<path fill="none" stroke="black" d="M1088.5,-1378.5C1088.5,-1378.5 1240.5,-1378.5 1240.5,-1378.5 1246.5,-1378.5 1252.5,-1384.5 1252.5,-1390.5 1252.5,-1390.5 1252.5,-1496.5 1252.5,-1496.5 1252.5,-1502.5 1246.5,-1508.5 1240.5,-1508.5 1240.5,-1508.5 1088.5,-1508.5 1088.5,-1508.5 1082.5,-1508.5 1076.5,-1502.5 1076.5,-1496.5 1076.5,-1496.5 1076.5,-1390.5 1076.5,-1390.5 1076.5,-1384.5 1082.5,-1378.5 1088.5,-1378.5"/>
<polygon fill="white" stroke="none" points="1084.5,-1382.5 1084.5,-1504.5 1244.5,-1504.5 1244.5,-1382.5 1084.5,-1382.5"/>
<polygon fill="black" stroke="none" points="1086.5,-1480.5 1086.5,-1502.5 1242.5,-1502.5 1242.5,-1480.5 1086.5,-1480.5"/>
<text text-anchor="start" x="1142.73" y="-1486.9" font-family="Times,serif" font-size="14.00" fill="white">connect</text>
<text text-anchor="start" x="1089.44" y="-1462.9" font-family="Times,serif" font-size="14.00">connect to server endpoint</text>
<text text-anchor="start" x="1089.5" y="-1438.9" font-family="Times,serif" font-size="14.00">set client address</text>
<text text-anchor="start" x="1089.5" y="-1414.9" font-family="Times,serif" font-size="14.00">use connect timeout</text>
<text text-anchor="start" x="1089.5" y="-1390.9" font-family="Times,serif" font-size="14.00">send</text>
</g>
<!-- start&#45;&gt;start &#160;&#160;&#160;&#160;&#160;&#160;&#160;&#160;connect -->
<g id="edge3" class="edge"><title>start&#45;&gt;start &#160;&#160;&#160;&#160;&#160;&#160;&#160;&#160;connect</title>
<path fill="none" stroke="black" d="M1546.87,-1572.63C1489.27,-1566.3 1364.21,-1548.84 1266.5,-1509 1264.9,-1508.35 1263.3,-1507.67 1261.69,-1506.97"/>
<polygon fill="black" stroke="black" points="1263.05,-1503.74 1252.51,-1502.73 1260.12,-1510.1 1263.05,-1503.74"/>
</g>
<!-- start &#160;&#160;&#160;&#160;&#160;&#160;&#160;&#160;bad endpoint -->
<g id="node5" class="node"><title>start &#160;&#160;&#160;&#160;&#160;&#160;&#160;&#160;bad endpoint</title>
<path fill="none" stroke="black" d="M1321,-1414.5C1321,-1414.5 1434,-1414.5 1434,-1414.5 1440,-1414.5 1446,-1420.5 1446,-1426.5 1446,-1426.5 1446,-1460.5 1446,-1460.5 1446,-1466.5 1440,-1472.5 1434,-1472.5 1434,-1472.5 1321,-1472.5 1321,-1472.5 1315,-1472.5 1309,-1466.5 1309,-1460.5 1309,-1460.5 1309,-1426.5 1309,-1426.5 1309,-1420.5 1315,-1414.5 1321,-1414.5"/>
<polygon fill="white" stroke="none" points="1317,-1418.5 1317,-1468.5 1438,-1468.5 1438,-1418.5 1317,-1418.5"/>
<polygon fill="black" stroke="none" points="1319.5,-1444.5 1319.5,-1466.5 1436.5,-1466.5 1436.5,-1444.5 1319.5,-1444.5"/>
<text text-anchor="start" x="1341.64" y="-1450.9" font-family="Times,serif" font-size="14.00" fill="white">bad endpoint</text>
<text text-anchor="start" x="1322.17" y="-1426.9" font-family="Times,serif" font-size="14.00">signal bad endpoint</text>
</g>
<!-- start&#45;&gt;start &#160;&#160;&#160;&#160;&#160;&#160;&#160;&#160;bad endpoint -->
<g id="edge5" class="edge"><title>start&#45;&gt;start &#160;&#160;&#160;&#160;&#160;&#160;&#160;&#160;bad endpoint</title>
<path fill="none" stroke="black" d="M1548.92,-1564.88C1521.21,-1552.64 1479.72,-1531.42 1446.5,-1509 1433.37,-1500.13 1419.8,-1489.51 1408.14,-1479.47"/>
<polygon fill="black" stroke="black" points="1410.21,-1476.63 1400.4,-1472.64 1405.58,-1481.88 1410.21,-1476.63"/>
</g>
<!-- start &#160;&#160;&#160;&#160;&#160;&#160;&#160;&#160;destructor -->
<g id="node6" class="node"><title>start &#160;&#160;&#160;&#160;&#160;&#160;&#160;&#160;destructor</title>
<path fill="none" stroke="black" d="M1476.5,-1402.5C1476.5,-1402.5 1558.5,-1402.5 1558.5,-1402.5 1564.5,-1402.5 1570.5,-1408.5 1570.5,-1414.5 1570.5,-1414.5 1570.5,-1472.5 1570.5,-1472.5 1570.5,-1478.5 1564.5,-1484.5 1558.5,-1484.5 1558.5,-1484.5 1476.5,-1484.5 1476.5,-1484.5 1470.5,-1484.5 1464.5,-1478.5 1464.5,-1472.5 1464.5,-1472.5 1464.5,-1414.5 1464.5,-1414.5 1464.5,-1408.5 1470.5,-1402.5 1476.5,-1402.5"/>
<polygon fill="white" stroke="none" points="1472.5,-1406.5 1472.5,-1480.5 1562.5,-1480.5 1562.5,-1406.5 1472.5,-1406.5"/>
<polygon fill="black" stroke="none" points="1474.5,-1456.5 1474.5,-1478.5 1560.5,-1478.5 1560.5,-1456.5 1474.5,-1456.5"/>
<text text-anchor="start" x="1489.51" y="-1462.9" font-family="Times,serif" font-size="14.00" fill="white">destructor</text>
<text text-anchor="start" x="1477.04" y="-1438.9" font-family="Times,serif" font-size="14.00">signal success</text>
<text text-anchor="start" x="1477.5" y="-1414.9" font-family="Times,serif" font-size="14.00">terminate</text>
</g>
<!-- start&#45;&gt;start &#160;&#160;&#160;&#160;&#160;&#160;&#160;&#160;destructor -->
<g id="edge7" class="edge"><title>start&#45;&gt;start &#160;&#160;&#160;&#160;&#160;&#160;&#160;&#160;destructor</title>
<path fill="none" stroke="black" d="M1561.11,-1550.06C1552.52,-1534.11 1542.37,-1513.05 1533.93,-1493.94"/>
<polygon fill="black" stroke="black" points="1537.13,-1492.53 1529.94,-1484.75 1530.71,-1495.32 1537.13,-1492.53"/>
</g>
<!-- start &#160;&#160;&#160;&#160;&#160;&#160;&#160;&#160;set producer -->
<g id="node7" class="node"><title>start &#160;&#160;&#160;&#160;&#160;&#160;&#160;&#160;set producer</title>
<path fill="none" stroke="black" d="M1601,-1414.5C1601,-1414.5 1678,-1414.5 1678,-1414.5 1684,-1414.5 1690,-1420.5 1690,-1426.5 1690,-1426.5 1690,-1460.5 1690,-1460.5 1690,-1466.5 1684,-1472.5 1678,-1472.5 1678,-1472.5 1601,-1472.5 1601,-1472.5 1595,-1472.5 1589,-1466.5 1589,-1460.5 1589,-1460.5 1589,-1426.5 1589,-1426.5 1589,-1420.5 1595,-1414.5 1601,-1414.5"/>
<polygon fill="white" stroke="none" points="1597,-1418.5 1597,-1468.5 1682,-1468.5 1682,-1418.5 1597,-1418.5"/>
<polygon fill="black" stroke="none" points="1599.5,-1444.5 1599.5,-1466.5 1680.5,-1466.5 1680.5,-1444.5 1599.5,-1444.5"/>
<text text-anchor="start" x="1605.6" y="-1450.9" font-family="Times,serif" font-size="14.00" fill="white">set producer</text>
<text text-anchor="start" x="1602.26" y="-1426.9" font-family="Times,serif" font-size="14.00">signal failure</text>
</g>
<!-- start&#45;&gt;start &#160;&#160;&#160;&#160;&#160;&#160;&#160;&#160;set producer -->
<g id="edge9" class="edge"><title>start&#45;&gt;start &#160;&#160;&#160;&#160;&#160;&#160;&#160;&#160;set producer</title>
<path fill="none" stroke="black" d="M1586.58,-1545.9C1594.25,-1526.89 1605.65,-1502.09 1616.01,-1481.78"/>
<polygon fill="black" stroke="black" points="1619.17,-1483.28 1620.67,-1472.8 1612.96,-1480.06 1619.17,-1483.28"/>
</g>
<!-- start &#160;&#160;&#160;&#160;&#160;&#160;&#160;&#160;set consumer -->
<g id="node8" class="node"><title>start &#160;&#160;&#160;&#160;&#160;&#160;&#160;&#160;set consumer</title>
<path fill="none" stroke="black" d="M1720,-1414.5C1720,-1414.5 1797,-1414.5 1797,-1414.5 1803,-1414.5 1809,-1420.5 1809,-1426.5 1809,-1426.5 1809,-1460.5 1809,-1460.5 1809,-1466.5 1803,-1472.5 1797,-1472.5 1797,-1472.5 1720,-1472.5 1720,-1472.5 1714,-1472.5 1708,-1466.5 1708,-1460.5 1708,-1460.5 1708,-1426.5 1708,-1426.5 1708,-1420.5 1714,-1414.5 1720,-1414.5"/>
<polygon fill="white" stroke="none" points="1716,-1418.5 1716,-1468.5 1801,-1468.5 1801,-1418.5 1716,-1418.5"/>
<polygon fill="black" stroke="none" points="1718.5,-1444.5 1718.5,-1466.5 1799.5,-1466.5 1799.5,-1444.5 1718.5,-1444.5"/>
<text text-anchor="start" x="1722.26" y="-1450.9" font-family="Times,serif" font-size="14.00" fill="white">set consumer</text>
<text text-anchor="start" x="1721.26" y="-1426.9" font-family="Times,serif" font-size="14.00">signal failure</text>
</g>
<!-- start&#45;&gt;start &#160;&#160;&#160;&#160;&#160;&#160;&#160;&#160;set consumer -->
<g id="edge11" class="edge"><title>start&#45;&gt;start &#160;&#160;&#160;&#160;&#160;&#160;&#160;&#160;set consumer</title>
<path fill="none" stroke="black" d="M1605.73,-1560.31C1629.43,-1548.27 1663.74,-1530.06 1690.5,-1509 1701.14,-1500.63 1711.54,-1490.25 1720.94,-1480.29"/>
<polygon fill="black" stroke="black" points="1723.67,-1482.49 1727.93,-1472.79 1718.55,-1477.72 1723.67,-1482.49"/>
</g>
<!-- start &#160;&#160;&#160;&#160;&#160;&#160;&#160;&#160;set worker -->
<g id="node9" class="node"><title>start &#160;&#160;&#160;&#160;&#160;&#160;&#160;&#160;set worker</title>
<path fill="none" stroke="black" d="M1839,-1414.5C1839,-1414.5 1916,-1414.5 1916,-1414.5 1922,-1414.5 1928,-1420.5 1928,-1426.5 1928,-1426.5 1928,-1460.5 1928,-1460.5 1928,-1466.5 1922,-1472.5 1916,-1472.5 1916,-1472.5 1839,-1472.5 1839,-1472.5 1833,-1472.5 1827,-1466.5 1827,-1460.5 1827,-1460.5 1827,-1426.5 1827,-1426.5 1827,-1420.5 1833,-1414.5 1839,-1414.5"/>
<polygon fill="white" stroke="none" points="1835,-1418.5 1835,-1468.5 1920,-1468.5 1920,-1418.5 1835,-1418.5"/>
<polygon fill="black" stroke="none" points="1837.5,-1444.5 1837.5,-1466.5 1918.5,-1466.5 1918.5,-1444.5 1837.5,-1444.5"/>
<text text-anchor="start" x="1848.65" y="-1450.9" font-family="Times,serif" font-size="14.00" fill="white">set worker</text>
<text text-anchor="start" x="1840.26" y="-1426.9" font-family="Times,serif" font-size="14.00">signal failure</text>
</g>
<!-- start&#45;&gt;start &#160;&#160;&#160;&#160;&#160;&#160;&#160;&#160;set worker -->
<g id="edge13" class="edge"><title>start&#45;&gt;start &#160;&#160;&#160;&#160;&#160;&#160;&#160;&#160;set worker</title>
<path fill="none" stroke="black" d="M1609.88,-1571.75C1656.53,-1565.2 1745,-1548.58 1809.5,-1509 1821.68,-1501.53 1832.88,-1490.83 1842.62,-1480.29"/>
<polygon fill="black" stroke="black" points="1845.37,-1482.46 1849.45,-1472.68 1840.16,-1477.78 1845.37,-1482.46"/>
</g>
<!-- start &#160;&#160;&#160;&#160;&#160;&#160;&#160;&#160;* -->
<g id="node10" class="node"><title>start &#160;&#160;&#160;&#160;&#160;&#160;&#160;&#160;*</title>
<path fill="none" stroke="black" d="M1958.5,-1425.5C1958.5,-1425.5 1988.5,-1425.5 1988.5,-1425.5 1994.5,-1425.5 2000.5,-1431.5 2000.5,-1437.5 2000.5,-1437.5 2000.5,-1449.5 2000.5,-1449.5 2000.5,-1455.5 1994.5,-1461.5 1988.5,-1461.5 1988.5,-1461.5 1958.5,-1461.5 1958.5,-1461.5 1952.5,-1461.5 1946.5,-1455.5 1946.5,-1449.5 1946.5,-1449.5 1946.5,-1437.5 1946.5,-1437.5 1946.5,-1431.5 1952.5,-1425.5 1958.5,-1425.5"/>
<polygon fill="white" stroke="none" points="1964.5,-1430.5 1964.5,-1456.5 1982.5,-1456.5 1982.5,-1430.5 1964.5,-1430.5"/>
<polygon fill="black" stroke="none" points="1966.5,-1432.5 1966.5,-1454.5 1980.5,-1454.5 1980.5,-1432.5 1966.5,-1432.5"/>
<text text-anchor="start" x="1970" y="-1438.9" font-family="Times,serif" font-size="14.00" fill="white">*</text>
</g>
<!-- start&#45;&gt;start &#160;&#160;&#160;&#160;&#160;&#160;&#160;&#160;* -->
<g id="edge15" class="edge"><title>start&#45;&gt;start &#160;&#160;&#160;&#160;&#160;&#160;&#160;&#160;*</title>
<path fill="none" stroke="black" d="M1610.13,-1572.82C1686.38,-1565.91 1876.94,-1546.02 1928.5,-1509 1941.41,-1499.73 1950.26,-1484.32 1956.97,-1470.89"/>
<polygon fill="black" stroke="black" points="1960.28,-1472.1 1961.51,-1461.58 1953.98,-1469.03 1960.28,-1472.1"/>
</g>
<!-- start &#160;&#160;&#160;&#160;&#160;&#160;&#160;&#160;set plain auth&#45;&gt;start -->
<g id="edge2" class="edge"><title>start &#160;&#160;&#160;&#160;&#160;&#160;&#160;&#160;set plain auth&#45;&gt;start</title>
<path fill="none" stroke="black" d="M1026.32,-1484.6C1042.15,-1493.99 1059.43,-1503 1076.5,-1509 1239.92,-1566.48 1448.47,-1575.14 1536.49,-1575.95"/>
<polygon fill="black" stroke="black" points="1536.59,-1579.46 1546.62,-1576.02 1536.64,-1572.46 1536.59,-1579.46"/>
</g>
<!-- connecting -->
<g id="node4" class="node"><title>connecting</title>
<ellipse fill="none" stroke="black" cx="1164.5" cy="-1284.6" rx="53.3194" ry="53.3194"/>
<ellipse fill="none" stroke="black" cx="1164.5" cy="-1284.6" rx="57.3129" ry="57.3129"/>
<text text-anchor="middle" x="1164.5" y="-1280.4" font-family="Times,serif" font-size="14.00">connecting</text>
</g>
<!-- start &#160;&#160;&#160;&#160;&#160;&#160;&#160;&#160;connect&#45;&gt;connecting -->
<g id="edge4" class="edge"><title>start &#160;&#160;&#160;&#160;&#160;&#160;&#160;&#160;connect&#45;&gt;connecting</title>
<path fill="none" stroke="black" d="M1164.5,-1378.23C1164.5,-1369.81 1164.5,-1361.16 1164.5,-1352.69"/>
<polygon fill="black" stroke="black" points="1168,-1352.47 1164.5,-1342.47 1161,-1352.47 1168,-1352.47"/>
</g>
<!-- connecting &#160;&#160;&#160;ok -->
<g id="node11" class="node"><title>connecting &#160;&#160;&#160;ok</title>
<path fill="none" stroke="black" d="M1060.5,-1108.69C1060.5,-1108.69 1168.5,-1108.69 1168.5,-1108.69 1174.5,-1108.69 1180.5,-1114.69 1180.5,-1120.69 1180.5,-1120.69 1180.5,-1178.69 1180.5,-1178.69 1180.5,-1184.69 1174.5,-1190.69 1168.5,-1190.69 1168.5,-1190.69 1060.5,-1190.69 1060.5,-1190.69 1054.5,-1190.69 1048.5,-1184.69 1048.5,-1178.69 1048.5,-1178.69 1048.5,-1120.69 1048.5,-1120.69 1048.5,-1114.69 1054.5,-1108.69 1060.5,-1108.69"/>
<polygon fill="white" stroke="none" points="1056.5,-1112.69 1056.5,-1186.69 1172.5,-1186.69 1172.5,-1112.69 1056.5,-1112.69"/>
<polygon fill="black" stroke="none" points="1058.5,-1162.69 1058.5,-1184.69 1170.5,-1184.69 1170.5,-1162.69 1058.5,-1162.69"/>
<text text-anchor="start" x="1107.5" y="-1169.09" font-family="Times,serif" font-size="14.00" fill="white">ok</text>
<text text-anchor="start" x="1061.41" y="-1145.09" font-family="Times,serif" font-size="14.00">client is connected</text>
<text text-anchor="start" x="1061.5" y="-1121.09" font-family="Times,serif" font-size="14.00">signal success</text>
</g>
<!-- connecting&#45;&gt;connecting &#160;&#160;&#160;ok -->
<g id="edge17" class="edge"><title>connecting&#45;&gt;connecting &#160;&#160;&#160;ok</title>
<path fill="none" stroke="black" d="M1144.6,-1230.69C1140.8,-1220.59 1136.84,-1210.06 1133.08,-1200.08"/>
<polygon fill="black" stroke="black" points="1136.36,-1198.84 1129.56,-1190.72 1129.8,-1201.31 1136.36,-1198.84"/>
</g>
<!-- connecting &#160;&#160;&#160;expired -->
<g id="node13" class="node"><title>connecting &#160;&#160;&#160;expired</title>
<path fill="none" stroke="black" d="M1210.5,-1120.69C1210.5,-1120.69 1350.5,-1120.69 1350.5,-1120.69 1356.5,-1120.69 1362.5,-1126.69 1362.5,-1132.69 1362.5,-1132.69 1362.5,-1166.69 1362.5,-1166.69 1362.5,-1172.69 1356.5,-1178.69 1350.5,-1178.69 1350.5,-1178.69 1210.5,-1178.69 1210.5,-1178.69 1204.5,-1178.69 1198.5,-1172.69 1198.5,-1166.69 1198.5,-1166.69 1198.5,-1132.69 1198.5,-1132.69 1198.5,-1126.69 1204.5,-1120.69 1210.5,-1120.69"/>
<polygon fill="white" stroke="none" points="1206.5,-1124.69 1206.5,-1174.69 1354.5,-1174.69 1354.5,-1124.69 1206.5,-1124.69"/>
<polygon fill="black" stroke="none" points="1208.5,-1150.69 1208.5,-1172.69 1352.5,-1172.69 1352.5,-1150.69 1208.5,-1150.69"/>
<text text-anchor="start" x="1259.51" y="-1157.09" font-family="Times,serif" font-size="14.00" fill="white">expired</text>
<text text-anchor="start" x="1211.27" y="-1133.09" font-family="Times,serif" font-size="14.00">signal server not present</text>
</g>
<!-- connecting&#45;&gt;connecting &#160;&#160;&#160;expired -->
<g id="edge19" class="edge"><title>connecting&#45;&gt;connecting &#160;&#160;&#160;expired</title>
<path fill="none" stroke="black" d="M1201.84,-1240.81C1217.1,-1223.33 1234.54,-1203.34 1249.12,-1186.64"/>
<polygon fill="black" stroke="black" points="1252.09,-1188.56 1256.03,-1178.73 1246.82,-1183.96 1252.09,-1188.56"/>
</g>
<!-- start &#160;&#160;&#160;&#160;&#160;&#160;&#160;&#160;bad endpoint&#45;&gt;start -->
<g id="edge6" class="edge"><title>start &#160;&#160;&#160;&#160;&#160;&#160;&#160;&#160;bad endpoint&#45;&gt;start</title>
<path fill="none" stroke="black" d="M1416.93,-1472.64C1431.52,-1484.51 1448.33,-1498.09 1464.5,-1509 1489.62,-1525.96 1519.49,-1542.23 1542.45,-1554.45"/>
<polygon fill="black" stroke="black" points="1541.05,-1557.66 1551.52,-1559.26 1544.33,-1551.48 1541.05,-1557.66"/>
</g>
<!-- start &#160;&#160;&#160;&#160;&#160;&#160;&#160;&#160;destructor&#45;&gt;start -->
<g id="edge8" class="edge"><title>start &#160;&#160;&#160;&#160;&#160;&#160;&#160;&#160;destructor&#45;&gt;start</title>
<path fill="none" stroke="black" d="M1542.42,-1484.59C1550.75,-1501.11 1559.6,-1520.18 1566.56,-1536.59"/>
<polygon fill="black" stroke="black" points="1563.36,-1538 1570.42,-1545.9 1569.83,-1535.32 1563.36,-1538"/>
</g>
<!-- start &#160;&#160;&#160;&#160;&#160;&#160;&#160;&#160;set producer&#45;&gt;start -->
<g id="edge10" class="edge"><title>start &#160;&#160;&#160;&#160;&#160;&#160;&#160;&#160;set producer&#45;&gt;start</title>
<path fill="none" stroke="black" d="M1632.02,-1472.77C1624.03,-1492.77 1611.62,-1519.72 1600.64,-1541.02"/>
<polygon fill="black" stroke="black" points="1597.45,-1539.58 1595.89,-1550.06 1603.64,-1542.84 1597.45,-1539.58"/>
</g>
<!-- start &#160;&#160;&#160;&#160;&#160;&#160;&#160;&#160;set consumer&#45;&gt;start -->
<g id="edge12" class="edge"><title>start &#160;&#160;&#160;&#160;&#160;&#160;&#160;&#160;set consumer&#45;&gt;start</title>
<path fill="none" stroke="black" d="M1744.42,-1472.79C1734.82,-1484.83 1721.86,-1498.49 1708.5,-1509 1680.68,-1530.89 1644.72,-1549.7 1617.52,-1561.7"/>
<polygon fill="black" stroke="black" points="1616.11,-1558.5 1608.3,-1565.66 1618.87,-1564.93 1616.11,-1558.5"/>
</g>
<!-- start &#160;&#160;&#160;&#160;&#160;&#160;&#160;&#160;set worker&#45;&gt;start -->
<g id="edge14" class="edge"><title>start &#160;&#160;&#160;&#160;&#160;&#160;&#160;&#160;set worker&#45;&gt;start</title>
<path fill="none" stroke="black" d="M1865.73,-1472.68C1856.26,-1485.44 1842.63,-1499.71 1827.5,-1509 1762.33,-1548.99 1672.69,-1565.54 1620.51,-1571.95"/>
<polygon fill="black" stroke="black" points="1619.81,-1568.51 1610.28,-1573.14 1620.61,-1575.46 1619.81,-1568.51"/>
</g>
<!-- start &#160;&#160;&#160;&#160;&#160;&#160;&#160;&#160;*&#45;&gt;start -->
<g id="edge16" class="edge"><title>start &#160;&#160;&#160;&#160;&#160;&#160;&#160;&#160;*&#45;&gt;start</title>
<path fill="none" stroke="black" d="M1975.59,-1461.58C1972.31,-1476.48 1962.54,-1497.48 1946.5,-1509 1895.09,-1545.91 1705.48,-1565.8 1620.26,-1572.76"/>
<polygon fill="black" stroke="black" points="1619.85,-1569.28 1610.15,-1573.57 1620.4,-1576.26 1619.85,-1569.28"/>
</g>
<!-- connected -->
<g id="node12" class="node"><title>connected</title>
<ellipse fill="none" stroke="black" cx="984.5" cy="-1018.01" rx="50.3491" ry="50.3491"/>
<ellipse fill="none" stroke="black" cx="984.5" cy="-1018.01" rx="54.3625" ry="54.3625"/>
<text text-anchor="middle" x="984.5" y="-1013.81" font-family="Times,serif" font-size="14.00">connected</text>
</g>
<!-- connecting &#160;&#160;&#160;ok&#45;&gt;connected -->
<g id="edge18" class="edge"><title>connecting &#160;&#160;&#160;ok&#45;&gt;connected</title>
<path fill="none" stroke="black" d="M1074.08,-1108.37C1060.12,-1094.44 1044.38,-1078.74 1030.03,-1064.43"/>
<polygon fill="black" stroke="black" points="1032.23,-1061.67 1022.68,-1057.09 1027.28,-1066.63 1032.23,-1061.67"/>
</g>
<!-- connected &#160;&#160;&#160;&#160;set producer -->
<g id="node14" class="node"><title>connected &#160;&#160;&#160;&#160;set producer</title>
<path fill="none" stroke="black" d="M262,-845.327C262,-845.327 439,-845.327 439,-845.327 445,-845.327 451,-851.327 451,-857.327 451,-857.327 451,-915.327 451,-915.327 451,-921.327 445,-927.327 439,-927.327 439,-927.327 262,-927.327 262,-927.327 256,-927.327 250,-921.327 250,-915.327 250,-915.327 250,-857.327 250,-857.327 250,-851.327 256,-845.327 262,-845.327"/>
<polygon fill="white" stroke="none" points="258,-849.327 258,-923.327 443,-923.327 443,-849.327 258,-849.327"/>
<polygon fill="black" stroke="none" points="260.5,-899.327 260.5,-921.327 441.5,-921.327 441.5,-899.327 260.5,-899.327"/>
<text text-anchor="start" x="316.6" y="-905.727" font-family="Times,serif" font-size="14.00" fill="white">set producer</text>
<text text-anchor="start" x="263.123" y="-881.727" font-family="Times,serif" font-size="14.00">prepare stream write command</text>
<text text-anchor="start" x="263.5" y="-857.727" font-family="Times,serif" font-size="14.00">send</text>
</g>
<!-- connected&#45;&gt;connected &#160;&#160;&#160;&#160;set producer -->
<g id="edge21" class="edge"><title>connected&#45;&gt;connected &#160;&#160;&#160;&#160;set producer</title>
<path fill="none" stroke="black" d="M930.619,-1011.16C836.593,-1000.24 636.634,-973.816 460.942,-927.806"/>
<polygon fill="black" stroke="black" points="461.832,-924.422 451.269,-925.247 460.041,-931.189 461.832,-924.422"/>
</g>
<!-- connected &#160;&#160;&#160;&#160;set consumer -->
<g id="node16" class="node"><title>connected &#160;&#160;&#160;&#160;set consumer</title>
<path fill="none" stroke="black" d="M47,-845.327C47,-845.327 220,-845.327 220,-845.327 226,-845.327 232,-851.327 232,-857.327 232,-857.327 232,-915.327 232,-915.327 232,-921.327 226,-927.327 220,-927.327 220,-927.327 47,-927.327 47,-927.327 41,-927.327 35,-921.327 35,-915.327 35,-915.327 35,-857.327 35,-857.327 35,-851.327 41,-845.327 47,-845.327"/>
<polygon fill="white" stroke="none" points="43,-849.327 43,-923.327 224,-923.327 224,-849.327 43,-849.327"/>
<polygon fill="black" stroke="none" points="45.5,-899.327 45.5,-921.327 222.5,-921.327 222.5,-899.327 45.5,-899.327"/>
<text text-anchor="start" x="97.2626" y="-905.727" font-family="Times,serif" font-size="14.00" fill="white">set consumer</text>
<text text-anchor="start" x="48.4596" y="-881.727" font-family="Times,serif" font-size="14.00">prepare stream read command</text>
<text text-anchor="start" x="48.5" y="-857.727" font-family="Times,serif" font-size="14.00">send</text>
</g>
<!-- connected&#45;&gt;connected &#160;&#160;&#160;&#160;set consumer -->
<g id="edge23" class="edge"><title>connected&#45;&gt;connected &#160;&#160;&#160;&#160;set consumer</title>
<path fill="none" stroke="black" d="M930.011,-1014.99C807.509,-1009.5 501.408,-990.388 242.024,-928.046"/>
<polygon fill="black" stroke="black" points="242.585,-924.581 232.041,-925.62 240.932,-931.383 242.585,-924.581"/>
</g>
<!-- connected &#160;&#160;&#160;&#160;set worker -->
<g id="node17" class="node"><title>connected &#160;&#160;&#160;&#160;set worker</title>
<path fill="none" stroke="black" d="M481.5,-845.327C481.5,-845.327 659.5,-845.327 659.5,-845.327 665.5,-845.327 671.5,-851.327 671.5,-857.327 671.5,-857.327 671.5,-915.327 671.5,-915.327 671.5,-921.327 665.5,-927.327 659.5,-927.327 659.5,-927.327 481.5,-927.327 481.5,-927.327 475.5,-927.327 469.5,-921.327 469.5,-915.327 469.5,-915.327 469.5,-857.327 469.5,-857.327 469.5,-851.327 475.5,-845.327 481.5,-845.327"/>
<polygon fill="white" stroke="none" points="477.5,-849.327 477.5,-923.327 663.5,-923.327 663.5,-849.327 477.5,-849.327"/>
<polygon fill="black" stroke="none" points="479.5,-899.327 479.5,-921.327 661.5,-921.327 661.5,-899.327 479.5,-899.327"/>
<text text-anchor="start" x="541.154" y="-905.727" font-family="Times,serif" font-size="14.00" fill="white">set worker</text>
<text text-anchor="start" x="482.244" y="-881.727" font-family="Times,serif" font-size="14.00">prepare service offer command</text>
<text text-anchor="start" x="482.5" y="-857.727" font-family="Times,serif" font-size="14.00">send</text>
</g>
<!-- connected&#45;&gt;connected &#160;&#160;&#160;&#160;set worker -->
<g id="edge25" class="edge"><title>connected&#45;&gt;connected &#160;&#160;&#160;&#160;set worker</title>
<path fill="none" stroke="black" d="M932.262,-1002.84C873.454,-986.63 774.924,-958.701 681.329,-928.048"/>
<polygon fill="black" stroke="black" points="682.298,-924.682 671.705,-924.88 680.109,-931.331 682.298,-924.682"/>
</g>
<!-- connected &#160;&#160;&#160;&#160;destructor -->
<g id="node18" class="node"><title>connected &#160;&#160;&#160;&#160;destructor</title>
<path fill="none" stroke="black" d="M1350,-857.327C1350,-857.327 1409,-857.327 1409,-857.327 1415,-857.327 1421,-863.327 1421,-869.327 1421,-869.327 1421,-903.327 1421,-903.327 1421,-909.327 1415,-915.327 1409,-915.327 1409,-915.327 1350,-915.327 1350,-915.327 1344,-915.327 1338,-909.327 1338,-903.327 1338,-903.327 1338,-869.327 1338,-869.327 1338,-863.327 1344,-857.327 1350,-857.327"/>
<polygon fill="white" stroke="none" points="1346,-861.327 1346,-911.327 1413,-911.327 1413,-861.327 1346,-861.327"/>
<polygon fill="black" stroke="none" points="1348.5,-887.327 1348.5,-909.327 1411.5,-909.327 1411.5,-887.327 1348.5,-887.327"/>
<text text-anchor="start" x="1352.01" y="-893.727" font-family="Times,serif" font-size="14.00" fill="white">destructor</text>
<text text-anchor="start" x="1351.5" y="-869.727" font-family="Times,serif" font-size="14.00">send</text>
</g>
<!-- connected&#45;&gt;connected &#160;&#160;&#160;&#160;destructor -->
<g id="edge27" class="edge"><title>connected&#45;&gt;connected &#160;&#160;&#160;&#160;destructor</title>
<path fill="none" stroke="black" d="M1037.52,-1005.57C1119.49,-987.457 1272.82,-951.793 1323.5,-927.827 1327.82,-925.787 1332.14,-923.402 1336.37,-920.83"/>
<polygon fill="black" stroke="black" points="1338.38,-923.701 1344.88,-915.338 1334.58,-917.819 1338.38,-923.701"/>
</g>
<!-- connected &#160;&#160;&#160;&#160;stream deliver -->
<g id="node20" class="node"><title>connected &#160;&#160;&#160;&#160;stream deliver</title>
<path fill="none" stroke="black" d="M702,-857.327C702,-857.327 859,-857.327 859,-857.327 865,-857.327 871,-863.327 871,-869.327 871,-869.327 871,-903.327 871,-903.327 871,-909.327 865,-915.327 859,-915.327 859,-915.327 702,-915.327 702,-915.327 696,-915.327 690,-909.327 690,-903.327 690,-903.327 690,-869.327 690,-869.327 690,-863.327 696,-857.327 702,-857.327"/>
<polygon fill="white" stroke="none" points="698,-861.327 698,-911.327 863,-911.327 863,-861.327 698,-861.327"/>
<polygon fill="black" stroke="none" points="700.5,-887.327 700.5,-909.327 861.5,-909.327 861.5,-887.327 700.5,-887.327"/>
<text text-anchor="start" x="741.157" y="-893.727" font-family="Times,serif" font-size="14.00" fill="white">stream deliver</text>
<text text-anchor="start" x="703.026" y="-869.727" font-family="Times,serif" font-size="14.00">pass stream message to app</text>
</g>
<!-- connected&#45;&gt;connected &#160;&#160;&#160;&#160;stream deliver -->
<g id="edge29" class="edge"><title>connected&#45;&gt;connected &#160;&#160;&#160;&#160;stream deliver</title>
<path fill="none" stroke="black" d="M937.412,-990.609C904.445,-970.554 860.669,-942.821 827.685,-921.142"/>
<polygon fill="black" stroke="black" points="829.39,-918.074 819.116,-915.485 825.533,-923.916 829.39,-918.074"/>
</g>
<!-- connected &#160;&#160;&#160;&#160;mailbox deliver -->
<g id="node21" class="node"><title>connected &#160;&#160;&#160;&#160;mailbox deliver</title>
<path fill="none" stroke="black" d="M901.5,-857.327C901.5,-857.327 1067.5,-857.327 1067.5,-857.327 1073.5,-857.327 1079.5,-863.327 1079.5,-869.327 1079.5,-869.327 1079.5,-903.327 1079.5,-903.327 1079.5,-909.327 1073.5,-915.327 1067.5,-915.327 1067.5,-915.327 901.5,-915.327 901.5,-915.327 895.5,-915.327 889.5,-909.327 889.5,-903.327 889.5,-903.327 889.5,-869.327 889.5,-869.327 889.5,-863.327 895.5,-857.327 901.5,-857.327"/>
<polygon fill="white" stroke="none" points="897.5,-861.327 897.5,-911.327 1071.5,-911.327 1071.5,-861.327 897.5,-861.327"/>
<polygon fill="black" stroke="none" points="899.5,-887.327 899.5,-909.327 1069.5,-909.327 1069.5,-887.327 899.5,-887.327"/>
<text text-anchor="start" x="940.371" y="-893.727" font-family="Times,serif" font-size="14.00" fill="white">mailbox deliver</text>
<text text-anchor="start" x="902.24" y="-869.727" font-family="Times,serif" font-size="14.00">pass mailbox message to app</text>
</g>
<!-- connected&#45;&gt;connected &#160;&#160;&#160;&#160;mailbox deliver -->
<g id="edge31" class="edge"><title>connected&#45;&gt;connected &#160;&#160;&#160;&#160;mailbox deliver</title>
<path fill="none" stroke="black" d="M977.849,-963.888C977.629,-951.012 977.775,-937.498 978.287,-925.47"/>
<polygon fill="black" stroke="black" points="981.79,-925.508 978.83,-915.335 974.8,-925.133 981.79,-925.508"/>
</g>
<!-- connected &#160;&#160;&#160;&#160;service deliver -->
<g id="node22" class="node"><title>connected &#160;&#160;&#160;&#160;service deliver</title>
<path fill="none" stroke="black" d="M1109.5,-857.327C1109.5,-857.327 1269.5,-857.327 1269.5,-857.327 1275.5,-857.327 1281.5,-863.327 1281.5,-869.327 1281.5,-869.327 1281.5,-903.327 1281.5,-903.327 1281.5,-909.327 1275.5,-915.327 1269.5,-915.327 1269.5,-915.327 1109.5,-915.327 1109.5,-915.327 1103.5,-915.327 1097.5,-909.327 1097.5,-903.327 1097.5,-903.327 1097.5,-869.327 1097.5,-869.327 1097.5,-863.327 1103.5,-857.327 1109.5,-857.327"/>
<polygon fill="white" stroke="none" points="1105.5,-861.327 1105.5,-911.327 1273.5,-911.327 1273.5,-861.327 1105.5,-861.327"/>
<polygon fill="black" stroke="none" points="1107.5,-887.327 1107.5,-909.327 1271.5,-909.327 1271.5,-887.327 1107.5,-887.327"/>
<text text-anchor="start" x="1148.49" y="-893.727" font-family="Times,serif" font-size="14.00" fill="white">service deliver</text>
<text text-anchor="start" x="1110.36" y="-869.727" font-family="Times,serif" font-size="14.00">pass service message to app</text>
</g>
<!-- connected&#45;&gt;connected &#160;&#160;&#160;&#160;service deliver -->
<g id="edge33" class="edge"><title>connected&#45;&gt;connected &#160;&#160;&#160;&#160;service deliver</title>
<path fill="none" stroke="black" d="M1028.25,-985.616C1058.23,-965.936 1098.25,-940.595 1130.96,-920.573"/>
<polygon fill="black" stroke="black" points="1132.83,-923.535 1139.55,-915.341 1129.18,-917.559 1132.83,-923.535"/>
</g>
<!-- connecting &#160;&#160;&#160;expired&#45;&gt;start -->
<g id="edge20" class="edge"><title>connecting &#160;&#160;&#160;expired&#45;&gt;start</title>
<path fill="none" stroke="black" d="M1277.94,-1178.78C1271.69,-1254.3 1259.03,-1459.32 1300.5,-1509 1330.45,-1544.88 1466.79,-1564.05 1536.78,-1571.67"/>
<polygon fill="black" stroke="black" points="1536.69,-1575.18 1547.01,-1572.76 1537.43,-1568.22 1536.69,-1575.18"/>
</g>
<!-- confirming -->
<g id="node15" class="node"><title>confirming</title>
<ellipse fill="none" stroke="black" cx="570.5" cy="-749.27" rx="53.8961" ry="53.8961"/>
<ellipse fill="none" stroke="black" cx="570.5" cy="-749.27" rx="57.8924" ry="57.8924"/>
<text text-anchor="middle" x="570.5" y="-745.07" font-family="Times,serif" font-size="14.00">confirming</text>
</g>
<!-- connected &#160;&#160;&#160;&#160;set producer&#45;&gt;confirming -->
<g id="edge22" class="edge"><title>connected &#160;&#160;&#160;&#160;set producer&#45;&gt;confirming</title>
<path fill="none" stroke="black" d="M415.912,-845.171C446.692,-826.275 483.078,-803.938 512.815,-785.682"/>
<polygon fill="black" stroke="black" points="514.724,-788.617 521.415,-780.403 511.062,-782.652 514.724,-788.617"/>
</g>
<!-- confirming &#160;&#160;&#160;expired -->
<g id="node23" class="node"><title>confirming &#160;&#160;&#160;expired</title>
<path fill="none" stroke="black" d="M696,-571.213C696,-571.213 827,-571.213 827,-571.213 833,-571.213 839,-577.213 839,-583.213 839,-583.213 839,-641.213 839,-641.213 839,-647.213 833,-653.213 827,-653.213 827,-653.213 696,-653.213 696,-653.213 690,-653.213 684,-647.213 684,-641.213 684,-641.213 684,-583.213 684,-583.213 684,-577.213 690,-571.213 696,-571.213"/>
<polygon fill="white" stroke="none" points="692,-575.213 692,-649.213 831,-649.213 831,-575.213 692,-575.213"/>
<polygon fill="black" stroke="none" points="694.5,-625.213 694.5,-647.213 829.5,-647.213 829.5,-625.213 694.5,-625.213"/>
<text text-anchor="start" x="741.01" y="-631.613" font-family="Times,serif" font-size="14.00" fill="white">expired</text>
<text text-anchor="start" x="697.057" y="-607.613" font-family="Times,serif" font-size="14.00">server has gone offline</text>
<text text-anchor="start" x="697.5" y="-583.613" font-family="Times,serif" font-size="14.00">signal failure</text>
</g>
<!-- confirming&#45;&gt;confirming &#160;&#160;&#160;expired -->
<g id="edge35" class="edge"><title>confirming&#45;&gt;confirming &#160;&#160;&#160;expired</title>
<path fill="none" stroke="black" d="M617.713,-714.885C641.438,-698.11 670.557,-677.519 696.372,-659.265"/>
<polygon fill="black" stroke="black" points="698.482,-662.06 704.626,-653.429 694.44,-656.345 698.482,-662.06"/>
</g>
<!-- confirming &#160;&#160;&#160;ok -->
<g id="node25" class="node"><title>confirming &#160;&#160;&#160;ok</title>
<path fill="none" stroke="black" d="M887.5,-583.213C887.5,-583.213 969.5,-583.213 969.5,-583.213 975.5,-583.213 981.5,-589.213 981.5,-595.213 981.5,-595.213 981.5,-629.213 981.5,-629.213 981.5,-635.213 975.5,-641.213 969.5,-641.213 969.5,-641.213 887.5,-641.213 887.5,-641.213 881.5,-641.213 875.5,-635.213 875.5,-629.213 875.5,-629.213 875.5,-595.213 875.5,-595.213 875.5,-589.213 881.5,-583.213 887.5,-583.213"/>
<polygon fill="white" stroke="none" points="883.5,-587.213 883.5,-637.213 973.5,-637.213 973.5,-587.213 883.5,-587.213"/>
<polygon fill="black" stroke="none" points="885.5,-613.213 885.5,-635.213 971.5,-635.213 971.5,-613.213 885.5,-613.213"/>
<text text-anchor="start" x="921.5" y="-619.613" font-family="Times,serif" font-size="14.00" fill="white">ok</text>
<text text-anchor="start" x="888.041" y="-595.613" font-family="Times,serif" font-size="14.00">signal success</text>
</g>
<!-- confirming&#45;&gt;confirming &#160;&#160;&#160;ok -->
<g id="edge37" class="edge"><title>confirming&#45;&gt;confirming &#160;&#160;&#160;ok</title>
<path fill="none" stroke="black" d="M625.974,-731.755C682.486,-714.369 772.263,-685.195 847.5,-653.713 853.639,-651.144 859.963,-648.318 866.242,-645.389"/>
<polygon fill="black" stroke="black" points="867.854,-648.497 875.383,-641.042 864.848,-642.176 867.854,-648.497"/>
</g>
<!-- confirming &#160;&#160;&#160;error -->
<g id="node26" class="node"><title>confirming &#160;&#160;&#160;error</title>
<path fill="none" stroke="black" d="M380,-571.213C380,-571.213 481,-571.213 481,-571.213 487,-571.213 493,-577.213 493,-583.213 493,-583.213 493,-641.213 493,-641.213 493,-647.213 487,-653.213 481,-653.213 481,-653.213 380,-653.213 380,-653.213 374,-653.213 368,-647.213 368,-641.213 368,-641.213 368,-583.213 368,-583.213 368,-577.213 374,-571.213 380,-571.213"/>
<polygon fill="white" stroke="none" points="376,-575.213 376,-649.213 485,-649.213 485,-575.213 376,-575.213"/>
<polygon fill="black" stroke="none" points="378.5,-625.213 378.5,-647.213 483.5,-647.213 483.5,-625.213 378.5,-625.213"/>
<text text-anchor="start" x="417.402" y="-631.613" font-family="Times,serif" font-size="14.00" fill="white">error</text>
<text text-anchor="start" x="381.5" y="-607.613" font-family="Times,serif" font-size="14.00">signal failure</text>
<text text-anchor="start" x="381.021" y="-583.613" font-family="Times,serif" font-size="14.00">check status code</text>
</g>
<!-- confirming&#45;&gt;confirming &#160;&#160;&#160;error -->
<g id="edge39" class="edge"><title>confirming&#45;&gt;confirming &#160;&#160;&#160;error</title>
<path fill="none" stroke="black" d="M529.253,-708.479C513.725,-693.499 495.912,-676.316 479.729,-660.704"/>
<polygon fill="black" stroke="black" points="482.049,-658.078 472.422,-653.655 477.189,-663.116 482.049,-658.078"/>
</g>
<!-- confirming &#160;&#160;&#160;connection pong -->
<g id="node28" class="node"><title>confirming &#160;&#160;&#160;connection pong</title>
<path fill="none" stroke="black" d="M523.5,-594.213C523.5,-594.213 617.5,-594.213 617.5,-594.213 623.5,-594.213 629.5,-600.213 629.5,-606.213 629.5,-606.213 629.5,-618.213 629.5,-618.213 629.5,-624.213 623.5,-630.213 617.5,-630.213 617.5,-630.213 523.5,-630.213 523.5,-630.213 517.5,-630.213 511.5,-624.213 511.5,-618.213 511.5,-618.213 511.5,-606.213 511.5,-606.213 511.5,-600.213 517.5,-594.213 523.5,-594.213"/>
<polygon fill="white" stroke="none" points="519.5,-599.213 519.5,-625.213 621.5,-625.213 621.5,-599.213 519.5,-599.213"/>
<polygon fill="black" stroke="none" points="521.5,-601.213 521.5,-623.213 619.5,-623.213 619.5,-601.213 521.5,-601.213"/>
<text text-anchor="start" x="524.038" y="-607.613" font-family="Times,serif" font-size="14.00" fill="white">connection pong</text>
</g>
<!-- confirming&#45;&gt;confirming &#160;&#160;&#160;connection pong -->
<g id="edge41" class="edge"><title>confirming&#45;&gt;confirming &#160;&#160;&#160;connection pong</title>
<path fill="none" stroke="black" d="M563.825,-691.385C563.575,-673.806 563.949,-655.241 564.946,-640.615"/>
<polygon fill="black" stroke="black" points="568.465,-640.543 565.831,-630.281 561.491,-639.946 568.465,-640.543"/>
</g>
<!-- connected &#160;&#160;&#160;&#160;set consumer&#45;&gt;confirming -->
<g id="edge24" class="edge"><title>connected &#160;&#160;&#160;&#160;set consumer&#45;&gt;confirming</title>
<path fill="none" stroke="black" d="M232.211,-847.624C234.999,-846.669 237.767,-845.734 240.5,-844.827 331.155,-814.739 437.644,-785.263 504.608,-767.426"/>
<polygon fill="black" stroke="black" points="505.834,-770.722 514.601,-764.772 504.037,-763.956 505.834,-770.722"/>
</g>
<!-- connected &#160;&#160;&#160;&#160;set worker&#45;&gt;confirming -->
<g id="edge26" class="edge"><title>connected &#160;&#160;&#160;&#160;set worker&#45;&gt;confirming</title>
<path fill="none" stroke="black" d="M570.5,-845.171C570.5,-836.492 570.5,-827.086 570.5,-817.683"/>
<polygon fill="black" stroke="black" points="574,-817.516 570.5,-807.516 567,-817.516 574,-817.516"/>
</g>
<!-- terminating -->
<g id="node19" class="node"><title>terminating</title>
<ellipse fill="none" stroke="black" cx="1370.5" cy="-749.27" rx="55.6101" ry="55.6101"/>
<ellipse fill="none" stroke="black" cx="1370.5" cy="-749.27" rx="59.614" ry="59.614"/>
<text text-anchor="middle" x="1370.5" y="-745.07" font-family="Times,serif" font-size="14.00">terminating</text>
</g>
<!-- connected &#160;&#160;&#160;&#160;destructor&#45;&gt;terminating -->
<g id="edge28" class="edge"><title>connected &#160;&#160;&#160;&#160;destructor&#45;&gt;terminating</title>
<path fill="none" stroke="black" d="M1377.61,-857.015C1376.87,-845.858 1375.98,-832.516 1375.09,-819.106"/>
<polygon fill="black" stroke="black" points="1378.56,-818.617 1374.41,-808.872 1371.58,-819.083 1378.56,-818.617"/>
</g>
<!-- terminating &#160;&#160;ok -->
<g id="node29" class="node"><title>terminating &#160;&#160;ok</title>
<path fill="none" stroke="black" d="M1020.5,-571.213C1020.5,-571.213 1102.5,-571.213 1102.5,-571.213 1108.5,-571.213 1114.5,-577.213 1114.5,-583.213 1114.5,-583.213 1114.5,-641.213 1114.5,-641.213 1114.5,-647.213 1108.5,-653.213 1102.5,-653.213 1102.5,-653.213 1020.5,-653.213 1020.5,-653.213 1014.5,-653.213 1008.5,-647.213 1008.5,-641.213 1008.5,-641.213 1008.5,-583.213 1008.5,-583.213 1008.5,-577.213 1014.5,-571.213 1020.5,-571.213"/>
<polygon fill="white" stroke="none" points="1016.5,-575.213 1016.5,-649.213 1106.5,-649.213 1106.5,-575.213 1016.5,-575.213"/>
<polygon fill="black" stroke="none" points="1018.5,-625.213 1018.5,-647.213 1104.5,-647.213 1104.5,-625.213 1018.5,-625.213"/>
<text text-anchor="start" x="1054.5" y="-631.613" font-family="Times,serif" font-size="14.00" fill="white">ok</text>
<text text-anchor="start" x="1021.04" y="-607.613" font-family="Times,serif" font-size="14.00">signal success</text>
<text text-anchor="start" x="1021.5" y="-583.613" font-family="Times,serif" font-size="14.00">terminate</text>
</g>
<!-- terminating&#45;&gt;terminating &#160;&#160;ok -->
<g id="edge43" class="edge"><title>terminating&#45;&gt;terminating &#160;&#160;ok</title>
<path fill="none" stroke="black" d="M1323.37,-712.392C1312.21,-703.859 1299.96,-695.548 1287.5,-689.713 1219.94,-658.085 1190.46,-681.041 1124.04,-656.981"/>
<polygon fill="black" stroke="black" points="1125.01,-653.601 1114.42,-653.263 1122.48,-660.131 1125.01,-653.601"/>
</g>
<!-- terminating &#160;&#160;expired -->
<g id="node30" class="node"><title>terminating &#160;&#160;expired</title>
<path fill="none" stroke="black" d="M1145,-571.213C1145,-571.213 1222,-571.213 1222,-571.213 1228,-571.213 1234,-577.213 1234,-583.213 1234,-583.213 1234,-641.213 1234,-641.213 1234,-647.213 1228,-653.213 1222,-653.213 1222,-653.213 1145,-653.213 1145,-653.213 1139,-653.213 1133,-647.213 1133,-641.213 1133,-641.213 1133,-583.213 1133,-583.213 1133,-577.213 1139,-571.213 1145,-571.213"/>
<polygon fill="white" stroke="none" points="1141,-575.213 1141,-649.213 1226,-649.213 1226,-575.213 1141,-575.213"/>
<polygon fill="black" stroke="none" points="1143.5,-625.213 1143.5,-647.213 1224.5,-647.213 1224.5,-625.213 1143.5,-625.213"/>
<text text-anchor="start" x="1163.01" y="-631.613" font-family="Times,serif" font-size="14.00" fill="white">expired</text>
<text text-anchor="start" x="1146.26" y="-607.613" font-family="Times,serif" font-size="14.00">signal failure</text>
<text text-anchor="start" x="1146.5" y="-583.613" font-family="Times,serif" font-size="14.00">terminate</text>
</g>
<!-- terminating&#45;&gt;terminating &#160;&#160;expired -->
<g id="edge45" class="edge"><title>terminating&#45;&gt;terminating &#160;&#160;expired</title>
<path fill="none" stroke="black" d="M1321.13,-715.197C1310.1,-706.73 1298.47,-697.749 1287.5,-689.713 1284.93,-687.827 1264.49,-673.973 1242.37,-658.56"/>
<polygon fill="black" stroke="black" points="1244.37,-655.69 1234.17,-652.831 1240.36,-661.428 1244.37,-655.69"/>
</g>
<!-- terminating &#160;&#160;connection pong -->
<g id="node31" class="node"><title>terminating &#160;&#160;connection pong</title>
<path fill="none" stroke="black" d="M1264.5,-594.213C1264.5,-594.213 1358.5,-594.213 1358.5,-594.213 1364.5,-594.213 1370.5,-600.213 1370.5,-606.213 1370.5,-606.213 1370.5,-618.213 1370.5,-618.213 1370.5,-624.213 1364.5,-630.213 1358.5,-630.213 1358.5,-630.213 1264.5,-630.213 1264.5,-630.213 1258.5,-630.213 1252.5,-624.213 1252.5,-618.213 1252.5,-618.213 1252.5,-606.213 1252.5,-606.213 1252.5,-600.213 1258.5,-594.213 1264.5,-594.213"/>
<polygon fill="white" stroke="none" points="1260.5,-599.213 1260.5,-625.213 1362.5,-625.213 1362.5,-599.213 1260.5,-599.213"/>
<polygon fill="black" stroke="none" points="1262.5,-601.213 1262.5,-623.213 1360.5,-623.213 1360.5,-601.213 1262.5,-601.213"/>
<text text-anchor="start" x="1265.04" y="-607.613" font-family="Times,serif" font-size="14.00" fill="white">connection pong</text>
</g>
<!-- terminating&#45;&gt;terminating &#160;&#160;connection pong -->
<g id="edge47" class="edge"><title>terminating&#45;&gt;terminating &#160;&#160;connection pong</title>
<path fill="none" stroke="black" d="M1341.45,-696.825C1332.58,-677.502 1323.68,-656.313 1317.73,-640.1"/>
<polygon fill="black" stroke="black" points="1320.88,-638.515 1314.27,-630.235 1314.27,-640.83 1320.88,-638.515"/>
</g>
<!-- terminating &#160;&#160;error -->
<g id="node32" class="node"><title>terminating &#160;&#160;error</title>
<path fill="none" stroke="black" d="M1401,-571.213C1401,-571.213 1478,-571.213 1478,-571.213 1484,-571.213 1490,-577.213 1490,-583.213 1490,-583.213 1490,-641.213 1490,-641.213 1490,-647.213 1484,-653.213 1478,-653.213 1478,-653.213 1401,-653.213 1401,-653.213 1395,-653.213 1389,-647.213 1389,-641.213 1389,-641.213 1389,-583.213 1389,-583.213 1389,-577.213 1395,-571.213 1401,-571.213"/>
<polygon fill="white" stroke="none" points="1397,-575.213 1397,-649.213 1482,-649.213 1482,-575.213 1397,-575.213"/>
<polygon fill="black" stroke="none" points="1399.5,-625.213 1399.5,-647.213 1480.5,-647.213 1480.5,-625.213 1399.5,-625.213"/>
<text text-anchor="start" x="1426.4" y="-631.613" font-family="Times,serif" font-size="14.00" fill="white">error</text>
<text text-anchor="start" x="1402.26" y="-607.613" font-family="Times,serif" font-size="14.00">signal failure</text>
<text text-anchor="start" x="1402.5" y="-583.613" font-family="Times,serif" font-size="14.00">terminate</text>
</g>
<!-- terminating&#45;&gt;terminating &#160;&#160;error -->
<g id="edge49" class="edge"><title>terminating&#45;&gt;terminating &#160;&#160;error</title>
<path fill="none" stroke="black" d="M1391.92,-693.337C1396.95,-683.161 1402.39,-672.589 1407.74,-662.591"/>
<polygon fill="black" stroke="black" points="1410.93,-664.056 1412.63,-653.597 1404.78,-660.715 1410.93,-664.056"/>
</g>
<!-- connected &#160;&#160;&#160;&#160;stream deliver&#45;&gt;connected -->
<g id="edge30" class="edge"><title>connected &#160;&#160;&#160;&#160;stream deliver&#45;&gt;connected</title>
<path fill="none" stroke="black" d="M830.239,-915.341C861.224,-934.244 900.951,-959.393 932.369,-979.949"/>
<polygon fill="black" stroke="black" points="930.716,-983.051 940.996,-985.616 934.559,-977.2 930.716,-983.051"/>
</g>
<!-- connected &#160;&#160;&#160;&#160;mailbox deliver&#45;&gt;connected -->
<g id="edge32" class="edge"><title>connected &#160;&#160;&#160;&#160;mailbox deliver&#45;&gt;connected</title>
<path fill="none" stroke="black" d="M990.17,-915.335C990.917,-926.644 991.277,-940.189 991.248,-953.649"/>
<polygon fill="black" stroke="black" points="987.746,-953.855 991.151,-963.888 994.746,-953.921 987.746,-953.855"/>
</g>
<!-- connected &#160;&#160;&#160;&#160;service deliver&#45;&gt;connected -->
<g id="edge34" class="edge"><title>connected &#160;&#160;&#160;&#160;service deliver&#45;&gt;connected</title>
<path fill="none" stroke="black" d="M1150.56,-915.553C1119.32,-936.172 1075.18,-964.139 1040.21,-985.488"/>
<polygon fill="black" stroke="black" points="1038.26,-982.579 1031.53,-990.765 1041.9,-988.56 1038.26,-982.579"/>
</g>
<!-- disconnected -->
<g id="node24" class="node"><title>disconnected</title>
<ellipse fill="none" stroke="black" cx="1089.5" cy="-469.264" rx="61.4005" ry="61.4005"/>
<ellipse fill="none" stroke="black" cx="1089.5" cy="-469.264" rx="65.3974" ry="65.3974"/>
<text text-anchor="middle" x="1089.5" y="-465.064" font-family="Times,serif" font-size="14.00">disconnected</text>
</g>
<!-- confirming &#160;&#160;&#160;expired&#45;&gt;disconnected -->
<g id="edge36" class="edge"><title>confirming &#160;&#160;&#160;expired&#45;&gt;disconnected</title>
<path fill="none" stroke="black" d="M839.231,-577.81C894.185,-554.195 967.205,-522.817 1020.18,-500.053"/>
<polygon fill="black" stroke="black" points="1021.69,-503.213 1029.5,-496.049 1018.93,-496.782 1021.69,-503.213"/>
</g>
<!-- disconnected &#160;set producer -->
<g id="node41" class="node"><title>disconnected &#160;set producer</title>
<path fill="none" stroke="black" d="M872,-297.316C872,-297.316 949,-297.316 949,-297.316 955,-297.316 961,-303.316 961,-309.316 961,-309.316 961,-343.316 961,-343.316 961,-349.316 955,-355.316 949,-355.316 949,-355.316 872,-355.316 872,-355.316 866,-355.316 860,-349.316 860,-343.316 860,-343.316 860,-309.316 860,-309.316 860,-303.316 866,-297.316 872,-297.316"/>
<polygon fill="white" stroke="none" points="868,-301.316 868,-351.316 953,-351.316 953,-301.316 868,-301.316"/>
<polygon fill="black" stroke="none" points="870.5,-327.316 870.5,-349.316 951.5,-349.316 951.5,-327.316 870.5,-327.316"/>
<text text-anchor="start" x="876.6" y="-333.716" font-family="Times,serif" font-size="14.00" fill="white">set producer</text>
<text text-anchor="start" x="873.264" y="-309.716" font-family="Times,serif" font-size="14.00">signal failure</text>
</g>
<!-- disconnected&#45;&gt;disconnected &#160;set producer -->
<g id="edge65" class="edge"><title>disconnected&#45;&gt;disconnected &#160;set producer</title>
<path fill="none" stroke="black" d="M1035.96,-430.863C1007.87,-409.521 974.165,-382.947 948.717,-362.063"/>
<polygon fill="black" stroke="black" points="950.702,-359.163 940.762,-355.496 946.246,-364.561 950.702,-359.163"/>
</g>
<!-- disconnected &#160;set consumer -->
<g id="node42" class="node"><title>disconnected &#160;set consumer</title>
<path fill="none" stroke="black" d="M991,-297.316C991,-297.316 1068,-297.316 1068,-297.316 1074,-297.316 1080,-303.316 1080,-309.316 1080,-309.316 1080,-343.316 1080,-343.316 1080,-349.316 1074,-355.316 1068,-355.316 1068,-355.316 991,-355.316 991,-355.316 985,-355.316 979,-349.316 979,-343.316 979,-343.316 979,-309.316 979,-309.316 979,-303.316 985,-297.316 991,-297.316"/>
<polygon fill="white" stroke="none" points="987,-301.316 987,-351.316 1072,-351.316 1072,-301.316 987,-301.316"/>
<polygon fill="black" stroke="none" points="989.5,-327.316 989.5,-349.316 1070.5,-349.316 1070.5,-327.316 989.5,-327.316"/>
<text text-anchor="start" x="993.263" y="-333.716" font-family="Times,serif" font-size="14.00" fill="white">set consumer</text>
<text text-anchor="start" x="992.264" y="-309.716" font-family="Times,serif" font-size="14.00">signal failure</text>
</g>
<!-- disconnected&#45;&gt;disconnected &#160;set consumer -->
<g id="edge67" class="edge"><title>disconnected&#45;&gt;disconnected &#160;set consumer</title>
<path fill="none" stroke="black" d="M1058.63,-411.341C1051.71,-395.698 1044.85,-379.129 1039.44,-364.876"/>
<polygon fill="black" stroke="black" points="1042.69,-363.582 1035.94,-355.418 1036.13,-366.011 1042.69,-363.582"/>
</g>
<!-- disconnected &#160;set worker -->
<g id="node43" class="node"><title>disconnected &#160;set worker</title>
<path fill="none" stroke="black" d="M1110,-297.316C1110,-297.316 1187,-297.316 1187,-297.316 1193,-297.316 1199,-303.316 1199,-309.316 1199,-309.316 1199,-343.316 1199,-343.316 1199,-349.316 1193,-355.316 1187,-355.316 1187,-355.316 1110,-355.316 1110,-355.316 1104,-355.316 1098,-349.316 1098,-343.316 1098,-343.316 1098,-309.316 1098,-309.316 1098,-303.316 1104,-297.316 1110,-297.316"/>
<polygon fill="white" stroke="none" points="1106,-301.316 1106,-351.316 1191,-351.316 1191,-301.316 1106,-301.316"/>
<polygon fill="black" stroke="none" points="1108.5,-327.316 1108.5,-349.316 1189.5,-349.316 1189.5,-327.316 1108.5,-327.316"/>
<text text-anchor="start" x="1119.65" y="-333.716" font-family="Times,serif" font-size="14.00" fill="white">set worker</text>
<text text-anchor="start" x="1111.26" y="-309.716" font-family="Times,serif" font-size="14.00">signal failure</text>
</g>
<!-- disconnected&#45;&gt;disconnected &#160;set worker -->
<g id="edge69" class="edge"><title>disconnected&#45;&gt;disconnected &#160;set worker</title>
<path fill="none" stroke="black" d="M1108.67,-406.442C1114.45,-392.296 1120.78,-377.678 1126.71,-364.914"/>
<polygon fill="black" stroke="black" points="1130.03,-366.088 1131.15,-355.553 1123.7,-363.089 1130.03,-366.088"/>
</g>
<!-- disconnected &#160;destructor -->
<g id="node44" class="node"><title>disconnected &#160;destructor</title>
<path fill="none" stroke="black" d="M1229.5,-285.316C1229.5,-285.316 1311.5,-285.316 1311.5,-285.316 1317.5,-285.316 1323.5,-291.316 1323.5,-297.316 1323.5,-297.316 1323.5,-355.316 1323.5,-355.316 1323.5,-361.316 1317.5,-367.316 1311.5,-367.316 1311.5,-367.316 1229.5,-367.316 1229.5,-367.316 1223.5,-367.316 1217.5,-361.316 1217.5,-355.316 1217.5,-355.316 1217.5,-297.316 1217.5,-297.316 1217.5,-291.316 1223.5,-285.316 1229.5,-285.316"/>
<polygon fill="white" stroke="none" points="1225.5,-289.316 1225.5,-363.316 1315.5,-363.316 1315.5,-289.316 1225.5,-289.316"/>
<polygon fill="black" stroke="none" points="1227.5,-339.316 1227.5,-361.316 1313.5,-361.316 1313.5,-339.316 1227.5,-339.316"/>
<text text-anchor="start" x="1242.51" y="-345.716" font-family="Times,serif" font-size="14.00" fill="white">destructor</text>
<text text-anchor="start" x="1230.04" y="-321.716" font-family="Times,serif" font-size="14.00">signal success</text>
<text text-anchor="start" x="1230.5" y="-297.716" font-family="Times,serif" font-size="14.00">terminate</text>
</g>
<!-- disconnected&#45;&gt;disconnected &#160;destructor -->
<g id="edge71" class="edge"><title>disconnected&#45;&gt;disconnected &#160;destructor</title>
<path fill="none" stroke="black" d="M1138.52,-425.209C1160.38,-407.684 1186.33,-387.478 1209.44,-369.992"/>
<polygon fill="black" stroke="black" points="1211.6,-372.743 1217.48,-363.929 1207.39,-367.154 1211.6,-372.743"/>
</g>
<!-- confirming &#160;&#160;&#160;ok&#45;&gt;connected -->
<g id="edge38" class="edge"><title>confirming &#160;&#160;&#160;ok&#45;&gt;connected</title>
<path fill="none" stroke="black" d="M974.822,-641.218C1070.47,-699.262 1281.65,-828.649 1290.5,-844.827 1308.21,-877.186 1312.64,-898.318 1290.5,-927.827 1275.67,-947.599 1132.48,-983.215 1047.33,-1002.93"/>
<polygon fill="black" stroke="black" points="1046.46,-999.535 1037.5,-1005.19 1048.03,-1006.36 1046.46,-999.535"/>
</g>
<!-- have error -->
<g id="node27" class="node"><title>have error</title>
<ellipse fill="none" stroke="black" cx="430.5" cy="-469.264" rx="50.3858" ry="50.3858"/>
<ellipse fill="none" stroke="black" cx="430.5" cy="-469.264" rx="54.3815" ry="54.3815"/>
<text text-anchor="middle" x="430.5" y="-465.064" font-family="Times,serif" font-size="14.00">have error</text>
</g>
<!-- confirming &#160;&#160;&#160;error&#45;&gt;have error -->
<g id="edge40" class="edge"><title>confirming &#160;&#160;&#160;error&#45;&gt;have error</title>
<path fill="none" stroke="black" d="M430.5,-571.2C430.5,-559.576 430.5,-546.583 430.5,-533.889"/>
<polygon fill="black" stroke="black" points="434,-533.805 430.5,-523.805 427,-533.805 434,-533.805"/>
</g>
<!-- have error &#160;&#160;&#160;command invalid -->
<g id="node51" class="node"><title>have error &#160;&#160;&#160;command invalid</title>
<path fill="none" stroke="black" d="M235,-285.316C235,-285.316 350,-285.316 350,-285.316 356,-285.316 362,-291.316 362,-297.316 362,-297.316 362,-355.316 362,-355.316 362,-361.316 356,-367.316 350,-367.316 350,-367.316 235,-367.316 235,-367.316 229,-367.316 223,-361.316 223,-355.316 223,-355.316 223,-297.316 223,-297.316 223,-291.316 229,-285.316 235,-285.316"/>
<polygon fill="white" stroke="none" points="231,-289.316 231,-363.316 354,-363.316 354,-289.316 231,-289.316"/>
<polygon fill="black" stroke="none" points="233.5,-339.316 233.5,-361.316 352.5,-361.316 352.5,-339.316 233.5,-339.316"/>
<text text-anchor="start" x="244.202" y="-345.716" font-family="Times,serif" font-size="14.00" fill="white">command invalid</text>
<text text-anchor="start" x="236.015" y="-321.716" font-family="Times,serif" font-size="14.00">use connect timeout</text>
<text text-anchor="start" x="236.5" y="-297.716" font-family="Times,serif" font-size="14.00">send</text>
</g>
<!-- have error&#45;&gt;have error &#160;&#160;&#160;command invalid -->
<g id="edge83" class="edge"><title>have error&#45;&gt;have error &#160;&#160;&#160;command invalid</title>
<path fill="none" stroke="black" d="M392.791,-429.75C376.312,-412.918 356.811,-393.001 339.407,-375.225"/>
<polygon fill="black" stroke="black" points="341.588,-372.45 332.091,-367.753 336.587,-377.347 341.588,-372.45"/>
</g>
<!-- have error &#160;&#160;&#160;failed -->
<g id="node52" class="node"><title>have error &#160;&#160;&#160;failed</title>
<path fill="none" stroke="black" d="M392,-285.316C392,-285.316 469,-285.316 469,-285.316 475,-285.316 481,-291.316 481,-297.316 481,-297.316 481,-355.316 481,-355.316 481,-361.316 475,-367.316 469,-367.316 469,-367.316 392,-367.316 392,-367.316 386,-367.316 380,-361.316 380,-355.316 380,-355.316 380,-297.316 380,-297.316 380,-291.316 386,-285.316 392,-285.316"/>
<polygon fill="white" stroke="none" points="388,-289.316 388,-363.316 473,-363.316 473,-289.316 388,-289.316"/>
<polygon fill="black" stroke="none" points="390.5,-339.316 390.5,-361.316 471.5,-361.316 471.5,-339.316 390.5,-339.316"/>
<text text-anchor="start" x="415.065" y="-345.716" font-family="Times,serif" font-size="14.00" fill="white">failed</text>
<text text-anchor="start" x="393.264" y="-321.716" font-family="Times,serif" font-size="14.00">signal failure</text>
<text text-anchor="start" x="393.5" y="-297.716" font-family="Times,serif" font-size="14.00">terminate</text>
</g>
<!-- have error&#45;&gt;have error &#160;&#160;&#160;failed -->
<g id="edge85" class="edge"><title>have error&#45;&gt;have error &#160;&#160;&#160;failed</title>
<path fill="none" stroke="black" d="M423.932,-414.978C423.669,-402.798 423.691,-389.889 423.997,-377.83"/>
<polygon fill="black" stroke="black" points="427.506,-377.601 424.338,-367.491 420.51,-377.37 427.506,-377.601"/>
</g>
<!-- have error &#160;&#160;&#160;other -->
<g id="node53" class="node"><title>have error &#160;&#160;&#160;other</title>
<path fill="none" stroke="black" d="M511.5,-285.316C511.5,-285.316 661.5,-285.316 661.5,-285.316 667.5,-285.316 673.5,-291.316 673.5,-297.316 673.5,-297.316 673.5,-355.316 673.5,-355.316 673.5,-361.316 667.5,-367.316 661.5,-367.316 661.5,-367.316 511.5,-367.316 511.5,-367.316 505.5,-367.316 499.5,-361.316 499.5,-355.316 499.5,-355.316 499.5,-297.316 499.5,-297.316 499.5,-291.316 505.5,-285.316 511.5,-285.316"/>
<polygon fill="white" stroke="none" points="507.5,-289.316 507.5,-363.316 665.5,-363.316 665.5,-289.316 507.5,-289.316"/>
<polygon fill="black" stroke="none" points="509.5,-339.316 509.5,-361.316 663.5,-361.316 663.5,-339.316 509.5,-339.316"/>
<text text-anchor="start" x="572.117" y="-345.716" font-family="Times,serif" font-size="14.00" fill="white">other</text>
<text text-anchor="start" x="512.42" y="-321.716" font-family="Times,serif" font-size="14.00">announce unhandled error</text>
<text text-anchor="start" x="512.5" y="-297.716" font-family="Times,serif" font-size="14.00">terminate</text>
</g>
<!-- have error&#45;&gt;have error &#160;&#160;&#160;other -->
<g id="edge87" class="edge"><title>have error&#45;&gt;have error &#160;&#160;&#160;other</title>
<path fill="none" stroke="black" d="M467.831,-429.002C485.966,-411.956 508.12,-391.857 528.379,-374.049"/>
<polygon fill="black" stroke="black" points="530.818,-376.566 536.039,-367.347 526.208,-371.298 530.818,-376.566"/>
</g>
<!-- confirming &#160;&#160;&#160;connection pong&#45;&gt;confirming -->
<g id="edge42" class="edge"><title>confirming &#160;&#160;&#160;connection pong&#45;&gt;confirming</title>
<path fill="none" stroke="black" d="M575.169,-630.281C576.568,-643.361 577.262,-662.321 577.25,-681.229"/>
<polygon fill="black" stroke="black" points="573.749,-681.36 577.175,-691.385 580.749,-681.411 573.749,-681.36"/>
</g>
<!-- terminating &#160;&#160;ok&#45;&gt;terminating -->
<g id="edge44" class="edge"><title>terminating &#160;&#160;ok&#45;&gt;terminating</title>
<path fill="none" stroke="black" d="M1114.76,-644.496C1120.93,-647.957 1127.24,-651.15 1133.5,-653.713 1205.77,-683.322 1234.77,-656.597 1305.5,-689.713 1311.15,-692.357 1316.75,-695.509 1322.17,-698.96"/>
<polygon fill="black" stroke="black" points="1320.27,-701.899 1330.51,-704.599 1324.19,-696.099 1320.27,-701.899"/>
</g>
<!-- terminating &#160;&#160;expired&#45;&gt;terminating -->
<g id="edge46" class="edge"><title>terminating &#160;&#160;expired&#45;&gt;terminating</title>
<path fill="none" stroke="black" d="M1234.22,-642.456C1266.24,-662.97 1302.04,-687.175 1305.5,-689.713 1310.24,-693.186 1315.11,-696.836 1319.94,-700.545"/>
<polygon fill="black" stroke="black" points="1317.99,-703.455 1328.03,-706.821 1322.28,-697.925 1317.99,-703.455"/>
</g>
<!-- terminating &#160;&#160;connection pong&#45;&gt;terminating -->
<g id="edge48" class="edge"><title>terminating &#160;&#160;connection pong&#45;&gt;terminating</title>
<path fill="none" stroke="black" d="M1323.75,-630.501C1331.03,-643.923 1340.24,-663.44 1348.62,-682.738"/>
<polygon fill="black" stroke="black" points="1345.5,-684.35 1352.65,-692.167 1351.94,-681.596 1345.5,-684.35"/>
</g>
<!-- terminating &#160;&#160;error&#45;&gt;terminating -->
<g id="edge50" class="edge"><title>terminating &#160;&#160;error&#45;&gt;terminating</title>
<path fill="none" stroke="black" d="M1425.18,-653.446C1419.79,-664.893 1413.45,-677.599 1407.02,-689.892"/>
<polygon fill="black" stroke="black" points="1403.92,-688.271 1402.33,-698.747 1410.1,-691.545 1403.92,-688.271"/>
</g>
<!-- reconnecting -->
<g id="node33" class="node"><title>reconnecting</title>
<ellipse fill="none" stroke="black" cx="539.5" cy="-183.908" rx="60.8215" ry="60.8215"/>
<ellipse fill="none" stroke="black" cx="539.5" cy="-183.908" rx="64.8159" ry="64.8159"/>
<text text-anchor="middle" x="539.5" y="-179.708" font-family="Times,serif" font-size="14.00">reconnecting</text>
</g>
<!-- reconnecting &#160;ok -->
<g id="node34" class="node"><title>reconnecting &#160;ok</title>
<path fill="none" stroke="black" d="M709.5,-0.5C709.5,-0.5 853.5,-0.5 853.5,-0.5 859.5,-0.5 865.5,-6.5 865.5,-12.5 865.5,-12.5 865.5,-70.5 865.5,-70.5 865.5,-76.5 859.5,-82.5 853.5,-82.5 853.5,-82.5 709.5,-82.5 709.5,-82.5 703.5,-82.5 697.5,-76.5 697.5,-70.5 697.5,-70.5 697.5,-12.5 697.5,-12.5 697.5,-6.5 703.5,-0.5 709.5,-0.5"/>
<polygon fill="white" stroke="none" points="705.5,-4.5 705.5,-78.5 857.5,-78.5 857.5,-4.5 705.5,-4.5"/>
<polygon fill="black" stroke="none" points="707.5,-54.5 707.5,-76.5 855.5,-76.5 855.5,-54.5 707.5,-54.5"/>
<text text-anchor="start" x="774.5" y="-60.9" font-family="Times,serif" font-size="14.00" fill="white">ok</text>
<text text-anchor="start" x="710.5" y="-36.9" font-family="Times,serif" font-size="14.00">client is connected</text>
<text text-anchor="start" x="710.328" y="-12.9" font-family="Times,serif" font-size="14.00">get first replay command</text>
</g>
<!-- reconnecting&#45;&gt;reconnecting &#160;ok -->
<g id="edge51" class="edge"><title>reconnecting&#45;&gt;reconnecting &#160;ok</title>
<path fill="none" stroke="black" d="M593.706,-148.02C624.131,-129.828 662.714,-107.359 697.002,-87.836"/>
<polygon fill="black" stroke="black" points="699.117,-90.6605 706.083,-82.678 695.659,-84.5739 699.117,-90.6605"/>
</g>
<!-- reconnecting &#160;error -->
<g id="node35" class="node"><title>reconnecting &#160;error</title>
<path fill="none" stroke="black" d="M895.5,-23.5C895.5,-23.5 925.5,-23.5 925.5,-23.5 931.5,-23.5 937.5,-29.5 937.5,-35.5 937.5,-35.5 937.5,-47.5 937.5,-47.5 937.5,-53.5 931.5,-59.5 925.5,-59.5 925.5,-59.5 895.5,-59.5 895.5,-59.5 889.5,-59.5 883.5,-53.5 883.5,-47.5 883.5,-47.5 883.5,-35.5 883.5,-35.5 883.5,-29.5 889.5,-23.5 895.5,-23.5"/>
<polygon fill="white" stroke="none" points="891.5,-28.5 891.5,-54.5 929.5,-54.5 929.5,-28.5 891.5,-28.5"/>
<polygon fill="black" stroke="none" points="893.5,-30.5 893.5,-52.5 927.5,-52.5 927.5,-30.5 893.5,-30.5"/>
<text text-anchor="start" x="896.902" y="-36.9" font-family="Times,serif" font-size="14.00" fill="white">error</text>
</g>
<!-- reconnecting&#45;&gt;reconnecting &#160;error -->
<g id="edge53" class="edge"><title>reconnecting&#45;&gt;reconnecting &#160;error</title>
<path fill="none" stroke="black" d="M603.814,-173.356C672.863,-161.224 783.461,-135.237 865.5,-83 872.195,-78.7367 878.388,-72.8842 884.004,-66.9532"/>
<polygon fill="black" stroke="black" points="886.642,-69.2553 890.804,-59.5123 881.475,-64.5331 886.642,-69.2553"/>
</g>
<!-- reconnecting &#160;set producer -->
<g id="node36" class="node"><title>reconnecting &#160;set producer</title>
<path fill="none" stroke="black" d="M12,-0.5C12,-0.5 157,-0.5 157,-0.5 163,-0.5 169,-6.5 169,-12.5 169,-12.5 169,-70.5 169,-70.5 169,-76.5 163,-82.5 157,-82.5 157,-82.5 12,-82.5 12,-82.5 6,-82.5 0,-76.5 0,-70.5 0,-70.5 0,-12.5 0,-12.5 0,-6.5 6,-0.5 12,-0.5"/>
<polygon fill="white" stroke="none" points="8,-4.5 8,-78.5 161,-78.5 161,-4.5 8,-4.5"/>
<polygon fill="black" stroke="none" points="10.5,-54.5 10.5,-76.5 159.5,-76.5 159.5,-54.5 10.5,-54.5"/>
<text text-anchor="start" x="50.5999" y="-60.9" font-family="Times,serif" font-size="14.00" fill="white">set producer</text>
<text text-anchor="start" x="13.5" y="-36.9" font-family="Times,serif" font-size="14.00">send</text>
<text text-anchor="start" x="13.0494" y="-12.9" font-family="Times,serif" font-size="14.00">get next replay command</text>
</g>
<!-- reconnecting&#45;&gt;reconnecting &#160;set producer -->
<g id="edge55" class="edge"><title>reconnecting&#45;&gt;reconnecting &#160;set producer</title>
<path fill="none" stroke="black" d="M476.029,-169.776C403.553,-153.16 281.865,-122.335 177.248,-86.0589"/>
<polygon fill="black" stroke="black" points="178.097,-82.6478 167.502,-82.6457 175.784,-89.2544 178.097,-82.6478"/>
</g>
<!-- reconnecting &#160;set consumer -->
<g id="node37" class="node"><title>reconnecting &#160;set consumer</title>
<path fill="none" stroke="black" d="M199,-0.5C199,-0.5 344,-0.5 344,-0.5 350,-0.5 356,-6.5 356,-12.5 356,-12.5 356,-70.5 356,-70.5 356,-76.5 350,-82.5 344,-82.5 344,-82.5 199,-82.5 199,-82.5 193,-82.5 187,-76.5 187,-70.5 187,-70.5 187,-12.5 187,-12.5 187,-6.5 193,-0.5 199,-0.5"/>
<polygon fill="white" stroke="none" points="195,-4.5 195,-78.5 348,-78.5 348,-4.5 195,-4.5"/>
<polygon fill="black" stroke="none" points="197.5,-54.5 197.5,-76.5 346.5,-76.5 346.5,-54.5 197.5,-54.5"/>
<text text-anchor="start" x="235.263" y="-60.9" font-family="Times,serif" font-size="14.00" fill="white">set consumer</text>
<text text-anchor="start" x="200.5" y="-36.9" font-family="Times,serif" font-size="14.00">send</text>
<text text-anchor="start" x="200.049" y="-12.9" font-family="Times,serif" font-size="14.00">get next replay command</text>
</g>
<!-- reconnecting&#45;&gt;reconnecting &#160;set consumer -->
<g id="edge57" class="edge"><title>reconnecting&#45;&gt;reconnecting &#160;set consumer</title>
<path fill="none" stroke="black" d="M481.048,-155.168C442.863,-135.846 392.583,-109.651 350.822,-87.3811"/>
<polygon fill="black" stroke="black" points="352.244,-84.1728 341.775,-82.5466 348.945,-90.3466 352.244,-84.1728"/>
</g>
<!-- reconnecting &#160;set worker -->
<g id="node38" class="node"><title>reconnecting &#160;set worker</title>
<path fill="none" stroke="black" d="M386,-0.5C386,-0.5 531,-0.5 531,-0.5 537,-0.5 543,-6.5 543,-12.5 543,-12.5 543,-70.5 543,-70.5 543,-76.5 537,-82.5 531,-82.5 531,-82.5 386,-82.5 386,-82.5 380,-82.5 374,-76.5 374,-70.5 374,-70.5 374,-12.5 374,-12.5 374,-6.5 380,-0.5 386,-0.5"/>
<polygon fill="white" stroke="none" points="382,-4.5 382,-78.5 535,-78.5 535,-4.5 382,-4.5"/>
<polygon fill="black" stroke="none" points="384.5,-54.5 384.5,-76.5 533.5,-76.5 533.5,-54.5 384.5,-54.5"/>
<text text-anchor="start" x="429.654" y="-60.9" font-family="Times,serif" font-size="14.00" fill="white">set worker</text>
<text text-anchor="start" x="387.5" y="-36.9" font-family="Times,serif" font-size="14.00">send</text>
<text text-anchor="start" x="387.049" y="-12.9" font-family="Times,serif" font-size="14.00">get next replay command</text>
</g>
<!-- reconnecting&#45;&gt;reconnecting &#160;set worker -->
<g id="edge59" class="edge"><title>reconnecting&#45;&gt;reconnecting &#160;set worker</title>
<path fill="none" stroke="black" d="M502.549,-130.226C494.971,-117.577 487.236,-104.118 480.375,-91.6375"/>
<polygon fill="black" stroke="black" points="483.396,-89.8662 475.548,-82.7485 477.244,-93.2067 483.396,-89.8662"/>
</g>
<!-- reconnecting &#160;replay ready -->
<g id="node39" class="node"><title>reconnecting &#160;replay ready</title>
<path fill="none" stroke="black" d="M1133.5,-12.5C1133.5,-12.5 1241.5,-12.5 1241.5,-12.5 1247.5,-12.5 1253.5,-18.5 1253.5,-24.5 1253.5,-24.5 1253.5,-58.5 1253.5,-58.5 1253.5,-64.5 1247.5,-70.5 1241.5,-70.5 1241.5,-70.5 1133.5,-70.5 1133.5,-70.5 1127.5,-70.5 1121.5,-64.5 1121.5,-58.5 1121.5,-58.5 1121.5,-24.5 1121.5,-24.5 1121.5,-18.5 1127.5,-12.5 1133.5,-12.5"/>
<polygon fill="white" stroke="none" points="1129.5,-16.5 1129.5,-66.5 1245.5,-66.5 1245.5,-16.5 1129.5,-16.5"/>
<polygon fill="black" stroke="none" points="1131.5,-42.5 1131.5,-64.5 1243.5,-64.5 1243.5,-42.5 1131.5,-42.5"/>
<text text-anchor="start" x="1152.71" y="-48.9" font-family="Times,serif" font-size="14.00" fill="white">replay ready</text>
<text text-anchor="start" x="1134.41" y="-24.9" font-family="Times,serif" font-size="14.00">client is connected</text>
</g>
<!-- reconnecting&#45;&gt;reconnecting &#160;replay ready -->
<g id="edge61" class="edge"><title>reconnecting&#45;&gt;reconnecting &#160;replay ready</title>
<path fill="none" stroke="black" d="M602.813,-169.189C722.619,-143.23 982.026,-87.0218 1111.21,-59.0312"/>
<polygon fill="black" stroke="black" points="1112,-62.4404 1121.03,-56.902 1110.52,-55.5991 1112,-62.4404"/>
</g>
<!-- reconnecting &#160;connection pong -->
<g id="node40" class="node"><title>reconnecting &#160;connection pong</title>
<path fill="none" stroke="black" d="M573.5,-23.5C573.5,-23.5 667.5,-23.5 667.5,-23.5 673.5,-23.5 679.5,-29.5 679.5,-35.5 679.5,-35.5 679.5,-47.5 679.5,-47.5 679.5,-53.5 673.5,-59.5 667.5,-59.5 667.5,-59.5 573.5,-59.5 573.5,-59.5 567.5,-59.5 561.5,-53.5 561.5,-47.5 561.5,-47.5 561.5,-35.5 561.5,-35.5 561.5,-29.5 567.5,-23.5 573.5,-23.5"/>
<polygon fill="white" stroke="none" points="569.5,-28.5 569.5,-54.5 671.5,-54.5 671.5,-28.5 569.5,-28.5"/>
<polygon fill="black" stroke="none" points="571.5,-30.5 571.5,-52.5 669.5,-52.5 669.5,-30.5 571.5,-30.5"/>
<text text-anchor="start" x="574.038" y="-36.9" font-family="Times,serif" font-size="14.00" fill="white">connection pong</text>
</g>
<!-- reconnecting&#45;&gt;reconnecting &#160;connection pong -->
<g id="edge63" class="edge"><title>reconnecting&#45;&gt;reconnecting &#160;connection pong</title>
<path fill="none" stroke="black" d="M566.484,-124.582C577.532,-104.931 590.04,-84.0012 600.317,-68.1945"/>
<polygon fill="black" stroke="black" points="603.458,-69.7929 606.082,-59.5282 597.629,-65.9157 603.458,-69.7929"/>
</g>
<!-- reconnecting &#160;ok&#45;&gt;reconnecting -->
<g id="edge52" class="edge"><title>reconnecting &#160;ok&#45;&gt;reconnecting</title>
<path fill="none" stroke="black" d="M718.669,-82.5294C683.915,-103.191 640.802,-128.159 605.549,-148.024"/>
<polygon fill="black" stroke="black" points="603.769,-145.009 596.765,-152.959 607.198,-151.112 603.769,-145.009"/>
</g>
<!-- reconnecting &#160;error&#45;&gt;reconnecting -->
<g id="edge54" class="edge"><title>reconnecting &#160;error&#45;&gt;reconnecting</title>
<path fill="none" stroke="black" d="M906.95,-59.5123C901.528,-67.6588 893.022,-76.9367 883.5,-83 800.257,-136.004 687.61,-161.981 614.188,-173.882"/>
<polygon fill="black" stroke="black" points="613.43,-170.458 604.095,-175.469 614.518,-177.373 613.43,-170.458"/>
</g>
<!-- reconnecting &#160;set producer&#45;&gt;reconnecting -->
<g id="edge56" class="edge"><title>reconnecting &#160;set producer&#45;&gt;reconnecting</title>
<path fill="none" stroke="black" d="M169.002,-76.4411C174.899,-78.7583 180.772,-80.9739 186.5,-83 281.893,-116.744 394.671,-146.294 466.689,-164.332"/>
<polygon fill="black" stroke="black" points="466.025,-167.774 476.575,-166.8 467.72,-160.982 466.025,-167.774"/>
</g>
<!-- reconnecting &#160;set consumer&#45;&gt;reconnecting -->
<g id="edge58" class="edge"><title>reconnecting &#160;set consumer&#45;&gt;reconnecting</title>
<path fill="none" stroke="black" d="M354.015,-82.5026C392.743,-102.361 438.21,-126.203 474.461,-145.669"/>
<polygon fill="black" stroke="black" points="473.006,-148.86 483.47,-150.519 476.324,-142.697 473.006,-148.86"/>
</g>
<!-- reconnecting &#160;set worker&#45;&gt;reconnecting -->
<g id="edge60" class="edge"><title>reconnecting &#160;set worker&#45;&gt;reconnecting</title>
<path fill="none" stroke="black" d="M487.99,-82.9102C494.323,-93.1625 501.026,-104.456 507.444,-115.649"/>
<polygon fill="black" stroke="black" points="504.535,-117.614 512.516,-124.582 510.622,-114.158 504.535,-117.614"/>
</g>
<!-- reconnecting &#160;replay ready&#45;&gt;connected -->
<g id="edge62" class="edge"><title>reconnecting &#160;replay ready&#45;&gt;connected</title>
<path fill="none" stroke="black" d="M1253.69,-64.9398C1350.28,-102.376 1518.5,-187.373 1518.5,-325.316 1518.5,-750.27 1518.5,-750.27 1518.5,-750.27 1518.5,-838.345 1500.98,-875.011 1430.5,-927.827 1357.17,-982.775 1317.38,-946.029 1227.5,-963.827 1166.07,-975.991 1096.26,-991.438 1047.28,-1002.55"/>
<polygon fill="black" stroke="black" points="1046.44,-999.148 1037.46,-1004.78 1047.99,-1005.97 1046.44,-999.148"/>
</g>
<!-- reconnecting &#160;connection pong&#45;&gt;reconnecting -->
<g id="edge64" class="edge"><title>reconnecting &#160;connection pong&#45;&gt;reconnecting</title>
<path fill="none" stroke="black" d="M615.165,-59.7519C607.867,-75.2279 594.908,-98.8967 581.708,-121.364"/>
<polygon fill="black" stroke="black" points="578.543,-119.839 576.451,-130.226 584.564,-123.411 578.543,-119.839"/>
</g>
<!-- disconnected &#160;set producer&#45;&gt;disconnected -->
<g id="edge66" class="edge"><title>disconnected &#160;set producer&#45;&gt;disconnected</title>
<path fill="none" stroke="black" d="M951.735,-355.437C975.902,-373.518 1006.69,-397.513 1033.06,-418.725"/>
<polygon fill="black" stroke="black" points="1031.12,-421.65 1041.1,-425.209 1035.51,-416.204 1031.12,-421.65"/>
</g>
<!-- disconnected &#160;set consumer&#45;&gt;disconnected -->
<g id="edge68" class="edge"><title>disconnected &#160;set consumer&#45;&gt;disconnected</title>
<path fill="none" stroke="black" d="M1047.05,-355.553C1052.96,-367.564 1059.58,-382.168 1065.84,-396.827"/>
<polygon fill="black" stroke="black" points="1062.78,-398.584 1069.89,-406.442 1069.23,-395.868 1062.78,-398.584"/>
</g>
<!-- disconnected &#160;set worker&#45;&gt;disconnected -->
<g id="edge70" class="edge"><title>disconnected &#160;set worker&#45;&gt;disconnected</title>
<path fill="none" stroke="black" d="M1142.18,-355.627C1137.51,-368.894 1131.04,-385.315 1124.2,-401.476"/>
<polygon fill="black" stroke="black" points="1120.87,-400.365 1120.14,-410.935 1127.3,-403.124 1120.87,-400.365"/>
</g>
<!-- disconnected &#160;destructor&#45;&gt;disconnected -->
<g id="edge72" class="edge"><title>disconnected &#160;destructor&#45;&gt;disconnected</title>
<path fill="none" stroke="black" d="M1224.98,-367.564C1202.6,-385.565 1175.36,-406.811 1151.16,-425.138"/>
<polygon fill="black" stroke="black" points="1148.95,-422.415 1143.08,-431.232 1153.17,-428.004 1148.95,-422.415"/>
</g>
<!-- defaults -->
<g id="node45" class="node"><title>defaults</title>
<ellipse fill="none" stroke="black" cx="854.5" cy="-1284.6" rx="41.7002" ry="41.7002"/>
<ellipse fill="none" stroke="black" cx="854.5" cy="-1284.6" rx="45.7094" ry="45.7094"/>
<text text-anchor="middle" x="854.5" y="-1280.4" font-family="Times,serif" font-size="14.00">defaults</text>
</g>
<!-- defaults &#160;&#160;&#160;&#160;&#160;heartbeat -->
<g id="node46" class="node"><title>defaults &#160;&#160;&#160;&#160;&#160;heartbeat</title>
<path fill="none" stroke="black" d="M703,-1120.69C703,-1120.69 758,-1120.69 758,-1120.69 764,-1120.69 770,-1126.69 770,-1132.69 770,-1132.69 770,-1166.69 770,-1166.69 770,-1172.69 764,-1178.69 758,-1178.69 758,-1178.69 703,-1178.69 703,-1178.69 697,-1178.69 691,-1172.69 691,-1166.69 691,-1166.69 691,-1132.69 691,-1132.69 691,-1126.69 697,-1120.69 703,-1120.69"/>
<polygon fill="white" stroke="none" points="699,-1124.69 699,-1174.69 762,-1174.69 762,-1124.69 699,-1124.69"/>
<polygon fill="black" stroke="none" points="701.5,-1150.69 701.5,-1172.69 760.5,-1172.69 760.5,-1150.69 701.5,-1150.69"/>
<text text-anchor="start" x="705.35" y="-1157.09" font-family="Times,serif" font-size="14.00" fill="white">heartbeat</text>
<text text-anchor="start" x="704.5" y="-1133.09" font-family="Times,serif" font-size="14.00">send</text>
</g>
<!-- defaults&#45;&gt;defaults &#160;&#160;&#160;&#160;&#160;heartbeat -->
<g id="edge73" class="edge"><title>defaults&#45;&gt;defaults &#160;&#160;&#160;&#160;&#160;heartbeat</title>
<path fill="none" stroke="black" d="M820.602,-1253.44C800.896,-1233.61 776.487,-1207.56 757.976,-1186.65"/>
<polygon fill="black" stroke="black" points="760.416,-1184.12 751.192,-1178.91 755.153,-1188.74 760.416,-1184.12"/>
</g>
<!-- defaults &#160;&#160;&#160;&#160;&#160;connection pong -->
<g id="node47" class="node"><title>defaults &#160;&#160;&#160;&#160;&#160;connection pong</title>
<path fill="none" stroke="black" d="M800.5,-1120.69C800.5,-1120.69 908.5,-1120.69 908.5,-1120.69 914.5,-1120.69 920.5,-1126.69 920.5,-1132.69 920.5,-1132.69 920.5,-1166.69 920.5,-1166.69 920.5,-1172.69 914.5,-1178.69 908.5,-1178.69 908.5,-1178.69 800.5,-1178.69 800.5,-1178.69 794.5,-1178.69 788.5,-1172.69 788.5,-1166.69 788.5,-1166.69 788.5,-1132.69 788.5,-1132.69 788.5,-1126.69 794.5,-1120.69 800.5,-1120.69"/>
<polygon fill="white" stroke="none" points="796.5,-1124.69 796.5,-1174.69 912.5,-1174.69 912.5,-1124.69 796.5,-1124.69"/>
<polygon fill="black" stroke="none" points="798.5,-1150.69 798.5,-1172.69 910.5,-1172.69 910.5,-1150.69 798.5,-1150.69"/>
<text text-anchor="start" x="808.038" y="-1157.09" font-family="Times,serif" font-size="14.00" fill="white">connection pong</text>
<text text-anchor="start" x="801.407" y="-1133.09" font-family="Times,serif" font-size="14.00">client is connected</text>
</g>
<!-- defaults&#45;&gt;defaults &#160;&#160;&#160;&#160;&#160;connection pong -->
<g id="edge75" class="edge"><title>defaults&#45;&gt;defaults &#160;&#160;&#160;&#160;&#160;connection pong</title>
<path fill="none" stroke="black" d="M854.5,-1238.97C854.5,-1222.79 854.5,-1204.68 854.5,-1189.08"/>
<polygon fill="black" stroke="black" points="858,-1188.75 854.5,-1178.75 851,-1188.75 858,-1188.75"/>
</g>
<!-- defaults &#160;&#160;&#160;&#160;&#160;expired -->
<g id="node48" class="node"><title>defaults &#160;&#160;&#160;&#160;&#160;expired</title>
<path fill="none" stroke="black" d="M1248,-989.008C1248,-989.008 1379,-989.008 1379,-989.008 1385,-989.008 1391,-995.008 1391,-1001.01 1391,-1001.01 1391,-1035.01 1391,-1035.01 1391,-1041.01 1385,-1047.01 1379,-1047.01 1379,-1047.01 1248,-1047.01 1248,-1047.01 1242,-1047.01 1236,-1041.01 1236,-1035.01 1236,-1035.01 1236,-1001.01 1236,-1001.01 1236,-995.008 1242,-989.008 1248,-989.008"/>
<polygon fill="white" stroke="none" points="1244,-993.008 1244,-1043.01 1383,-1043.01 1383,-993.008 1244,-993.008"/>
<polygon fill="black" stroke="none" points="1246.5,-1019.01 1246.5,-1041.01 1381.5,-1041.01 1381.5,-1019.01 1246.5,-1019.01"/>
<text text-anchor="start" x="1293.01" y="-1025.41" font-family="Times,serif" font-size="14.00" fill="white">expired</text>
<text text-anchor="start" x="1249.06" y="-1001.41" font-family="Times,serif" font-size="14.00">server has gone offline</text>
</g>
<!-- defaults&#45;&gt;defaults &#160;&#160;&#160;&#160;&#160;expired -->
<g id="edge77" class="edge"><title>defaults&#45;&gt;defaults &#160;&#160;&#160;&#160;&#160;expired</title>
<path fill="none" stroke="black" d="M896.203,-1265.57C928.463,-1249.87 972.398,-1224.4 1001.5,-1191.19 1028.24,-1160.67 1009.21,-1135.19 1039.5,-1108.19 1091.13,-1062.17 1166.9,-1039.84 1225.69,-1029.04"/>
<polygon fill="black" stroke="black" points="1226.47,-1032.46 1235.71,-1027.28 1225.26,-1025.57 1226.47,-1032.46"/>
</g>
<!-- defaults &#160;&#160;&#160;&#160;&#160;error -->
<g id="node49" class="node"><title>defaults &#160;&#160;&#160;&#160;&#160;error</title>
<path fill="none" stroke="black" d="M218,-989.008C218,-989.008 319,-989.008 319,-989.008 325,-989.008 331,-995.008 331,-1001.01 331,-1001.01 331,-1035.01 331,-1035.01 331,-1041.01 325,-1047.01 319,-1047.01 319,-1047.01 218,-1047.01 218,-1047.01 212,-1047.01 206,-1041.01 206,-1035.01 206,-1035.01 206,-1001.01 206,-1001.01 206,-995.008 212,-989.008 218,-989.008"/>
<polygon fill="white" stroke="none" points="214,-993.008 214,-1043.01 323,-1043.01 323,-993.008 214,-993.008"/>
<polygon fill="black" stroke="none" points="216.5,-1019.01 216.5,-1041.01 321.5,-1041.01 321.5,-1019.01 216.5,-1019.01"/>
<text text-anchor="start" x="255.402" y="-1025.41" font-family="Times,serif" font-size="14.00" fill="white">error</text>
<text text-anchor="start" x="219.021" y="-1001.41" font-family="Times,serif" font-size="14.00">check status code</text>
</g>
<!-- defaults&#45;&gt;defaults &#160;&#160;&#160;&#160;&#160;error -->
<g id="edge79" class="edge"><title>defaults&#45;&gt;defaults &#160;&#160;&#160;&#160;&#160;error</title>
<path fill="none" stroke="black" d="M813.294,-1264.99C714.652,-1220.45 463.961,-1107.26 340.056,-1051.32"/>
<polygon fill="black" stroke="black" points="341.189,-1047.99 330.635,-1047.06 338.309,-1054.37 341.189,-1047.99"/>
</g>
<!-- defaults &#160;&#160;&#160;&#160;&#160;* -->
<g id="node50" class="node"><title>defaults &#160;&#160;&#160;&#160;&#160;*</title>
<path fill="none" stroke="black" d="M950.5,-1131.69C950.5,-1131.69 980.5,-1131.69 980.5,-1131.69 986.5,-1131.69 992.5,-1137.69 992.5,-1143.69 992.5,-1143.69 992.5,-1155.69 992.5,-1155.69 992.5,-1161.69 986.5,-1167.69 980.5,-1167.69 980.5,-1167.69 950.5,-1167.69 950.5,-1167.69 944.5,-1167.69 938.5,-1161.69 938.5,-1155.69 938.5,-1155.69 938.5,-1143.69 938.5,-1143.69 938.5,-1137.69 944.5,-1131.69 950.5,-1131.69"/>
<polygon fill="white" stroke="none" points="956.5,-1136.69 956.5,-1162.69 974.5,-1162.69 974.5,-1136.69 956.5,-1136.69"/>
<polygon fill="black" stroke="none" points="958.5,-1138.69 958.5,-1160.69 972.5,-1160.69 972.5,-1138.69 958.5,-1138.69"/>
<text text-anchor="start" x="962" y="-1145.09" font-family="Times,serif" font-size="14.00" fill="white">*</text>
</g>
<!-- defaults&#45;&gt;defaults &#160;&#160;&#160;&#160;&#160;* -->
<g id="edge81" class="edge"><title>defaults&#45;&gt;defaults &#160;&#160;&#160;&#160;&#160;*</title>
<path fill="none" stroke="black" d="M879.576,-1246.22C897.469,-1223.58 921.309,-1195.33 939.43,-1175.45"/>
<polygon fill="black" stroke="black" points="942.096,-1177.72 946.317,-1168 936.957,-1172.97 942.096,-1177.72"/>
</g>
<!-- defaults &#160;&#160;&#160;&#160;&#160;heartbeat&#45;&gt;defaults -->
<g id="edge74" class="edge"><title>defaults &#160;&#160;&#160;&#160;&#160;heartbeat&#45;&gt;defaults</title>
<path fill="none" stroke="black" d="M762.662,-1179.1C780.388,-1196.86 802.295,-1220.08 820.318,-1240.12"/>
<polygon fill="black" stroke="black" points="817.748,-1242.5 827.018,-1247.63 822.97,-1237.84 817.748,-1242.5"/>
</g>
<!-- defaults &#160;&#160;&#160;&#160;&#160;connection pong&#45;&gt;connected -->
<g id="edge76" class="edge"><title>defaults &#160;&#160;&#160;&#160;&#160;connection pong&#45;&gt;connected</title>
<path fill="none" stroke="black" d="M882.708,-1120.55C899.189,-1104.11 920.376,-1082.97 939.149,-1064.25"/>
<polygon fill="black" stroke="black" points="941.873,-1066.47 946.481,-1056.93 936.929,-1061.52 941.873,-1066.47"/>
</g>
<!-- defaults &#160;&#160;&#160;&#160;&#160;expired&#45;&gt;disconnected -->
<g id="edge78" class="edge"><title>defaults &#160;&#160;&#160;&#160;&#160;expired&#45;&gt;disconnected</title>
<path fill="none" stroke="black" d="M1391.12,-1007.37C1440.6,-996.756 1501.11,-974.497 1532.5,-927.827 1581.79,-854.533 1615.06,-701.099 1499.5,-570.713 1455.71,-521.3 1270.44,-491.683 1164.55,-478.474"/>
<polygon fill="black" stroke="black" points="1164.91,-474.992 1154.56,-477.247 1164.06,-481.94 1164.91,-474.992"/>
</g>
<!-- defaults &#160;&#160;&#160;&#160;&#160;error&#45;&gt;have error -->
<g id="edge80" class="edge"><title>defaults &#160;&#160;&#160;&#160;&#160;error&#45;&gt;have error</title>
<path fill="none" stroke="black" d="M205.981,-1013.3C148.398,-1006.18 65.9552,-985.768 25.5,-927.827 4.3818,-897.581 10.721,-878.626 25.5,-844.827 97.3333,-680.547 280.694,-556.229 374.048,-501.28"/>
<polygon fill="black" stroke="black" points="375.919,-504.24 382.794,-496.18 372.393,-498.193 375.919,-504.24"/>
</g>
<!-- defaults &#160;&#160;&#160;&#160;&#160;*&#45;&gt;defaults -->
<g id="edge82" class="edge"><title>defaults &#160;&#160;&#160;&#160;&#160;*&#45;&gt;defaults</title>
<path fill="none" stroke="black" d="M955.949,-1167.75C941.937,-1187 915.763,-1218.95 893.434,-1244.42"/>
<polygon fill="black" stroke="black" points="890.648,-1242.29 886.645,-1252.1 895.892,-1246.93 890.648,-1242.29"/>
</g>
<!-- have error &#160;&#160;&#160;command invalid&#45;&gt;reconnecting -->
<g id="edge84" class="edge"><title>have error &#160;&#160;&#160;command invalid&#45;&gt;reconnecting</title>
<path fill="none" stroke="black" d="M362.29,-285.643C397.386,-265.693 439.669,-241.657 474.129,-222.068"/>
<polygon fill="black" stroke="black" points="476.206,-224.914 483.169,-216.929 472.746,-218.828 476.206,-224.914"/>
</g>
<!-- have error &#160;&#160;&#160;failed&#45;&gt;have error -->
<g id="edge86" class="edge"><title>have error &#160;&#160;&#160;failed&#45;&gt;have error</title>
<path fill="none" stroke="black" d="M436.662,-367.491C437.143,-379.147 437.329,-392.17 437.22,-404.882"/>
<polygon fill="black" stroke="black" points="433.719,-404.926 437.068,-414.978 440.718,-405.031 433.719,-404.926"/>
</g>
<!-- have error &#160;&#160;&#160;other&#45;&gt;have error -->
<g id="edge88" class="edge"><title>have error &#160;&#160;&#160;other&#45;&gt;have error</title>
<path fill="none" stroke="black" d="M548.181,-367.506C527.875,-386.562 502.742,-409.268 480.889,-428.296"/>
<polygon fill="black" stroke="black" points="478.577,-425.669 473.31,-434.862 483.16,-430.96 478.577,-425.669"/>
</g>
</g>
</svg>
