<?xml version="1.0" encoding="UTF-8" standalone="no"?>
<!DOCTYPE svg PUBLIC "-//W3C//DTD SVG 1.1//EN"
 "http://www.w3.org/Graphics/SVG/1.1/DTD/svg11.dtd">
<!-- Generated by graphviz version 2.38.0 (20140413.2041)
 -->
<!-- Title: mlm_server Pages: 1 -->
<svg width="1707pt" height="864pt"
 viewBox="0.00 0.00 1706.50 863.57" xmlns="http://www.w3.org/2000/svg" xmlns:xlink="http://www.w3.org/1999/xlink">
<g id="graph0" class="graph" transform="scale(1 1) rotate(0) translate(4 859.571)">
<title>mlm_server</title>
<polygon fill="white" stroke="none" points="-4,4 -4,-859.571 1702.5,-859.571 1702.5,4 -4,4"/>
<!-- start -->
<g id="node1" class="node"><title>start</title>
<ellipse fill="none" stroke="black" cx="285" cy="-483.862" rx="27.8023" ry="27.8023"/>
<ellipse fill="none" stroke="black" cx="285" cy="-483.862" rx="31.8227" ry="31.8227"/>
<text text-anchor="middle" x="285" y="-479.662" font-family="Times,serif" font-size="14.00">start</text>
</g>
<!-- start &#160;&#160;&#160;&#160;&#160;&#160;&#160;&#160;connection open -->
<g id="node2" class="node"><title>start &#160;&#160;&#160;&#160;&#160;&#160;&#160;&#160;connection open</title>
<path fill="none" stroke="black" d="M12,-287.862C12,-287.862 174,-287.862 174,-287.862 180,-287.862 186,-293.862 186,-299.862 186,-299.862 186,-381.862 186,-381.862 186,-387.862 180,-393.862 174,-393.862 174,-393.862 12,-393.862 12,-393.862 6,-393.862 0,-387.862 0,-381.862 0,-381.862 0,-299.862 0,-299.862 0,-293.862 6,-287.862 12,-287.862"/>
<polygon fill="white" stroke="none" points="8,-291.862 8,-389.862 178,-389.862 178,-291.862 8,-291.862"/>
<polygon fill="black" stroke="none" points="10,-365.862 10,-387.862 176,-387.862 176,-365.862 10,-365.862"/>
<text text-anchor="start" x="46.9302" y="-372.262" font-family="Times,serif" font-size="14.00" fill="white">connection open</text>
<text text-anchor="start" x="13" y="-348.262" font-family="Times,serif" font-size="14.00">register new client</text>
<text text-anchor="start" x="13" y="-324.262" font-family="Times,serif" font-size="14.00">send</text>
<text text-anchor="start" x="12.8902" y="-300.262" font-family="Times,serif" font-size="14.00">check for mailbox messages</text>
</g>
<!-- start&#45;&gt;start &#160;&#160;&#160;&#160;&#160;&#160;&#160;&#160;connection open -->
<g id="edge1" class="edge"><title>start&#45;&gt;start &#160;&#160;&#160;&#160;&#160;&#160;&#160;&#160;connection open</title>
<path fill="none" stroke="black" d="M259.899,-464.429C237.598,-448.051 203.764,-423.204 172.375,-400.153"/>
<polygon fill="black" stroke="black" points="174.161,-397.122 164.029,-394.024 170.018,-402.764 174.161,-397.122"/>
</g>
<!-- start &#160;&#160;&#160;&#160;&#160;&#160;&#160;&#160;* -->
<g id="node4" class="node"><title>start &#160;&#160;&#160;&#160;&#160;&#160;&#160;&#160;*</title>
<path fill="none" stroke="black" d="M216,-299.862C216,-299.862 354,-299.862 354,-299.862 360,-299.862 366,-305.862 366,-311.862 366,-311.862 366,-369.862 366,-369.862 366,-375.862 360,-381.862 354,-381.862 354,-381.862 216,-381.862 216,-381.862 210,-381.862 204,-375.862 204,-369.862 204,-369.862 204,-311.862 204,-311.862 204,-305.862 210,-299.862 216,-299.862"/>
<polygon fill="white" stroke="none" points="212,-303.862 212,-377.862 358,-377.862 358,-303.862 212,-303.862"/>
<polygon fill="black" stroke="none" points="214,-353.862 214,-375.862 356,-375.862 356,-353.862 214,-353.862"/>
<text text-anchor="start" x="281.5" y="-360.262" font-family="Times,serif" font-size="14.00" fill="white">*</text>
<text text-anchor="start" x="216.731" y="-336.262" font-family="Times,serif" font-size="14.00">signal command invalid</text>
<text text-anchor="start" x="217" y="-312.262" font-family="Times,serif" font-size="14.00">send</text>
</g>
<!-- start&#45;&gt;start &#160;&#160;&#160;&#160;&#160;&#160;&#160;&#160;* -->
<g id="edge3" class="edge"><title>start&#45;&gt;start &#160;&#160;&#160;&#160;&#160;&#160;&#160;&#160;*</title>
<path fill="none" stroke="black" d="M279.343,-452.614C278.261,-434.962 277.982,-412.247 278.507,-391.987"/>
<polygon fill="black" stroke="black" points="282.006,-392.077 278.842,-381.965 275.01,-391.843 282.006,-392.077"/>
</g>
<!-- connected -->
<g id="node3" class="node"><title>connected</title>
<ellipse fill="none" stroke="black" cx="992" cy="-197.181" rx="50.3491" ry="50.3491"/>
<ellipse fill="none" stroke="black" cx="992" cy="-197.181" rx="54.3625" ry="54.3625"/>
<text text-anchor="middle" x="992" y="-192.981" font-family="Times,serif" font-size="14.00">connected</text>
</g>
<!-- start &#160;&#160;&#160;&#160;&#160;&#160;&#160;&#160;connection open&#45;&gt;connected -->
<g id="edge2" class="edge"><title>start &#160;&#160;&#160;&#160;&#160;&#160;&#160;&#160;connection open&#45;&gt;connected</title>
<path fill="none" stroke="black" d="M186.099,-290.28C189.074,-289.232 192.045,-288.255 195,-287.362 458.044,-207.895 789.195,-197.952 927.105,-197.566"/>
<polygon fill="black" stroke="black" points="927.49,-201.066 937.486,-197.554 927.482,-194.066 927.49,-201.066"/>
</g>
<!-- connected &#160;&#160;&#160;&#160;stream write -->
<g id="node5" class="node"><title>connected &#160;&#160;&#160;&#160;stream write</title>
<path fill="none" stroke="black" d="M250,-12.5C250,-12.5 358,-12.5 358,-12.5 364,-12.5 370,-18.5 370,-24.5 370,-24.5 370,-82.5 370,-82.5 370,-88.5 364,-94.5 358,-94.5 358,-94.5 250,-94.5 250,-94.5 244,-94.5 238,-88.5 238,-82.5 238,-82.5 238,-24.5 238,-24.5 238,-18.5 244,-12.5 250,-12.5"/>
<polygon fill="white" stroke="none" points="246,-16.5 246,-90.5 362,-90.5 362,-16.5 246,-16.5"/>
<polygon fill="black" stroke="none" points="248,-66.5 248,-88.5 360,-88.5 360,-66.5 248,-66.5"/>
<text text-anchor="start" x="269.211" y="-72.9" font-family="Times,serif" font-size="14.00" fill="white">stream write</text>
<text text-anchor="start" x="250.525" y="-48.9" font-family="Times,serif" font-size="14.00">store stream writer</text>
<text text-anchor="start" x="251" y="-24.9" font-family="Times,serif" font-size="14.00">send</text>
</g>
<!-- connected&#45;&gt;connected &#160;&#160;&#160;&#160;stream write -->
<g id="edge5" class="edge"><title>connected&#45;&gt;connected &#160;&#160;&#160;&#160;stream write</title>
<path fill="none" stroke="black" d="M937.506,-196.612C826.39,-195.922 567.936,-185.507 370,-107 364.829,-104.949 359.67,-102.478 354.64,-99.7389"/>
<polygon fill="black" stroke="black" points="356.15,-96.568 345.748,-94.5538 352.624,-102.615 356.15,-96.568"/>
</g>
<!-- connected &#160;&#160;&#160;&#160;stream read -->
<g id="node6" class="node"><title>connected &#160;&#160;&#160;&#160;stream read</title>
<path fill="none" stroke="black" d="M400,-12.5C400,-12.5 510,-12.5 510,-12.5 516,-12.5 522,-18.5 522,-24.5 522,-24.5 522,-82.5 522,-82.5 522,-88.5 516,-94.5 510,-94.5 510,-94.5 400,-94.5 400,-94.5 394,-94.5 388,-88.5 388,-82.5 388,-82.5 388,-24.5 388,-24.5 388,-18.5 394,-12.5 400,-12.5"/>
<polygon fill="white" stroke="none" points="396,-16.5 396,-90.5 514,-90.5 514,-16.5 396,-16.5"/>
<polygon fill="black" stroke="none" points="398,-66.5 398,-88.5 512,-88.5 512,-66.5 398,-66.5"/>
<text text-anchor="start" x="422.547" y="-72.9" font-family="Times,serif" font-size="14.00" fill="white">stream read</text>
<text text-anchor="start" x="400.755" y="-48.9" font-family="Times,serif" font-size="14.00">store stream reader</text>
<text text-anchor="start" x="401" y="-24.9" font-family="Times,serif" font-size="14.00">send</text>
</g>
<!-- connected&#45;&gt;connected &#160;&#160;&#160;&#160;stream read -->
<g id="edge7" class="edge"><title>connected&#45;&gt;connected &#160;&#160;&#160;&#160;stream read</title>
<path fill="none" stroke="black" d="M937.607,-193.317C847.621,-186.851 664.039,-166.686 522,-107 517.01,-104.903 512.015,-102.447 507.124,-99.7622"/>
<polygon fill="black" stroke="black" points="508.857,-96.7212 498.454,-94.7114 505.333,-102.77 508.857,-96.7212"/>
</g>
<!-- connected &#160;&#160;&#160;&#160;stream send -->
<g id="node7" class="node"><title>connected &#160;&#160;&#160;&#160;stream send</title>
<path fill="none" stroke="black" d="M552,-24.5C552,-24.5 690,-24.5 690,-24.5 696,-24.5 702,-30.5 702,-36.5 702,-36.5 702,-70.5 702,-70.5 702,-76.5 696,-82.5 690,-82.5 690,-82.5 552,-82.5 552,-82.5 546,-82.5 540,-76.5 540,-70.5 540,-70.5 540,-36.5 540,-36.5 540,-30.5 546,-24.5 552,-24.5"/>
<polygon fill="white" stroke="none" points="548,-28.5 548,-78.5 694,-78.5 694,-28.5 548,-28.5"/>
<polygon fill="black" stroke="none" points="550,-54.5 550,-76.5 692,-76.5 692,-54.5 550,-54.5"/>
<text text-anchor="start" x="587.763" y="-60.9" font-family="Times,serif" font-size="14.00" fill="white">stream send</text>
<text text-anchor="start" x="552.554" y="-36.9" font-family="Times,serif" font-size="14.00">write message to stream</text>
</g>
<!-- connected&#45;&gt;connected &#160;&#160;&#160;&#160;stream send -->
<g id="edge9" class="edge"><title>connected&#45;&gt;connected &#160;&#160;&#160;&#160;stream send</title>
<path fill="none" stroke="black" d="M938.994,-184.764C879.637,-170.123 781.647,-142.348 702,-107 689.615,-101.503 676.772,-94.7286 665.026,-87.8942"/>
<polygon fill="black" stroke="black" points="666.663,-84.7955 656.282,-82.6765 663.076,-90.8065 666.663,-84.7955"/>
</g>
<!-- connected &#160;&#160;&#160;&#160;mailbox send -->
<g id="node8" class="node"><title>connected &#160;&#160;&#160;&#160;mailbox send</title>
<path fill="none" stroke="black" d="M732.5,-24.5C732.5,-24.5 879.5,-24.5 879.5,-24.5 885.5,-24.5 891.5,-30.5 891.5,-36.5 891.5,-36.5 891.5,-70.5 891.5,-70.5 891.5,-76.5 885.5,-82.5 879.5,-82.5 879.5,-82.5 732.5,-82.5 732.5,-82.5 726.5,-82.5 720.5,-76.5 720.5,-70.5 720.5,-70.5 720.5,-36.5 720.5,-36.5 720.5,-30.5 726.5,-24.5 732.5,-24.5"/>
<polygon fill="white" stroke="none" points="728.5,-28.5 728.5,-78.5 883.5,-78.5 883.5,-28.5 728.5,-28.5"/>
<polygon fill="black" stroke="none" points="731,-54.5 731,-76.5 882,-76.5 882,-54.5 731,-54.5"/>
<text text-anchor="start" x="768.977" y="-60.9" font-family="Times,serif" font-size="14.00" fill="white">mailbox send</text>
<text text-anchor="start" x="733.768" y="-36.9" font-family="Times,serif" font-size="14.00">write message to mailbox</text>
</g>
<!-- connected&#45;&gt;connected &#160;&#160;&#160;&#160;mailbox send -->
<g id="edge11" class="edge"><title>connected&#45;&gt;connected &#160;&#160;&#160;&#160;mailbox send</title>
<path fill="none" stroke="black" d="M946.918,-166.134C915.891,-143.563 875.171,-112.609 845.43,-89.021"/>
<polygon fill="black" stroke="black" points="847.35,-86.0755 837.349,-82.5762 842.985,-91.548 847.35,-86.0755"/>
</g>
<!-- connected &#160;&#160;&#160;&#160;service send -->
<g id="node9" class="node"><title>connected &#160;&#160;&#160;&#160;service send</title>
<path fill="none" stroke="black" d="M921.5,-24.5C921.5,-24.5 1062.5,-24.5 1062.5,-24.5 1068.5,-24.5 1074.5,-30.5 1074.5,-36.5 1074.5,-36.5 1074.5,-70.5 1074.5,-70.5 1074.5,-76.5 1068.5,-82.5 1062.5,-82.5 1062.5,-82.5 921.5,-82.5 921.5,-82.5 915.5,-82.5 909.5,-76.5 909.5,-70.5 909.5,-70.5 909.5,-36.5 909.5,-36.5 909.5,-30.5 915.5,-24.5 921.5,-24.5"/>
<polygon fill="white" stroke="none" points="917.5,-28.5 917.5,-78.5 1066.5,-78.5 1066.5,-28.5 917.5,-28.5"/>
<polygon fill="black" stroke="none" points="920,-54.5 920,-76.5 1065,-76.5 1065,-54.5 920,-54.5"/>
<text text-anchor="start" x="958.101" y="-60.9" font-family="Times,serif" font-size="14.00" fill="white">service send</text>
<text text-anchor="start" x="922.892" y="-36.9" font-family="Times,serif" font-size="14.00">write message to service</text>
</g>
<!-- connected&#45;&gt;connected &#160;&#160;&#160;&#160;service send -->
<g id="edge13" class="edge"><title>connected&#45;&gt;connected &#160;&#160;&#160;&#160;service send</title>
<path fill="none" stroke="black" d="M985.44,-143.021C985.076,-126.434 985.234,-108.464 985.915,-93.0777"/>
<polygon fill="black" stroke="black" points="989.421,-93.062 986.47,-82.8865 982.432,-92.6814 989.421,-93.062"/>
</g>
<!-- connected &#160;&#160;&#160;&#160;service offer -->
<g id="node10" class="node"><title>connected &#160;&#160;&#160;&#160;service offer</title>
<path fill="none" stroke="black" d="M1105,-0.5C1105,-0.5 1219,-0.5 1219,-0.5 1225,-0.5 1231,-6.5 1231,-12.5 1231,-12.5 1231,-94.5 1231,-94.5 1231,-100.5 1225,-106.5 1219,-106.5 1219,-106.5 1105,-106.5 1105,-106.5 1099,-106.5 1093,-100.5 1093,-94.5 1093,-94.5 1093,-12.5 1093,-12.5 1093,-6.5 1099,-0.5 1105,-0.5"/>
<polygon fill="white" stroke="none" points="1101,-4.5 1101,-102.5 1223,-102.5 1223,-4.5 1101,-4.5"/>
<polygon fill="black" stroke="none" points="1103,-78.5 1103,-100.5 1221,-100.5 1221,-78.5 1103,-78.5"/>
<text text-anchor="start" x="1126.83" y="-84.9" font-family="Times,serif" font-size="14.00" fill="white">service offer</text>
<text text-anchor="start" x="1106" y="-60.9" font-family="Times,serif" font-size="14.00">store service offer</text>
<text text-anchor="start" x="1106" y="-36.9" font-family="Times,serif" font-size="14.00">send</text>
<text text-anchor="start" x="1105.8" y="-12.9" font-family="Times,serif" font-size="14.00">dispatch the service</text>
</g>
<!-- connected&#45;&gt;connected &#160;&#160;&#160;&#160;service offer -->
<g id="edge15" class="edge"><title>connected&#45;&gt;connected &#160;&#160;&#160;&#160;service offer</title>
<path fill="none" stroke="black" d="M1030.64,-158.956C1046.85,-144.904 1066.25,-128.556 1085.12,-113.022"/>
<polygon fill="black" stroke="black" points="1087.37,-115.705 1092.88,-106.656 1082.93,-110.293 1087.37,-115.705"/>
</g>
<!-- connected &#160;&#160;&#160;&#160;confirm -->
<g id="node11" class="node"><title>connected &#160;&#160;&#160;&#160;confirm</title>
<path fill="none" stroke="black" d="M1261.5,-24.5C1261.5,-24.5 1418.5,-24.5 1418.5,-24.5 1424.5,-24.5 1430.5,-30.5 1430.5,-36.5 1430.5,-36.5 1430.5,-70.5 1430.5,-70.5 1430.5,-76.5 1424.5,-82.5 1418.5,-82.5 1418.5,-82.5 1261.5,-82.5 1261.5,-82.5 1255.5,-82.5 1249.5,-76.5 1249.5,-70.5 1249.5,-70.5 1249.5,-36.5 1249.5,-36.5 1249.5,-30.5 1255.5,-24.5 1261.5,-24.5"/>
<polygon fill="white" stroke="none" points="1257.5,-28.5 1257.5,-78.5 1422.5,-78.5 1422.5,-28.5 1257.5,-28.5"/>
<polygon fill="black" stroke="none" points="1260,-54.5 1260,-76.5 1421,-76.5 1421,-54.5 1260,-54.5"/>
<text text-anchor="start" x="1318.34" y="-60.9" font-family="Times,serif" font-size="14.00" fill="white">confirm</text>
<text text-anchor="start" x="1262.92" y="-36.9" font-family="Times,serif" font-size="14.00">have message confirmation</text>
</g>
<!-- connected&#45;&gt;connected &#160;&#160;&#160;&#160;confirm -->
<g id="edge17" class="edge"><title>connected&#45;&gt;connected &#160;&#160;&#160;&#160;confirm</title>
<path fill="none" stroke="black" d="M1042.9,-177.847C1091.84,-161.188 1167.34,-134.998 1231,-107 1244.42,-101.099 1258.52,-94.1686 1272,-87.3122"/>
<polygon fill="black" stroke="black" points="1273.91,-90.2669 1281.21,-82.591 1270.72,-84.0374 1273.91,-90.2669"/>
</g>
<!-- connected &#160;&#160;&#160;&#160;credit -->
<g id="node12" class="node"><title>connected &#160;&#160;&#160;&#160;credit</title>
<path fill="none" stroke="black" d="M1460.5,-24.5C1460.5,-24.5 1551.5,-24.5 1551.5,-24.5 1557.5,-24.5 1563.5,-30.5 1563.5,-36.5 1563.5,-36.5 1563.5,-70.5 1563.5,-70.5 1563.5,-76.5 1557.5,-82.5 1551.5,-82.5 1551.5,-82.5 1460.5,-82.5 1460.5,-82.5 1454.5,-82.5 1448.5,-76.5 1448.5,-70.5 1448.5,-70.5 1448.5,-36.5 1448.5,-36.5 1448.5,-30.5 1454.5,-24.5 1460.5,-24.5"/>
<polygon fill="white" stroke="none" points="1456.5,-28.5 1456.5,-78.5 1555.5,-78.5 1555.5,-28.5 1456.5,-28.5"/>
<polygon fill="black" stroke="none" points="1459,-54.5 1459,-76.5 1554,-76.5 1554,-54.5 1459,-54.5"/>
<text text-anchor="start" x="1490.56" y="-60.9" font-family="Times,serif" font-size="14.00" fill="white">credit</text>
<text text-anchor="start" x="1461.96" y="-36.9" font-family="Times,serif" font-size="14.00">credit the client</text>
</g>
<!-- connected&#45;&gt;connected &#160;&#160;&#160;&#160;credit -->
<g id="edge19" class="edge"><title>connected&#45;&gt;connected &#160;&#160;&#160;&#160;credit</title>
<path fill="none" stroke="black" d="M1046.35,-193.022C1131.7,-186.462 1300.39,-166.564 1430,-107 1440.28,-102.275 1450.41,-95.6796 1459.79,-88.7556"/>
<polygon fill="black" stroke="black" points="1462,-91.4717 1467.83,-82.625 1457.76,-85.9052 1462,-91.4717"/>
</g>
<!-- connected &#160;&#160;&#160;&#160;connection ping -->
<g id="node13" class="node"><title>connected &#160;&#160;&#160;&#160;connection ping</title>
<path fill="none" stroke="black" d="M1593.5,-24.5C1593.5,-24.5 1686.5,-24.5 1686.5,-24.5 1692.5,-24.5 1698.5,-30.5 1698.5,-36.5 1698.5,-36.5 1698.5,-70.5 1698.5,-70.5 1698.5,-76.5 1692.5,-82.5 1686.5,-82.5 1686.5,-82.5 1593.5,-82.5 1593.5,-82.5 1587.5,-82.5 1581.5,-76.5 1581.5,-70.5 1581.5,-70.5 1581.5,-36.5 1581.5,-36.5 1581.5,-30.5 1587.5,-24.5 1593.5,-24.5"/>
<polygon fill="white" stroke="none" points="1589.5,-28.5 1589.5,-78.5 1690.5,-78.5 1690.5,-28.5 1589.5,-28.5"/>
<polygon fill="black" stroke="none" points="1592,-54.5 1592,-76.5 1689,-76.5 1689,-54.5 1592,-54.5"/>
<text text-anchor="start" x="1595.59" y="-60.9" font-family="Times,serif" font-size="14.00" fill="white">connection ping</text>
<text text-anchor="start" x="1595" y="-36.9" font-family="Times,serif" font-size="14.00">send</text>
</g>
<!-- connected&#45;&gt;connected &#160;&#160;&#160;&#160;connection ping -->
<g id="edge21" class="edge"><title>connected&#45;&gt;connected &#160;&#160;&#160;&#160;connection ping</title>
<path fill="none" stroke="black" d="M1046.57,-196.668C1151.16,-195.485 1384.86,-183.373 1563,-107 1573.6,-102.455 1584.01,-95.8636 1593.61,-88.8779"/>
<polygon fill="black" stroke="black" points="1595.95,-91.4947 1601.83,-82.679 1591.74,-85.9059 1595.95,-91.4947"/>
</g>
<!-- start &#160;&#160;&#160;&#160;&#160;&#160;&#160;&#160;*&#45;&gt;start -->
<g id="edge4" class="edge"><title>start &#160;&#160;&#160;&#160;&#160;&#160;&#160;&#160;*&#45;&gt;start</title>
<path fill="none" stroke="black" d="M291.158,-381.965C291.943,-400.917 291.947,-423.494 291.17,-442.481"/>
<polygon fill="black" stroke="black" points="287.667,-442.45 290.657,-452.614 294.658,-442.803 287.667,-442.45"/>
</g>
<!-- connected &#160;&#160;&#160;&#160;stream write&#45;&gt;connected -->
<g id="edge6" class="edge"><title>connected &#160;&#160;&#160;&#160;stream write&#45;&gt;connected</title>
<path fill="none" stroke="black" d="M363.56,-94.5538C371.484,-99.3604 379.726,-103.718 388,-107 574.128,-180.824 813.767,-194.437 927.165,-196.372"/>
<polygon fill="black" stroke="black" points="927.361,-199.875 937.41,-196.52 927.462,-192.876 927.361,-199.875"/>
</g>
<!-- connected &#160;&#160;&#160;&#160;stream read&#45;&gt;connected -->
<g id="edge8" class="edge"><title>connected &#160;&#160;&#160;&#160;stream read&#45;&gt;connected</title>
<path fill="none" stroke="black" d="M516.285,-94.7114C524.019,-99.3699 532.016,-103.645 540,-107 671.16,-162.114 837.743,-183.53 927.64,-191.579"/>
<polygon fill="black" stroke="black" points="927.421,-195.073 937.686,-192.451 928.026,-188.099 927.421,-195.073"/>
</g>
<!-- connected &#160;&#160;&#160;&#160;stream send&#45;&gt;connected -->
<g id="edge10" class="edge"><title>connected &#160;&#160;&#160;&#160;stream send&#45;&gt;connected</title>
<path fill="none" stroke="black" d="M673.391,-82.6765C688.195,-91.1918 704.458,-100.102 720,-107 789.95,-138.045 874.049,-163.248 930.112,-178.843"/>
<polygon fill="black" stroke="black" points="929.328,-182.257 939.899,-181.547 931.192,-175.51 929.328,-182.257"/>
</g>
<!-- connected &#160;&#160;&#160;&#160;mailbox send&#45;&gt;connected -->
<g id="edge12" class="edge"><title>connected &#160;&#160;&#160;&#160;mailbox send&#45;&gt;connected</title>
<path fill="none" stroke="black" d="M848.354,-82.5663C876.659,-103.083 913.874,-131.251 943.376,-154.407"/>
<polygon fill="black" stroke="black" points="941.458,-157.352 951.478,-160.794 945.792,-151.855 941.458,-157.352"/>
</g>
<!-- connected &#160;&#160;&#160;&#160;service send&#45;&gt;connected -->
<g id="edge14" class="edge"><title>connected &#160;&#160;&#160;&#160;service send&#45;&gt;connected</title>
<path fill="none" stroke="black" d="M997.53,-82.8865C998.479,-97.2738 998.874,-115.363 998.716,-132.837"/>
<polygon fill="black" stroke="black" points="995.214,-132.968 998.56,-143.021 1002.21,-133.076 995.214,-132.968"/>
</g>
<!-- connected &#160;&#160;&#160;&#160;service offer&#45;&gt;connected -->
<g id="edge16" class="edge"><title>connected &#160;&#160;&#160;&#160;service offer&#45;&gt;connected</title>
<path fill="none" stroke="black" d="M1105.87,-106.725C1085.73,-123.843 1063.16,-142.522 1043.43,-158.363"/>
<polygon fill="black" stroke="black" points="1041.08,-155.761 1035.45,-164.737 1045.45,-161.23 1041.08,-155.761"/>
</g>
<!-- connected &#160;&#160;&#160;&#160;confirm&#45;&gt;connected -->
<g id="edge18" class="edge"><title>connected &#160;&#160;&#160;&#160;confirm&#45;&gt;connected</title>
<path fill="none" stroke="black" d="M1298.38,-82.591C1283.07,-90.9149 1265.51,-99.7378 1249,-107 1183.94,-135.611 1106.53,-162.335 1053.7,-178.928"/>
<polygon fill="black" stroke="black" points="1052.63,-175.593 1044.13,-181.907 1054.71,-182.277 1052.63,-175.593"/>
</g>
<!-- connected &#160;&#160;&#160;&#160;credit&#45;&gt;connected -->
<g id="edge20" class="edge"><title>connected &#160;&#160;&#160;&#160;credit&#45;&gt;connected</title>
<path fill="none" stroke="black" d="M1484.79,-82.625C1474.32,-91.6552 1461.29,-100.891 1448,-107 1317.66,-166.899 1147.8,-186.685 1056.53,-193.132"/>
<polygon fill="black" stroke="black" points="1056.07,-189.654 1046.33,-193.819 1056.54,-196.639 1056.07,-189.654"/>
</g>
<!-- connected &#160;&#160;&#160;&#160;connection ping&#45;&gt;connected -->
<g id="edge22" class="edge"><title>connected &#160;&#160;&#160;&#160;connection ping&#45;&gt;connected</title>
<path fill="none" stroke="black" d="M1618.76,-82.679C1608.08,-91.8267 1594.71,-101.123 1581,-107 1402.58,-183.494 1168.42,-195.523 1056.65,-196.674"/>
<polygon fill="black" stroke="black" points="1056.52,-193.174 1046.54,-196.751 1056.57,-200.174 1056.52,-193.174"/>
</g>
<!-- defaults -->
<g id="node14" class="node"><title>defaults</title>
<ellipse fill="none" stroke="black" cx="884" cy="-809.966" rx="41.7002" ry="41.7002"/>
<ellipse fill="none" stroke="black" cx="884" cy="-809.966" rx="45.7094" ry="45.7094"/>
<text text-anchor="middle" x="884" y="-805.766" font-family="Times,serif" font-size="14.00">defaults</text>
</g>
<!-- defaults &#160;&#160;&#160;&#160;&#160;connection close -->
<g id="node15" class="node"><title>defaults &#160;&#160;&#160;&#160;&#160;connection close</title>
<path fill="none" stroke="black" d="M305.5,-585.862C305.5,-585.862 444.5,-585.862 444.5,-585.862 450.5,-585.862 456.5,-591.862 456.5,-597.862 456.5,-597.862 456.5,-703.862 456.5,-703.862 456.5,-709.862 450.5,-715.862 444.5,-715.862 444.5,-715.862 305.5,-715.862 305.5,-715.862 299.5,-715.862 293.5,-709.862 293.5,-703.862 293.5,-703.862 293.5,-597.862 293.5,-597.862 293.5,-591.862 299.5,-585.862 305.5,-585.862"/>
<polygon fill="white" stroke="none" points="301.5,-589.862 301.5,-711.862 448.5,-711.862 448.5,-589.862 301.5,-589.862"/>
<polygon fill="black" stroke="none" points="304,-687.862 304,-709.862 447,-709.862 447,-687.862 304,-687.862"/>
<text text-anchor="start" x="328.655" y="-694.262" font-family="Times,serif" font-size="14.00" fill="white">connection close</text>
<text text-anchor="start" x="307" y="-670.262" font-family="Times,serif" font-size="14.00">send</text>
<text text-anchor="start" x="306.855" y="-646.262" font-family="Times,serif" font-size="14.00">client closed connection</text>
<text text-anchor="start" x="307" y="-622.262" font-family="Times,serif" font-size="14.00">deregister the client</text>
<text text-anchor="start" x="307" y="-598.262" font-family="Times,serif" font-size="14.00">allow time to settle</text>
</g>
<!-- defaults&#45;&gt;defaults &#160;&#160;&#160;&#160;&#160;connection close -->
<g id="edge23" class="edge"><title>defaults&#45;&gt;defaults &#160;&#160;&#160;&#160;&#160;connection close</title>
<path fill="none" stroke="black" d="M838.373,-807.612C758.949,-803.673 591.76,-788.302 466,-728.362 461.63,-726.279 457.298,-723.936 453.032,-721.398"/>
<polygon fill="black" stroke="black" points="454.703,-718.313 444.378,-715.934 450.965,-724.232 454.703,-718.313"/>
</g>
<!-- defaults &#160;&#160;&#160;&#160;&#160;stream message -->
<g id="node17" class="node"><title>defaults &#160;&#160;&#160;&#160;&#160;stream message</title>
<path fill="none" stroke="black" d="M780,-442.862C780,-442.862 908,-442.862 908,-442.862 914,-442.862 920,-448.862 920,-454.862 920,-454.862 920,-512.862 920,-512.862 920,-518.862 914,-524.862 908,-524.862 908,-524.862 780,-524.862 780,-524.862 774,-524.862 768,-518.862 768,-512.862 768,-512.862 768,-454.862 768,-454.862 768,-448.862 774,-442.862 780,-442.862"/>
<polygon fill="white" stroke="none" points="776,-446.862 776,-520.862 912,-520.862 912,-446.862 776,-446.862"/>
<polygon fill="black" stroke="none" points="778,-496.862 778,-518.862 910,-518.862 910,-496.862 778,-496.862"/>
<text text-anchor="start" x="799.88" y="-503.262" font-family="Times,serif" font-size="14.00" fill="white">stream message</text>
<text text-anchor="start" x="780.605" y="-479.262" font-family="Times,serif" font-size="14.00">get message to deliver</text>
<text text-anchor="start" x="781" y="-455.262" font-family="Times,serif" font-size="14.00">send</text>
</g>
<!-- defaults&#45;&gt;defaults &#160;&#160;&#160;&#160;&#160;stream message -->
<g id="edge25" class="edge"><title>defaults&#45;&gt;defaults &#160;&#160;&#160;&#160;&#160;stream message</title>
<path fill="none" stroke="black" d="M922.646,-785.716C941.942,-771.762 963.389,-752.109 974,-728.362 1002.1,-665.466 1006.21,-634.256 974,-573.362 970.399,-566.554 944.72,-548.556 917.124,-530.555"/>
<polygon fill="black" stroke="black" points="918.816,-527.48 908.52,-524.98 915.009,-533.355 918.816,-527.48"/>
</g>
<!-- defaults &#160;&#160;&#160;&#160;&#160;mailbox message -->
<g id="node18" class="node"><title>defaults &#160;&#160;&#160;&#160;&#160;mailbox message</title>
<path fill="none" stroke="black" d="M950,-430.862C950,-430.862 1112,-430.862 1112,-430.862 1118,-430.862 1124,-436.862 1124,-442.862 1124,-442.862 1124,-524.862 1124,-524.862 1124,-530.862 1118,-536.862 1112,-536.862 1112,-536.862 950,-536.862 950,-536.862 944,-536.862 938,-530.862 938,-524.862 938,-524.862 938,-442.862 938,-442.862 938,-436.862 944,-430.862 950,-430.862"/>
<polygon fill="white" stroke="none" points="946,-434.862 946,-532.862 1116,-532.862 1116,-434.862 946,-434.862"/>
<polygon fill="black" stroke="none" points="948,-508.862 948,-530.862 1114,-530.862 1114,-508.862 948,-508.862"/>
<text text-anchor="start" x="982.595" y="-515.262" font-family="Times,serif" font-size="14.00" fill="white">mailbox message</text>
<text text-anchor="start" x="951" y="-491.262" font-family="Times,serif" font-size="14.00">get message to deliver</text>
<text text-anchor="start" x="951" y="-467.262" font-family="Times,serif" font-size="14.00">send</text>
<text text-anchor="start" x="950.89" y="-443.262" font-family="Times,serif" font-size="14.00">check for mailbox messages</text>
</g>
<!-- defaults&#45;&gt;defaults &#160;&#160;&#160;&#160;&#160;mailbox message -->
<g id="edge27" class="edge"><title>defaults&#45;&gt;defaults &#160;&#160;&#160;&#160;&#160;mailbox message</title>
<path fill="none" stroke="black" d="M925.743,-790.94C951.515,-777.538 982.835,-756.671 1000,-728.362 1033.14,-673.702 1038.09,-599.497 1036.5,-547.418"/>
<polygon fill="black" stroke="black" points="1040,-547.164 1036.11,-537.31 1033,-547.44 1040,-547.164"/>
</g>
<!-- defaults &#160;&#160;&#160;&#160;&#160;service message -->
<g id="node19" class="node"><title>defaults &#160;&#160;&#160;&#160;&#160;service message</title>
<path fill="none" stroke="black" d="M1154,-442.862C1154,-442.862 1282,-442.862 1282,-442.862 1288,-442.862 1294,-448.862 1294,-454.862 1294,-454.862 1294,-512.862 1294,-512.862 1294,-518.862 1288,-524.862 1282,-524.862 1282,-524.862 1154,-524.862 1154,-524.862 1148,-524.862 1142,-518.862 1142,-512.862 1142,-512.862 1142,-454.862 1142,-454.862 1142,-448.862 1148,-442.862 1154,-442.862"/>
<polygon fill="white" stroke="none" points="1150,-446.862 1150,-520.862 1286,-520.862 1286,-446.862 1150,-446.862"/>
<polygon fill="black" stroke="none" points="1152,-496.862 1152,-518.862 1284,-518.862 1284,-496.862 1152,-496.862"/>
<text text-anchor="start" x="1172.72" y="-503.262" font-family="Times,serif" font-size="14.00" fill="white">service message</text>
<text text-anchor="start" x="1154.6" y="-479.262" font-family="Times,serif" font-size="14.00">get message to deliver</text>
<text text-anchor="start" x="1155" y="-455.262" font-family="Times,serif" font-size="14.00">send</text>
</g>
<!-- defaults&#45;&gt;defaults &#160;&#160;&#160;&#160;&#160;service message -->
<g id="edge29" class="edge"><title>defaults&#45;&gt;defaults &#160;&#160;&#160;&#160;&#160;service message</title>
<path fill="none" stroke="black" d="M926.137,-792.005C957.716,-777.978 1000.84,-755.919 1033,-728.362 1099.45,-671.422 1157.02,-586.864 1189.6,-533.854"/>
<polygon fill="black" stroke="black" points="1192.6,-535.666 1194.81,-525.305 1186.62,-532.025 1192.6,-535.666"/>
</g>
<!-- defaults &#160;&#160;&#160;&#160;&#160;expired -->
<g id="node20" class="node"><title>defaults &#160;&#160;&#160;&#160;&#160;expired</title>
<path fill="none" stroke="black" d="M487,-597.862C487,-597.862 601,-597.862 601,-597.862 607,-597.862 613,-603.862 613,-609.862 613,-609.862 613,-691.862 613,-691.862 613,-697.862 607,-703.862 601,-703.862 601,-703.862 487,-703.862 487,-703.862 481,-703.862 475,-697.862 475,-691.862 475,-691.862 475,-609.862 475,-609.862 475,-603.862 481,-597.862 487,-597.862"/>
<polygon fill="white" stroke="none" points="483,-601.862 483,-699.862 605,-699.862 605,-601.862 483,-601.862"/>
<polygon fill="black" stroke="none" points="485,-675.862 485,-697.862 603,-697.862 603,-675.862 485,-675.862"/>
<text text-anchor="start" x="523.01" y="-682.262" font-family="Times,serif" font-size="14.00" fill="white">expired</text>
<text text-anchor="start" x="488" y="-658.262" font-family="Times,serif" font-size="14.00">client expired</text>
<text text-anchor="start" x="487.802" y="-634.262" font-family="Times,serif" font-size="14.00">deregister the client</text>
<text text-anchor="start" x="488" y="-610.262" font-family="Times,serif" font-size="14.00">allow time to settle</text>
</g>
<!-- defaults&#45;&gt;defaults &#160;&#160;&#160;&#160;&#160;expired -->
<g id="edge31" class="edge"><title>defaults&#45;&gt;defaults &#160;&#160;&#160;&#160;&#160;expired</title>
<path fill="none" stroke="black" d="M838.697,-801.802C784.24,-791.717 691.513,-769.754 622,-728.362 613.566,-723.34 605.355,-717.222 597.621,-710.657"/>
<polygon fill="black" stroke="black" points="599.864,-707.969 590.055,-703.967 595.227,-713.213 599.864,-707.969"/>
</g>
<!-- defaults &#160;&#160;&#160;&#160;&#160;exception -->
<g id="node21" class="node"><title>defaults &#160;&#160;&#160;&#160;&#160;exception</title>
<path fill="none" stroke="black" d="M643.5,-573.862C643.5,-573.862 772.5,-573.862 772.5,-573.862 778.5,-573.862 784.5,-579.862 784.5,-585.862 784.5,-585.862 784.5,-715.862 784.5,-715.862 784.5,-721.862 778.5,-727.862 772.5,-727.862 772.5,-727.862 643.5,-727.862 643.5,-727.862 637.5,-727.862 631.5,-721.862 631.5,-715.862 631.5,-715.862 631.5,-585.862 631.5,-585.862 631.5,-579.862 637.5,-573.862 643.5,-573.862"/>
<polygon fill="white" stroke="none" points="639.5,-577.862 639.5,-723.862 776.5,-723.862 776.5,-577.862 639.5,-577.862"/>
<polygon fill="black" stroke="none" points="642,-699.862 642,-721.862 775,-721.862 775,-699.862 642,-699.862"/>
<text text-anchor="start" x="681.288" y="-706.262" font-family="Times,serif" font-size="14.00" fill="white">exception</text>
<text text-anchor="start" x="644.909" y="-682.262" font-family="Times,serif" font-size="14.00">signal operation failed</text>
<text text-anchor="start" x="645" y="-658.262" font-family="Times,serif" font-size="14.00">send</text>
<text text-anchor="start" x="645" y="-634.262" font-family="Times,serif" font-size="14.00">client had exception</text>
<text text-anchor="start" x="645" y="-610.262" font-family="Times,serif" font-size="14.00">deregister the client</text>
<text text-anchor="start" x="645" y="-586.262" font-family="Times,serif" font-size="14.00">allow time to settle</text>
</g>
<!-- defaults&#45;&gt;defaults &#160;&#160;&#160;&#160;&#160;exception -->
<g id="edge33" class="edge"><title>defaults&#45;&gt;defaults &#160;&#160;&#160;&#160;&#160;exception</title>
<path fill="none" stroke="black" d="M850.065,-778.675C833.518,-763.904 812.807,-745.416 792.358,-727.163"/>
<polygon fill="black" stroke="black" points="794.635,-724.504 784.844,-720.456 789.974,-729.726 794.635,-724.504"/>
</g>
<!-- defaults &#160;&#160;&#160;&#160;&#160;* -->
<g id="node22" class="node"><title>defaults &#160;&#160;&#160;&#160;&#160;*</title>
<path fill="none" stroke="black" d="M815,-585.862C815,-585.862 953,-585.862 953,-585.862 959,-585.862 965,-591.862 965,-597.862 965,-597.862 965,-703.862 965,-703.862 965,-709.862 959,-715.862 953,-715.862 953,-715.862 815,-715.862 815,-715.862 809,-715.862 803,-709.862 803,-703.862 803,-703.862 803,-597.862 803,-597.862 803,-591.862 809,-585.862 815,-585.862"/>
<polygon fill="white" stroke="none" points="811,-589.862 811,-711.862 957,-711.862 957,-589.862 811,-589.862"/>
<polygon fill="black" stroke="none" points="813,-687.862 813,-709.862 955,-709.862 955,-687.862 813,-687.862"/>
<text text-anchor="start" x="880.5" y="-694.262" font-family="Times,serif" font-size="14.00" fill="white">*</text>
<text text-anchor="start" x="815.731" y="-670.262" font-family="Times,serif" font-size="14.00">signal command invalid</text>
<text text-anchor="start" x="816" y="-646.262" font-family="Times,serif" font-size="14.00">send</text>
<text text-anchor="start" x="816" y="-622.262" font-family="Times,serif" font-size="14.00">deregister the client</text>
<text text-anchor="start" x="816" y="-598.262" font-family="Times,serif" font-size="14.00">allow time to settle</text>
</g>
<!-- defaults&#45;&gt;defaults &#160;&#160;&#160;&#160;&#160;* -->
<g id="edge35" class="edge"><title>defaults&#45;&gt;defaults &#160;&#160;&#160;&#160;&#160;*</title>
<path fill="none" stroke="black" d="M884,-763.947C884,-752.142 884,-739.093 884,-726.196"/>
<polygon fill="black" stroke="black" points="887.5,-725.912 884,-715.912 880.5,-725.912 887.5,-725.912"/>
</g>
<!-- settling -->
<g id="node16" class="node"><title>settling</title>
<ellipse fill="none" stroke="black" cx="707" cy="-483.862" rx="39.4436" ry="39.4436"/>
<ellipse fill="none" stroke="black" cx="707" cy="-483.862" rx="43.4409" ry="43.4409"/>
<text text-anchor="middle" x="707" y="-479.662" font-family="Times,serif" font-size="14.00">settling</text>
</g>
<!-- defaults &#160;&#160;&#160;&#160;&#160;connection close&#45;&gt;settling -->
<g id="edge24" class="edge"><title>defaults &#160;&#160;&#160;&#160;&#160;connection close&#45;&gt;settling</title>
<path fill="none" stroke="black" d="M446.866,-585.733C453.153,-581.281 459.572,-577.089 466,-573.362 527.091,-537.937 604.875,-512.462 655.29,-498.19"/>
<polygon fill="black" stroke="black" points="656.301,-501.542 664.994,-495.486 654.422,-494.799 656.301,-501.542"/>
</g>
<!-- settling &#160;&#160;&#160;&#160;&#160;settled -->
<g id="node23" class="node"><title>settling &#160;&#160;&#160;&#160;&#160;settled</title>
<path fill="none" stroke="black" d="M396,-311.862C396,-311.862 452,-311.862 452,-311.862 458,-311.862 464,-317.862 464,-323.862 464,-323.862 464,-357.862 464,-357.862 464,-363.862 458,-369.862 452,-369.862 452,-369.862 396,-369.862 396,-369.862 390,-369.862 384,-363.862 384,-357.862 384,-357.862 384,-323.862 384,-323.862 384,-317.862 390,-311.862 396,-311.862"/>
<polygon fill="white" stroke="none" points="392,-315.862 392,-365.862 456,-365.862 456,-315.862 392,-315.862"/>
<polygon fill="black" stroke="none" points="394,-341.862 394,-363.862 454,-363.862 454,-341.862 394,-341.862"/>
<text text-anchor="start" x="405.727" y="-348.262" font-family="Times,serif" font-size="14.00" fill="white">settled</text>
<text text-anchor="start" x="396.567" y="-324.262" font-family="Times,serif" font-size="14.00">terminate</text>
</g>
<!-- settling&#45;&gt;settling &#160;&#160;&#160;&#160;&#160;settled -->
<g id="edge37" class="edge"><title>settling&#45;&gt;settling &#160;&#160;&#160;&#160;&#160;settled</title>
<path fill="none" stroke="black" d="M664.38,-474.603C613.296,-462.507 527.128,-436.696 464,-394.362 457.01,-389.675 450.3,-383.809 444.373,-377.713"/>
<polygon fill="black" stroke="black" points="446.632,-374.994 437.321,-369.939 441.447,-379.697 446.632,-374.994"/>
</g>
<!-- settling &#160;&#160;&#160;&#160;&#160;connection open -->
<g id="node24" class="node"><title>settling &#160;&#160;&#160;&#160;&#160;connection open</title>
<path fill="none" stroke="black" d="M494.5,-299.862C494.5,-299.862 601.5,-299.862 601.5,-299.862 607.5,-299.862 613.5,-305.862 613.5,-311.862 613.5,-311.862 613.5,-369.862 613.5,-369.862 613.5,-375.862 607.5,-381.862 601.5,-381.862 601.5,-381.862 494.5,-381.862 494.5,-381.862 488.5,-381.862 482.5,-375.862 482.5,-369.862 482.5,-369.862 482.5,-311.862 482.5,-311.862 482.5,-305.862 488.5,-299.862 494.5,-299.862"/>
<polygon fill="white" stroke="none" points="490.5,-303.862 490.5,-377.862 605.5,-377.862 605.5,-303.862 490.5,-303.862"/>
<polygon fill="black" stroke="none" points="493,-353.862 493,-375.862 604,-375.862 604,-353.862 493,-353.862"/>
<text text-anchor="start" x="502.43" y="-360.262" font-family="Times,serif" font-size="14.00" fill="white">connection open</text>
<text text-anchor="start" x="495.801" y="-336.262" font-family="Times,serif" font-size="14.00">register new client</text>
<text text-anchor="start" x="496" y="-312.262" font-family="Times,serif" font-size="14.00">send</text>
</g>
<!-- settling&#45;&gt;settling &#160;&#160;&#160;&#160;&#160;connection open -->
<g id="edge39" class="edge"><title>settling&#45;&gt;settling &#160;&#160;&#160;&#160;&#160;connection open</title>
<path fill="none" stroke="black" d="M674.824,-454.328C653.699,-435.595 625.564,-410.645 601.162,-389.005"/>
<polygon fill="black" stroke="black" points="603.188,-386.124 593.383,-382.108 598.543,-391.361 603.188,-386.124"/>
</g>
<!-- settling &#160;&#160;&#160;&#160;&#160;stream message -->
<g id="node25" class="node"><title>settling &#160;&#160;&#160;&#160;&#160;stream message</title>
<path fill="none" stroke="black" d="M644,-311.862C644,-311.862 772,-311.862 772,-311.862 778,-311.862 784,-317.862 784,-323.862 784,-323.862 784,-357.862 784,-357.862 784,-363.862 778,-369.862 772,-369.862 772,-369.862 644,-369.862 644,-369.862 638,-369.862 632,-363.862 632,-357.862 632,-357.862 632,-323.862 632,-323.862 632,-317.862 638,-311.862 644,-311.862"/>
<polygon fill="white" stroke="none" points="640,-315.862 640,-365.862 776,-365.862 776,-315.862 640,-315.862"/>
<polygon fill="black" stroke="none" points="642,-341.862 642,-363.862 774,-363.862 774,-341.862 642,-341.862"/>
<text text-anchor="start" x="663.88" y="-348.262" font-family="Times,serif" font-size="14.00" fill="white">stream message</text>
<text text-anchor="start" x="644.605" y="-324.262" font-family="Times,serif" font-size="14.00">get message to deliver</text>
</g>
<!-- settling&#45;&gt;settling &#160;&#160;&#160;&#160;&#160;stream message -->
<g id="edge41" class="edge"><title>settling&#45;&gt;settling &#160;&#160;&#160;&#160;&#160;stream message</title>
<path fill="none" stroke="black" d="M701.055,-440.557C700.466,-421.346 700.682,-398.789 701.651,-380.094"/>
<polygon fill="black" stroke="black" points="705.16,-380.067 702.288,-369.869 698.173,-379.632 705.16,-380.067"/>
</g>
<!-- settling &#160;&#160;&#160;&#160;&#160;* -->
<g id="node26" class="node"><title>settling &#160;&#160;&#160;&#160;&#160;*</title>
<path fill="none" stroke="black" d="M814,-299.862C814,-299.862 952,-299.862 952,-299.862 958,-299.862 964,-305.862 964,-311.862 964,-311.862 964,-369.862 964,-369.862 964,-375.862 958,-381.862 952,-381.862 952,-381.862 814,-381.862 814,-381.862 808,-381.862 802,-375.862 802,-369.862 802,-369.862 802,-311.862 802,-311.862 802,-305.862 808,-299.862 814,-299.862"/>
<polygon fill="white" stroke="none" points="810,-303.862 810,-377.862 956,-377.862 956,-303.862 810,-303.862"/>
<polygon fill="black" stroke="none" points="812,-353.862 812,-375.862 954,-375.862 954,-353.862 812,-353.862"/>
<text text-anchor="start" x="879.5" y="-360.262" font-family="Times,serif" font-size="14.00" fill="white">*</text>
<text text-anchor="start" x="814.731" y="-336.262" font-family="Times,serif" font-size="14.00">signal command invalid</text>
<text text-anchor="start" x="815" y="-312.262" font-family="Times,serif" font-size="14.00">send</text>
</g>
<!-- settling&#45;&gt;settling &#160;&#160;&#160;&#160;&#160;* -->
<g id="edge43" class="edge"><title>settling&#45;&gt;settling &#160;&#160;&#160;&#160;&#160;*</title>
<path fill="none" stroke="black" d="M731.464,-447.544C737.371,-441.624 743.747,-435.683 750,-430.362 767.283,-415.655 786.911,-400.865 805.708,-387.7"/>
<polygon fill="black" stroke="black" points="807.759,-390.537 813.989,-381.967 803.774,-384.782 807.759,-390.537"/>
</g>
<!-- defaults &#160;&#160;&#160;&#160;&#160;stream message&#45;&gt;connected -->
<g id="edge26" class="edge"><title>defaults &#160;&#160;&#160;&#160;&#160;stream message&#45;&gt;connected</title>
<path fill="none" stroke="black" d="M907.379,-442.799C937.83,-422.943 968.687,-401.672 973,-394.362 996.563,-354.423 1000.5,-301.795 998.994,-261.102"/>
<polygon fill="black" stroke="black" points="1002.49,-260.846 998.501,-251.029 995.494,-261.188 1002.49,-260.846"/>
</g>
<!-- defaults &#160;&#160;&#160;&#160;&#160;mailbox message&#45;&gt;connected -->
<g id="edge28" class="edge"><title>defaults &#160;&#160;&#160;&#160;&#160;mailbox message&#45;&gt;connected</title>
<path fill="none" stroke="black" d="M1024.72,-430.531C1019.89,-391.128 1012.9,-335.804 1006,-287.362 1004.78,-278.794 1003.43,-269.773 1002.08,-260.894"/>
<polygon fill="black" stroke="black" points="1005.53,-260.308 1000.54,-250.959 998.609,-261.377 1005.53,-260.308"/>
</g>
<!-- defaults &#160;&#160;&#160;&#160;&#160;service message&#45;&gt;connected -->
<g id="edge30" class="edge"><title>defaults &#160;&#160;&#160;&#160;&#160;service message&#45;&gt;connected</title>
<path fill="none" stroke="black" d="M1186.1,-442.678C1145.51,-391.549 1075.41,-303.253 1031.49,-247.927"/>
<polygon fill="black" stroke="black" points="1034.17,-245.668 1025.21,-240.012 1028.69,-250.02 1034.17,-245.668"/>
</g>
<!-- defaults &#160;&#160;&#160;&#160;&#160;expired&#45;&gt;settling -->
<g id="edge32" class="edge"><title>defaults &#160;&#160;&#160;&#160;&#160;expired&#45;&gt;settling</title>
<path fill="none" stroke="black" d="M595.574,-597.655C619.54,-573.395 647.515,-545.077 669.439,-522.884"/>
<polygon fill="black" stroke="black" points="672.09,-525.181 676.628,-515.607 667.11,-520.261 672.09,-525.181"/>
</g>
<!-- defaults &#160;&#160;&#160;&#160;&#160;exception&#45;&gt;settling -->
<g id="edge34" class="edge"><title>defaults &#160;&#160;&#160;&#160;&#160;exception&#45;&gt;settling</title>
<path fill="none" stroke="black" d="M707.538,-573.641C707.464,-561.487 707.39,-549.15 707.32,-537.694"/>
<polygon fill="black" stroke="black" points="710.819,-537.429 707.258,-527.451 703.819,-537.472 710.819,-537.429"/>
</g>
<!-- defaults &#160;&#160;&#160;&#160;&#160;*&#45;&gt;settling -->
<g id="edge36" class="edge"><title>defaults &#160;&#160;&#160;&#160;&#160;*&#45;&gt;settling</title>
<path fill="none" stroke="black" d="M811.307,-585.714C793.989,-570.083 775.695,-553.277 759,-537.362 754.134,-532.723 749.081,-527.783 744.121,-522.86"/>
<polygon fill="black" stroke="black" points="746.502,-520.291 736.955,-515.696 741.553,-525.241 746.502,-520.291"/>
</g>
<!-- settling &#160;&#160;&#160;&#160;&#160;settled&#45;&gt;settling -->
<g id="edge38" class="edge"><title>settling &#160;&#160;&#160;&#160;&#160;settled&#45;&gt;settling</title>
<path fill="none" stroke="black" d="M454.372,-369.939C462.683,-378.646 472.059,-387.696 482,-394.362 536.221,-430.723 607.439,-454.895 655.182,-468.656"/>
<polygon fill="black" stroke="black" points="654.423,-472.079 664.999,-471.435 656.33,-465.344 654.423,-472.079"/>
</g>
<!-- settling &#160;&#160;&#160;&#160;&#160;connection open&#45;&gt;connected -->
<g id="edge40" class="edge"><title>settling &#160;&#160;&#160;&#160;&#160;connection open&#45;&gt;connected</title>
<path fill="none" stroke="black" d="M600.203,-299.717C607.608,-295.108 615.322,-290.827 623,-287.362 724.409,-241.596 852.528,-217.41 928.036,-206.243"/>
<polygon fill="black" stroke="black" points="928.937,-209.649 938.333,-204.753 927.935,-202.721 928.937,-209.649"/>
</g>
<!-- settling &#160;&#160;&#160;&#160;&#160;stream message&#45;&gt;settling -->
<g id="edge42" class="edge"><title>settling &#160;&#160;&#160;&#160;&#160;stream message&#45;&gt;settling</title>
<path fill="none" stroke="black" d="M713.315,-369.869C714.348,-387.146 714.533,-409.854 713.922,-430.378"/>
<polygon fill="black" stroke="black" points="710.418,-430.434 713.545,-440.557 717.413,-430.694 710.418,-430.434"/>
</g>
<!-- settling &#160;&#160;&#160;&#160;&#160;*&#45;&gt;settling -->
<g id="edge44" class="edge"><title>settling &#160;&#160;&#160;&#160;&#160;*&#45;&gt;settling</title>
<path fill="none" stroke="black" d="M830.963,-381.967C810.771,-396.486 787.841,-413.479 768,-430.362 761.399,-435.979 754.66,-442.288 748.151,-448.532"/>
<polygon fill="black" stroke="black" points="745.4,-446.323 740.637,-455.787 750.262,-451.359 745.4,-446.323"/>
</g>
</g>
</svg>
