<?xml version="1.0" encoding="UTF-8" standalone="no"?>
<!DOCTYPE svg PUBLIC "-//W3C//DTD SVG 1.1//EN"
 "http://www.w3.org/Graphics/SVG/1.1/DTD/svg11.dtd">
<!-- Generated by graphviz version 2.38.0 (20140413.2041)
 -->
<!-- Title: mlm_server Pages: 1 -->
<svg width="2702pt" height="860pt"
 viewBox="0.00 0.00 2702.00 859.68" xmlns="http://www.w3.org/2000/svg" xmlns:xlink="http://www.w3.org/1999/xlink">
<g id="graph0" class="graph" transform="scale(1 1) rotate(0) translate(4 855.684)">
<title>mlm_server</title>
<polygon fill="white" stroke="none" points="-4,4 -4,-855.684 2698,-855.684 2698,4 -4,4"/>
<!-- start -->
<g id="node1" class="node"><title>start</title>
<ellipse fill="none" stroke="black" cx="1833" cy="-820.023" rx="27.8023" ry="27.8023"/>
<ellipse fill="none" stroke="black" cx="1833" cy="-820.023" rx="31.8227" ry="31.8227"/>
<text text-anchor="middle" x="1833" y="-815.823" font-family="Times,serif" font-size="14.00">start</text>
</g>
<!-- start connection close -->
<g id="node2" class="node"><title>start connection close</title>
<path fill="none" stroke="black" stroke-dasharray="5,2" d="M1763.5,-609.862C1763.5,-609.862 1902.5,-609.862 1902.5,-609.862 1908.5,-609.862 1914.5,-615.862 1914.5,-621.862 1914.5,-621.862 1914.5,-727.862 1914.5,-727.862 1914.5,-733.862 1908.5,-739.862 1902.5,-739.862 1902.5,-739.862 1763.5,-739.862 1763.5,-739.862 1757.5,-739.862 1751.5,-733.862 1751.5,-727.862 1751.5,-727.862 1751.5,-621.862 1751.5,-621.862 1751.5,-615.862 1757.5,-609.862 1763.5,-609.862"/>
<polygon fill="white" stroke="none" points="1759.5,-613.862 1759.5,-735.862 1906.5,-735.862 1906.5,-613.862 1759.5,-613.862"/>
<polygon fill="black" stroke="none" points="1762,-711.862 1762,-733.862 1905,-733.862 1905,-711.862 1762,-711.862"/>
<text text-anchor="start" x="1786.66" y="-718.262" font-family="Times,serif" font-size="14.00" fill="white">connection close</text>
<text text-anchor="start" x="1765" y="-694.262" font-family="Times,serif" font-size="14.00">send</text>
<text text-anchor="start" x="1764.85" y="-670.262" font-family="Times,serif" font-size="14.00">client closed connection</text>
<text text-anchor="start" x="1765" y="-646.262" font-family="Times,serif" font-size="14.00">deregister the client</text>
<text text-anchor="start" x="1765" y="-622.262" font-family="Times,serif" font-size="14.00">allow time to settle</text>
</g>
<!-- start&#45;&gt;start connection close -->
<g id="edge1" class="edge"><title>start&#45;&gt;start connection close</title>
<path fill="none" stroke="black" d="M1833,-788.311C1833,-777.05 1833,-763.76 1833,-750.334"/>
<polygon fill="black" stroke="black" points="1836.5,-750.072 1833,-740.072 1829.5,-750.072 1836.5,-750.072"/>
</g>
<!-- start stream message -->
<g id="node4" class="node"><title>start stream message</title>
<path fill="none" stroke="black" stroke-dasharray="5,2" d="M1490,-466.862C1490,-466.862 1618,-466.862 1618,-466.862 1624,-466.862 1630,-472.862 1630,-478.862 1630,-478.862 1630,-536.862 1630,-536.862 1630,-542.862 1624,-548.862 1618,-548.862 1618,-548.862 1490,-548.862 1490,-548.862 1484,-548.862 1478,-542.862 1478,-536.862 1478,-536.862 1478,-478.862 1478,-478.862 1478,-472.862 1484,-466.862 1490,-466.862"/>
<polygon fill="white" stroke="none" points="1486,-470.862 1486,-544.862 1622,-544.862 1622,-470.862 1486,-470.862"/>
<polygon fill="black" stroke="none" points="1488,-520.862 1488,-542.862 1620,-542.862 1620,-520.862 1488,-520.862"/>
<text text-anchor="start" x="1509.88" y="-527.262" font-family="Times,serif" font-size="14.00" fill="white">stream message</text>
<text text-anchor="start" x="1490.6" y="-503.262" font-family="Times,serif" font-size="14.00">get message to deliver</text>
<text text-anchor="start" x="1491" y="-479.262" font-family="Times,serif" font-size="14.00">send</text>
</g>
<!-- start&#45;&gt;start stream message -->
<g id="edge3" class="edge"><title>start&#45;&gt;start stream message</title>
<path fill="none" stroke="black" d="M1803.62,-806.96C1778.36,-795.56 1741.98,-776.605 1716,-752.362 1655.06,-695.501 1605.67,-611.449 1578.07,-558.452"/>
<polygon fill="black" stroke="black" points="1581.02,-556.544 1573.33,-549.254 1574.8,-559.747 1581.02,-556.544"/>
</g>
<!-- start mailbox message -->
<g id="node6" class="node"><title>start mailbox message</title>
<path fill="none" stroke="black" stroke-dasharray="5,2" d="M1660,-454.862C1660,-454.862 1822,-454.862 1822,-454.862 1828,-454.862 1834,-460.862 1834,-466.862 1834,-466.862 1834,-548.862 1834,-548.862 1834,-554.862 1828,-560.862 1822,-560.862 1822,-560.862 1660,-560.862 1660,-560.862 1654,-560.862 1648,-554.862 1648,-548.862 1648,-548.862 1648,-466.862 1648,-466.862 1648,-460.862 1654,-454.862 1660,-454.862"/>
<polygon fill="white" stroke="none" points="1656,-458.862 1656,-556.862 1826,-556.862 1826,-458.862 1656,-458.862"/>
<polygon fill="black" stroke="none" points="1658,-532.862 1658,-554.862 1824,-554.862 1824,-532.862 1658,-532.862"/>
<text text-anchor="start" x="1692.6" y="-539.262" font-family="Times,serif" font-size="14.00" fill="white">mailbox message</text>
<text text-anchor="start" x="1661" y="-515.262" font-family="Times,serif" font-size="14.00">get message to deliver</text>
<text text-anchor="start" x="1661" y="-491.262" font-family="Times,serif" font-size="14.00">send</text>
<text text-anchor="start" x="1660.89" y="-467.262" font-family="Times,serif" font-size="14.00">check for mailbox messages</text>
</g>
<!-- start&#45;&gt;start mailbox message -->
<g id="edge5" class="edge"><title>start&#45;&gt;start mailbox message</title>
<path fill="none" stroke="black" d="M1804.23,-806.787C1782.76,-795.936 1754.98,-777.837 1742,-752.362 1713.3,-696.041 1717.78,-622.437 1726.48,-570.957"/>
<polygon fill="black" stroke="black" points="1729.95,-571.427 1728.27,-560.967 1723.06,-570.194 1729.95,-571.427"/>
</g>
<!-- start service message -->
<g id="node7" class="node"><title>start service message</title>
<path fill="none" stroke="black" stroke-dasharray="5,2" d="M1116,-466.862C1116,-466.862 1244,-466.862 1244,-466.862 1250,-466.862 1256,-472.862 1256,-478.862 1256,-478.862 1256,-536.862 1256,-536.862 1256,-542.862 1250,-548.862 1244,-548.862 1244,-548.862 1116,-548.862 1116,-548.862 1110,-548.862 1104,-542.862 1104,-536.862 1104,-536.862 1104,-478.862 1104,-478.862 1104,-472.862 1110,-466.862 1116,-466.862"/>
<polygon fill="white" stroke="none" points="1112,-470.862 1112,-544.862 1248,-544.862 1248,-470.862 1112,-470.862"/>
<polygon fill="black" stroke="none" points="1114,-520.862 1114,-542.862 1246,-542.862 1246,-520.862 1114,-520.862"/>
<text text-anchor="start" x="1134.72" y="-527.262" font-family="Times,serif" font-size="14.00" fill="white">service message</text>
<text text-anchor="start" x="1116.6" y="-503.262" font-family="Times,serif" font-size="14.00">get message to deliver</text>
<text text-anchor="start" x="1117" y="-479.262" font-family="Times,serif" font-size="14.00">send</text>
</g>
<!-- start&#45;&gt;start service message -->
<g id="edge7" class="edge"><title>start&#45;&gt;start service message</title>
<path fill="none" stroke="black" d="M1801.56,-816.271C1718.57,-808.623 1495.5,-785.477 1430,-752.362 1338.01,-705.855 1257.87,-613.617 1214.46,-556.973"/>
<polygon fill="black" stroke="black" points="1217.16,-554.736 1208.33,-548.883 1211.58,-558.966 1217.16,-554.736"/>
</g>
<!-- start expired -->
<g id="node8" class="node"><title>start expired</title>
<path fill="none" stroke="black" stroke-dasharray="5,2" d="M1945,-621.862C1945,-621.862 2059,-621.862 2059,-621.862 2065,-621.862 2071,-627.862 2071,-633.862 2071,-633.862 2071,-715.862 2071,-715.862 2071,-721.862 2065,-727.862 2059,-727.862 2059,-727.862 1945,-727.862 1945,-727.862 1939,-727.862 1933,-721.862 1933,-715.862 1933,-715.862 1933,-633.862 1933,-633.862 1933,-627.862 1939,-621.862 1945,-621.862"/>
<polygon fill="white" stroke="none" points="1941,-625.862 1941,-723.862 2063,-723.862 2063,-625.862 1941,-625.862"/>
<polygon fill="black" stroke="none" points="1943,-699.862 1943,-721.862 2061,-721.862 2061,-699.862 1943,-699.862"/>
<text text-anchor="start" x="1981.01" y="-706.262" font-family="Times,serif" font-size="14.00" fill="white">expired</text>
<text text-anchor="start" x="1946" y="-682.262" font-family="Times,serif" font-size="14.00">client expired</text>
<text text-anchor="start" x="1945.8" y="-658.262" font-family="Times,serif" font-size="14.00">deregister the client</text>
<text text-anchor="start" x="1946" y="-634.262" font-family="Times,serif" font-size="14.00">allow time to settle</text>
</g>
<!-- start&#45;&gt;start expired -->
<g id="edge9" class="edge"><title>start&#45;&gt;start expired</title>
<path fill="none" stroke="black" d="M1858.9,-801.212C1877.27,-788.255 1902.24,-769.97 1923,-752.362 1929.49,-746.859 1936.11,-740.954 1942.63,-734.953"/>
<polygon fill="black" stroke="black" points="1945.28,-737.262 1950.21,-727.883 1940.51,-732.142 1945.28,-737.262"/>
</g>
<!-- start exception -->
<g id="node9" class="node"><title>start exception</title>
<path fill="none" stroke="black" stroke-dasharray="5,2" d="M2101.5,-597.862C2101.5,-597.862 2230.5,-597.862 2230.5,-597.862 2236.5,-597.862 2242.5,-603.862 2242.5,-609.862 2242.5,-609.862 2242.5,-739.862 2242.5,-739.862 2242.5,-745.862 2236.5,-751.862 2230.5,-751.862 2230.5,-751.862 2101.5,-751.862 2101.5,-751.862 2095.5,-751.862 2089.5,-745.862 2089.5,-739.862 2089.5,-739.862 2089.5,-609.862 2089.5,-609.862 2089.5,-603.862 2095.5,-597.862 2101.5,-597.862"/>
<polygon fill="white" stroke="none" points="2097.5,-601.862 2097.5,-747.862 2234.5,-747.862 2234.5,-601.862 2097.5,-601.862"/>
<polygon fill="black" stroke="none" points="2100,-723.862 2100,-745.862 2233,-745.862 2233,-723.862 2100,-723.862"/>
<text text-anchor="start" x="2139.29" y="-730.262" font-family="Times,serif" font-size="14.00" fill="white">exception</text>
<text text-anchor="start" x="2102.91" y="-706.262" font-family="Times,serif" font-size="14.00">signal operation failed</text>
<text text-anchor="start" x="2103" y="-682.262" font-family="Times,serif" font-size="14.00">send</text>
<text text-anchor="start" x="2103" y="-658.262" font-family="Times,serif" font-size="14.00">client had exception</text>
<text text-anchor="start" x="2103" y="-634.262" font-family="Times,serif" font-size="14.00">deregister the client</text>
<text text-anchor="start" x="2103" y="-610.262" font-family="Times,serif" font-size="14.00">allow time to settle</text>
</g>
<!-- start&#45;&gt;start exception -->
<g id="edge11" class="edge"><title>start&#45;&gt;start exception</title>
<path fill="none" stroke="black" d="M1864.35,-815.277C1913,-808.459 2008.49,-790.995 2080,-752.362 2080.2,-752.255 2080.4,-752.148 2080.59,-752.04"/>
<polygon fill="black" stroke="black" points="2082.58,-754.934 2089.42,-746.848 2079.03,-748.9 2082.58,-754.934"/>
</g>
<!-- start connection open -->
<g id="node10" class="node"><title>start connection open</title>
<path fill="none" stroke="black" d="M1286,-454.862C1286,-454.862 1448,-454.862 1448,-454.862 1454,-454.862 1460,-460.862 1460,-466.862 1460,-466.862 1460,-548.862 1460,-548.862 1460,-554.862 1454,-560.862 1448,-560.862 1448,-560.862 1286,-560.862 1286,-560.862 1280,-560.862 1274,-554.862 1274,-548.862 1274,-548.862 1274,-466.862 1274,-466.862 1274,-460.862 1280,-454.862 1286,-454.862"/>
<polygon fill="white" stroke="none" points="1282,-458.862 1282,-556.862 1452,-556.862 1452,-458.862 1282,-458.862"/>
<polygon fill="black" stroke="none" points="1284,-532.862 1284,-554.862 1450,-554.862 1450,-532.862 1284,-532.862"/>
<text text-anchor="start" x="1320.93" y="-539.262" font-family="Times,serif" font-size="14.00" fill="white">connection open</text>
<text text-anchor="start" x="1287" y="-515.262" font-family="Times,serif" font-size="14.00">register new client</text>
<text text-anchor="start" x="1287" y="-491.262" font-family="Times,serif" font-size="14.00">send</text>
<text text-anchor="start" x="1286.89" y="-467.262" font-family="Times,serif" font-size="14.00">check for mailbox messages</text>
</g>
<!-- start&#45;&gt;start connection open -->
<g id="edge13" class="edge"><title>start&#45;&gt;start connection open</title>
<path fill="none" stroke="black" d="M1801.32,-815.592C1753.74,-809.283 1662.33,-792.588 1596,-752.362 1518.36,-705.278 1450.08,-624.786 1408.72,-569.313"/>
<polygon fill="black" stroke="black" points="1411.32,-566.943 1402.57,-560.976 1405.69,-571.1 1411.32,-566.943"/>
</g>
<!-- start * -->
<g id="node11" class="node"><title>start *</title>
<path fill="none" stroke="black" d="M2273,-633.862C2273,-633.862 2411,-633.862 2411,-633.862 2417,-633.862 2423,-639.862 2423,-645.862 2423,-645.862 2423,-703.862 2423,-703.862 2423,-709.862 2417,-715.862 2411,-715.862 2411,-715.862 2273,-715.862 2273,-715.862 2267,-715.862 2261,-709.862 2261,-703.862 2261,-703.862 2261,-645.862 2261,-645.862 2261,-639.862 2267,-633.862 2273,-633.862"/>
<polygon fill="white" stroke="none" points="2269,-637.862 2269,-711.862 2415,-711.862 2415,-637.862 2269,-637.862"/>
<polygon fill="black" stroke="none" points="2271,-687.862 2271,-709.862 2413,-709.862 2413,-687.862 2271,-687.862"/>
<text text-anchor="start" x="2338.5" y="-694.262" font-family="Times,serif" font-size="14.00" fill="white">*</text>
<text text-anchor="start" x="2273.73" y="-670.262" font-family="Times,serif" font-size="14.00">signal command invalid</text>
<text text-anchor="start" x="2274" y="-646.262" font-family="Times,serif" font-size="14.00">send</text>
</g>
<!-- start&#45;&gt;start * -->
<g id="edge15" class="edge"><title>start&#45;&gt;start *</title>
<path fill="none" stroke="black" d="M1864.84,-819.618C1936.01,-819.478 2111.16,-812.145 2242,-752.362 2258.01,-745.048 2273.45,-734.12 2287.25,-722.796"/>
<polygon fill="black" stroke="black" points="2289.8,-725.23 2295.18,-716.107 2285.28,-719.878 2289.8,-725.23"/>
</g>
<!-- settling -->
<g id="node3" class="node"><title>settling</title>
<ellipse fill="none" stroke="black" cx="2166" cy="-507.862" rx="39.4436" ry="39.4436"/>
<ellipse fill="none" stroke="black" cx="2166" cy="-507.862" rx="43.4409" ry="43.4409"/>
<text text-anchor="middle" x="2166" y="-503.662" font-family="Times,serif" font-size="14.00">settling</text>
</g>
<!-- start connection close&#45;&gt;settling -->
<g id="edge2" class="edge"><title>start connection close&#45;&gt;settling</title>
<path fill="none" stroke="black" d="M1904.86,-609.723C1911.15,-605.274 1917.57,-601.085 1924,-597.362 1985.34,-561.848 2063.45,-536.395 2114.07,-522.152"/>
<polygon fill="black" stroke="black" points="2115.11,-525.495 2123.82,-519.453 2113.25,-518.749 2115.11,-525.495"/>
</g>
<!-- settling settled -->
<g id="node28" class="node"><title>settling settled</title>
<path fill="none" stroke="black" d="M2315,-347.862C2315,-347.862 2371,-347.862 2371,-347.862 2377,-347.862 2383,-353.862 2383,-359.862 2383,-359.862 2383,-393.862 2383,-393.862 2383,-399.862 2377,-405.862 2371,-405.862 2371,-405.862 2315,-405.862 2315,-405.862 2309,-405.862 2303,-399.862 2303,-393.862 2303,-393.862 2303,-359.862 2303,-359.862 2303,-353.862 2309,-347.862 2315,-347.862"/>
<polygon fill="white" stroke="none" points="2311,-351.862 2311,-401.862 2375,-401.862 2375,-351.862 2311,-351.862"/>
<polygon fill="black" stroke="none" points="2313,-377.862 2313,-399.862 2373,-399.862 2373,-377.862 2313,-377.862"/>
<text text-anchor="start" x="2324.73" y="-384.262" font-family="Times,serif" font-size="14.00" fill="white">settled</text>
<text text-anchor="start" x="2315.57" y="-360.262" font-family="Times,serif" font-size="14.00">terminate</text>
</g>
<!-- settling&#45;&gt;settling settled -->
<g id="edge49" class="edge"><title>settling&#45;&gt;settling settled</title>
<path fill="none" stroke="black" d="M2198.21,-478.364C2221.15,-461.115 2252.44,-438.61 2280,-418.362 2284.72,-414.895 2289.65,-411.238 2294.61,-407.598"/>
<polygon fill="black" stroke="black" points="2296.91,-410.249 2302.92,-401.525 2292.78,-404.596 2296.91,-410.249"/>
</g>
<!-- settling connection open -->
<g id="node29" class="node"><title>settling connection open</title>
<path fill="none" stroke="black" d="M1698.5,-335.862C1698.5,-335.862 1805.5,-335.862 1805.5,-335.862 1811.5,-335.862 1817.5,-341.862 1817.5,-347.862 1817.5,-347.862 1817.5,-405.862 1817.5,-405.862 1817.5,-411.862 1811.5,-417.862 1805.5,-417.862 1805.5,-417.862 1698.5,-417.862 1698.5,-417.862 1692.5,-417.862 1686.5,-411.862 1686.5,-405.862 1686.5,-405.862 1686.5,-347.862 1686.5,-347.862 1686.5,-341.862 1692.5,-335.862 1698.5,-335.862"/>
<polygon fill="white" stroke="none" points="1694.5,-339.862 1694.5,-413.862 1809.5,-413.862 1809.5,-339.862 1694.5,-339.862"/>
<polygon fill="black" stroke="none" points="1697,-389.862 1697,-411.862 1808,-411.862 1808,-389.862 1697,-389.862"/>
<text text-anchor="start" x="1706.43" y="-396.262" font-family="Times,serif" font-size="14.00" fill="white">connection open</text>
<text text-anchor="start" x="1699.8" y="-372.262" font-family="Times,serif" font-size="14.00">register new client</text>
<text text-anchor="start" x="1700" y="-348.262" font-family="Times,serif" font-size="14.00">send</text>
</g>
<!-- settling&#45;&gt;settling connection open -->
<g id="edge51" class="edge"><title>settling&#45;&gt;settling connection open</title>
<path fill="none" stroke="black" d="M2124.15,-494.646C2067.19,-477.921 1962.12,-446.728 1873,-418.362 1858.19,-413.649 1842.42,-408.479 1827.32,-403.456"/>
<polygon fill="black" stroke="black" points="1828.1,-400.027 1817.51,-400.182 1825.89,-406.667 1828.1,-400.027"/>
</g>
<!-- settling stream message -->
<g id="node30" class="node"><title>settling stream message</title>
<path fill="none" stroke="black" d="M1927,-347.862C1927,-347.862 2055,-347.862 2055,-347.862 2061,-347.862 2067,-353.862 2067,-359.862 2067,-359.862 2067,-393.862 2067,-393.862 2067,-399.862 2061,-405.862 2055,-405.862 2055,-405.862 1927,-405.862 1927,-405.862 1921,-405.862 1915,-399.862 1915,-393.862 1915,-393.862 1915,-359.862 1915,-359.862 1915,-353.862 1921,-347.862 1927,-347.862"/>
<polygon fill="white" stroke="none" points="1923,-351.862 1923,-401.862 2059,-401.862 2059,-351.862 1923,-351.862"/>
<polygon fill="black" stroke="none" points="1925,-377.862 1925,-399.862 2057,-399.862 2057,-377.862 1925,-377.862"/>
<text text-anchor="start" x="1946.88" y="-384.262" font-family="Times,serif" font-size="14.00" fill="white">stream message</text>
<text text-anchor="start" x="1927.6" y="-360.262" font-family="Times,serif" font-size="14.00">get message to deliver</text>
</g>
<!-- settling&#45;&gt;settling stream message -->
<g id="edge53" class="edge"><title>settling&#45;&gt;settling stream message</title>
<path fill="none" stroke="black" d="M2129.4,-483.799C2100.72,-463.86 2061,-434.759 2031.41,-412.101"/>
<polygon fill="black" stroke="black" points="2033.41,-409.222 2023.35,-405.894 2029.13,-414.768 2033.41,-409.222"/>
</g>
<!-- settling * -->
<g id="node31" class="node"><title>settling *</title>
<path fill="none" stroke="black" d="M2097,-335.862C2097,-335.862 2235,-335.862 2235,-335.862 2241,-335.862 2247,-341.862 2247,-347.862 2247,-347.862 2247,-405.862 2247,-405.862 2247,-411.862 2241,-417.862 2235,-417.862 2235,-417.862 2097,-417.862 2097,-417.862 2091,-417.862 2085,-411.862 2085,-405.862 2085,-405.862 2085,-347.862 2085,-347.862 2085,-341.862 2091,-335.862 2097,-335.862"/>
<polygon fill="white" stroke="none" points="2093,-339.862 2093,-413.862 2239,-413.862 2239,-339.862 2093,-339.862"/>
<polygon fill="black" stroke="none" points="2095,-389.862 2095,-411.862 2237,-411.862 2237,-389.862 2095,-389.862"/>
<text text-anchor="start" x="2162.5" y="-396.262" font-family="Times,serif" font-size="14.00" fill="white">*</text>
<text text-anchor="start" x="2097.73" y="-372.262" font-family="Times,serif" font-size="14.00">signal command invalid</text>
<text text-anchor="start" x="2098" y="-348.262" font-family="Times,serif" font-size="14.00">send</text>
</g>
<!-- settling&#45;&gt;settling * -->
<g id="edge55" class="edge"><title>settling&#45;&gt;settling *</title>
<path fill="none" stroke="black" d="M2159.62,-464.622C2159.22,-453.029 2159.14,-440.341 2159.39,-428.335"/>
<polygon fill="black" stroke="black" points="2162.9,-428.103 2159.7,-418.004 2155.91,-427.897 2162.9,-428.103"/>
</g>
<!-- connected -->
<g id="node5" class="node"><title>connected</title>
<ellipse fill="none" stroke="black" cx="1234" cy="-245.181" rx="50.3491" ry="50.3491"/>
<ellipse fill="none" stroke="black" cx="1234" cy="-245.181" rx="54.3625" ry="54.3625"/>
<text text-anchor="middle" x="1234" y="-240.981" font-family="Times,serif" font-size="14.00">connected</text>
</g>
<!-- start stream message&#45;&gt;connected -->
<g id="edge4" class="edge"><title>start stream message&#45;&gt;connected</title>
<path fill="none" stroke="black" d="M1504.7,-466.702C1444.63,-417.77 1343.74,-335.578 1283.56,-286.551"/>
<polygon fill="black" stroke="black" points="1285.67,-283.756 1275.7,-280.154 1281.25,-289.183 1285.67,-283.756"/>
</g>
<!-- connected connection close -->
<g id="node12" class="node"><title>connected connection close</title>
<path fill="none" stroke="black" stroke-dasharray="5,2" d="M2386.5,-12.5C2386.5,-12.5 2525.5,-12.5 2525.5,-12.5 2531.5,-12.5 2537.5,-18.5 2537.5,-24.5 2537.5,-24.5 2537.5,-130.5 2537.5,-130.5 2537.5,-136.5 2531.5,-142.5 2525.5,-142.5 2525.5,-142.5 2386.5,-142.5 2386.5,-142.5 2380.5,-142.5 2374.5,-136.5 2374.5,-130.5 2374.5,-130.5 2374.5,-24.5 2374.5,-24.5 2374.5,-18.5 2380.5,-12.5 2386.5,-12.5"/>
<polygon fill="white" stroke="none" points="2382.5,-16.5 2382.5,-138.5 2529.5,-138.5 2529.5,-16.5 2382.5,-16.5"/>
<polygon fill="black" stroke="none" points="2385,-114.5 2385,-136.5 2528,-136.5 2528,-114.5 2385,-114.5"/>
<text text-anchor="start" x="2409.66" y="-120.9" font-family="Times,serif" font-size="14.00" fill="white">connection close</text>
<text text-anchor="start" x="2388" y="-96.9" font-family="Times,serif" font-size="14.00">send</text>
<text text-anchor="start" x="2387.85" y="-72.9" font-family="Times,serif" font-size="14.00">client closed connection</text>
<text text-anchor="start" x="2388" y="-48.9" font-family="Times,serif" font-size="14.00">deregister the client</text>
<text text-anchor="start" x="2388" y="-24.9" font-family="Times,serif" font-size="14.00">allow time to settle</text>
</g>
<!-- connected&#45;&gt;connected connection close -->
<g id="edge17" class="edge"><title>connected&#45;&gt;connected connection close</title>
<path fill="none" stroke="black" d="M1288.23,-244.25C1485.87,-243.835 2166.34,-236.398 2365,-155 2370.01,-152.946 2374.96,-150.509 2379.79,-147.789"/>
<polygon fill="black" stroke="black" points="2381.61,-150.776 2388.36,-142.608 2377.99,-144.785 2381.61,-150.776"/>
</g>
<!-- connected stream message -->
<g id="node13" class="node"><title>connected stream message</title>
<path fill="none" stroke="black" stroke-dasharray="5,2" d="M636,-36.5C636,-36.5 764,-36.5 764,-36.5 770,-36.5 776,-42.5 776,-48.5 776,-48.5 776,-106.5 776,-106.5 776,-112.5 770,-118.5 764,-118.5 764,-118.5 636,-118.5 636,-118.5 630,-118.5 624,-112.5 624,-106.5 624,-106.5 624,-48.5 624,-48.5 624,-42.5 630,-36.5 636,-36.5"/>
<polygon fill="white" stroke="none" points="632,-40.5 632,-114.5 768,-114.5 768,-40.5 632,-40.5"/>
<polygon fill="black" stroke="none" points="634,-90.5 634,-112.5 766,-112.5 766,-90.5 634,-90.5"/>
<text text-anchor="start" x="655.88" y="-96.9" font-family="Times,serif" font-size="14.00" fill="white">stream message</text>
<text text-anchor="start" x="636.605" y="-72.9" font-family="Times,serif" font-size="14.00">get message to deliver</text>
<text text-anchor="start" x="637" y="-48.9" font-family="Times,serif" font-size="14.00">send</text>
</g>
<!-- connected&#45;&gt;connected stream message -->
<g id="edge19" class="edge"><title>connected&#45;&gt;connected stream message</title>
<path fill="none" stroke="black" d="M1179.7,-242.862C1090.55,-238.782 910.117,-222.192 776,-155 761.153,-147.562 746.935,-136.818 734.832,-125.723"/>
<polygon fill="black" stroke="black" points="737.231,-123.174 727.584,-118.795 732.395,-128.235 737.231,-123.174"/>
</g>
<!-- connected mailbox message -->
<g id="node14" class="node"><title>connected mailbox message</title>
<path fill="none" stroke="black" stroke-dasharray="5,2" d="M806,-24.5C806,-24.5 968,-24.5 968,-24.5 974,-24.5 980,-30.5 980,-36.5 980,-36.5 980,-118.5 980,-118.5 980,-124.5 974,-130.5 968,-130.5 968,-130.5 806,-130.5 806,-130.5 800,-130.5 794,-124.5 794,-118.5 794,-118.5 794,-36.5 794,-36.5 794,-30.5 800,-24.5 806,-24.5"/>
<polygon fill="white" stroke="none" points="802,-28.5 802,-126.5 972,-126.5 972,-28.5 802,-28.5"/>
<polygon fill="black" stroke="none" points="804,-102.5 804,-124.5 970,-124.5 970,-102.5 804,-102.5"/>
<text text-anchor="start" x="838.595" y="-108.9" font-family="Times,serif" font-size="14.00" fill="white">mailbox message</text>
<text text-anchor="start" x="807" y="-84.9" font-family="Times,serif" font-size="14.00">get message to deliver</text>
<text text-anchor="start" x="807" y="-60.9" font-family="Times,serif" font-size="14.00">send</text>
<text text-anchor="start" x="806.89" y="-36.9" font-family="Times,serif" font-size="14.00">check for mailbox messages</text>
</g>
<!-- connected&#45;&gt;connected mailbox message -->
<g id="edge21" class="edge"><title>connected&#45;&gt;connected mailbox message</title>
<path fill="none" stroke="black" d="M1181.44,-231.868C1128.47,-217.331 1045.68,-190.564 980,-155 969.989,-149.579 959.883,-143.248 950.197,-136.592"/>
<polygon fill="black" stroke="black" points="951.996,-133.578 941.807,-130.673 947.961,-139.298 951.996,-133.578"/>
</g>
<!-- connected service message -->
<g id="node15" class="node"><title>connected service message</title>
<path fill="none" stroke="black" stroke-dasharray="5,2" d="M1010,-36.5C1010,-36.5 1138,-36.5 1138,-36.5 1144,-36.5 1150,-42.5 1150,-48.5 1150,-48.5 1150,-106.5 1150,-106.5 1150,-112.5 1144,-118.5 1138,-118.5 1138,-118.5 1010,-118.5 1010,-118.5 1004,-118.5 998,-112.5 998,-106.5 998,-106.5 998,-48.5 998,-48.5 998,-42.5 1004,-36.5 1010,-36.5"/>
<polygon fill="white" stroke="none" points="1006,-40.5 1006,-114.5 1142,-114.5 1142,-40.5 1006,-40.5"/>
<polygon fill="black" stroke="none" points="1008,-90.5 1008,-112.5 1140,-112.5 1140,-90.5 1008,-90.5"/>
<text text-anchor="start" x="1028.72" y="-96.9" font-family="Times,serif" font-size="14.00" fill="white">service message</text>
<text text-anchor="start" x="1010.6" y="-72.9" font-family="Times,serif" font-size="14.00">get message to deliver</text>
<text text-anchor="start" x="1011" y="-48.9" font-family="Times,serif" font-size="14.00">send</text>
</g>
<!-- connected&#45;&gt;connected service message -->
<g id="edge23" class="edge"><title>connected&#45;&gt;connected service message</title>
<path fill="none" stroke="black" d="M1193.6,-208.231C1169.2,-184.236 1138.3,-152.417 1113.98,-126.296"/>
<polygon fill="black" stroke="black" points="1116.34,-123.698 1106.98,-118.741 1111.2,-128.455 1116.34,-123.698"/>
</g>
<!-- connected expired -->
<g id="node16" class="node"><title>connected expired</title>
<path fill="none" stroke="black" stroke-dasharray="5,2" d="M2568,-24.5C2568,-24.5 2682,-24.5 2682,-24.5 2688,-24.5 2694,-30.5 2694,-36.5 2694,-36.5 2694,-118.5 2694,-118.5 2694,-124.5 2688,-130.5 2682,-130.5 2682,-130.5 2568,-130.5 2568,-130.5 2562,-130.5 2556,-124.5 2556,-118.5 2556,-118.5 2556,-36.5 2556,-36.5 2556,-30.5 2562,-24.5 2568,-24.5"/>
<polygon fill="white" stroke="none" points="2564,-28.5 2564,-126.5 2686,-126.5 2686,-28.5 2564,-28.5"/>
<polygon fill="black" stroke="none" points="2566,-102.5 2566,-124.5 2684,-124.5 2684,-102.5 2566,-102.5"/>
<text text-anchor="start" x="2604.01" y="-108.9" font-family="Times,serif" font-size="14.00" fill="white">expired</text>
<text text-anchor="start" x="2569" y="-84.9" font-family="Times,serif" font-size="14.00">client expired</text>
<text text-anchor="start" x="2568.8" y="-60.9" font-family="Times,serif" font-size="14.00">deregister the client</text>
<text text-anchor="start" x="2569" y="-36.9" font-family="Times,serif" font-size="14.00">allow time to settle</text>
</g>
<!-- connected&#45;&gt;connected expired -->
<g id="edge25" class="edge"><title>connected&#45;&gt;connected expired</title>
<path fill="none" stroke="black" d="M1288.43,-242.705C1521.75,-236.081 2430.85,-207.113 2547,-155 2556.8,-150.601 2566.09,-144.402 2574.61,-137.415"/>
<polygon fill="black" stroke="black" points="2576.95,-140.011 2582.2,-130.807 2572.36,-134.729 2576.95,-140.011"/>
</g>
<!-- connected exception -->
<g id="node17" class="node"><title>connected exception</title>
<path fill="none" stroke="black" stroke-dasharray="5,2" d="M2034.5,-0.5C2034.5,-0.5 2163.5,-0.5 2163.5,-0.5 2169.5,-0.5 2175.5,-6.5 2175.5,-12.5 2175.5,-12.5 2175.5,-142.5 2175.5,-142.5 2175.5,-148.5 2169.5,-154.5 2163.5,-154.5 2163.5,-154.5 2034.5,-154.5 2034.5,-154.5 2028.5,-154.5 2022.5,-148.5 2022.5,-142.5 2022.5,-142.5 2022.5,-12.5 2022.5,-12.5 2022.5,-6.5 2028.5,-0.5 2034.5,-0.5"/>
<polygon fill="white" stroke="none" points="2030.5,-4.5 2030.5,-150.5 2167.5,-150.5 2167.5,-4.5 2030.5,-4.5"/>
<polygon fill="black" stroke="none" points="2033,-126.5 2033,-148.5 2166,-148.5 2166,-126.5 2033,-126.5"/>
<text text-anchor="start" x="2072.29" y="-132.9" font-family="Times,serif" font-size="14.00" fill="white">exception</text>
<text text-anchor="start" x="2035.91" y="-108.9" font-family="Times,serif" font-size="14.00">signal operation failed</text>
<text text-anchor="start" x="2036" y="-84.9" font-family="Times,serif" font-size="14.00">send</text>
<text text-anchor="start" x="2036" y="-60.9" font-family="Times,serif" font-size="14.00">client had exception</text>
<text text-anchor="start" x="2036" y="-36.9" font-family="Times,serif" font-size="14.00">deregister the client</text>
<text text-anchor="start" x="2036" y="-12.9" font-family="Times,serif" font-size="14.00">allow time to settle</text>
</g>
<!-- connected&#45;&gt;connected exception -->
<g id="edge27" class="edge"><title>connected&#45;&gt;connected exception</title>
<path fill="none" stroke="black" d="M1288.11,-239.888C1453.81,-226.481 1946.98,-184.521 2013,-155 2013.1,-154.955 2013.2,-154.911 2013.3,-154.866"/>
<polygon fill="black" stroke="black" points="2015.1,-157.878 2022.46,-150.259 2011.96,-151.623 2015.1,-157.878"/>
</g>
<!-- connected * -->
<g id="node18" class="node"><title>connected *</title>
<path fill="none" stroke="black" stroke-dasharray="5,2" d="M2206,-12.5C2206,-12.5 2344,-12.5 2344,-12.5 2350,-12.5 2356,-18.5 2356,-24.5 2356,-24.5 2356,-130.5 2356,-130.5 2356,-136.5 2350,-142.5 2344,-142.5 2344,-142.5 2206,-142.5 2206,-142.5 2200,-142.5 2194,-136.5 2194,-130.5 2194,-130.5 2194,-24.5 2194,-24.5 2194,-18.5 2200,-12.5 2206,-12.5"/>
<polygon fill="white" stroke="none" points="2202,-16.5 2202,-138.5 2348,-138.5 2348,-16.5 2202,-16.5"/>
<polygon fill="black" stroke="none" points="2204,-114.5 2204,-136.5 2346,-136.5 2346,-114.5 2204,-114.5"/>
<text text-anchor="start" x="2271.5" y="-120.9" font-family="Times,serif" font-size="14.00" fill="white">*</text>
<text text-anchor="start" x="2206.73" y="-96.9" font-family="Times,serif" font-size="14.00">signal command invalid</text>
<text text-anchor="start" x="2207" y="-72.9" font-family="Times,serif" font-size="14.00">send</text>
<text text-anchor="start" x="2207" y="-48.9" font-family="Times,serif" font-size="14.00">deregister the client</text>
<text text-anchor="start" x="2207" y="-24.9" font-family="Times,serif" font-size="14.00">allow time to settle</text>
</g>
<!-- connected&#45;&gt;connected * -->
<g id="edge29" class="edge"><title>connected&#45;&gt;connected *</title>
<path fill="none" stroke="black" d="M1288.19,-243.311C1464.55,-239.828 2020.2,-223.544 2184,-155 2188.81,-152.985 2193.57,-150.622 2198.22,-147.998"/>
<polygon fill="black" stroke="black" points="2200.3,-150.831 2207.04,-142.657 2196.67,-144.843 2200.3,-150.831"/>
</g>
<!-- connected stream write -->
<g id="node19" class="node"><title>connected stream write</title>
<path fill="none" stroke="black" d="M1180,-36.5C1180,-36.5 1288,-36.5 1288,-36.5 1294,-36.5 1300,-42.5 1300,-48.5 1300,-48.5 1300,-106.5 1300,-106.5 1300,-112.5 1294,-118.5 1288,-118.5 1288,-118.5 1180,-118.5 1180,-118.5 1174,-118.5 1168,-112.5 1168,-106.5 1168,-106.5 1168,-48.5 1168,-48.5 1168,-42.5 1174,-36.5 1180,-36.5"/>
<polygon fill="white" stroke="none" points="1176,-40.5 1176,-114.5 1292,-114.5 1292,-40.5 1176,-40.5"/>
<polygon fill="black" stroke="none" points="1178,-90.5 1178,-112.5 1290,-112.5 1290,-90.5 1178,-90.5"/>
<text text-anchor="start" x="1199.21" y="-96.9" font-family="Times,serif" font-size="14.00" fill="white">stream write</text>
<text text-anchor="start" x="1180.53" y="-72.9" font-family="Times,serif" font-size="14.00">store stream writer</text>
<text text-anchor="start" x="1181" y="-48.9" font-family="Times,serif" font-size="14.00">send</text>
</g>
<!-- connected&#45;&gt;connected stream write -->
<g id="edge31" class="edge"><title>connected&#45;&gt;connected stream write</title>
<path fill="none" stroke="black" d="M1227.66,-191.303C1227.09,-171.222 1227.12,-148.427 1227.74,-128.61"/>
<polygon fill="black" stroke="black" points="1231.24,-128.674 1228.12,-118.548 1224.25,-128.408 1231.24,-128.674"/>
</g>
<!-- connected stream read -->
<g id="node20" class="node"><title>connected stream read</title>
<path fill="none" stroke="black" d="M1330,-36.5C1330,-36.5 1440,-36.5 1440,-36.5 1446,-36.5 1452,-42.5 1452,-48.5 1452,-48.5 1452,-106.5 1452,-106.5 1452,-112.5 1446,-118.5 1440,-118.5 1440,-118.5 1330,-118.5 1330,-118.5 1324,-118.5 1318,-112.5 1318,-106.5 1318,-106.5 1318,-48.5 1318,-48.5 1318,-42.5 1324,-36.5 1330,-36.5"/>
<polygon fill="white" stroke="none" points="1326,-40.5 1326,-114.5 1444,-114.5 1444,-40.5 1326,-40.5"/>
<polygon fill="black" stroke="none" points="1328,-90.5 1328,-112.5 1442,-112.5 1442,-90.5 1328,-90.5"/>
<text text-anchor="start" x="1352.55" y="-96.9" font-family="Times,serif" font-size="14.00" fill="white">stream read</text>
<text text-anchor="start" x="1330.75" y="-72.9" font-family="Times,serif" font-size="14.00">store stream reader</text>
<text text-anchor="start" x="1331" y="-48.9" font-family="Times,serif" font-size="14.00">send</text>
</g>
<!-- connected&#45;&gt;connected stream read -->
<g id="edge33" class="edge"><title>connected&#45;&gt;connected stream read</title>
<path fill="none" stroke="black" d="M1266.9,-201.514C1286.93,-178.501 1312.81,-150.03 1335.28,-126.276"/>
<polygon fill="black" stroke="black" points="1338.09,-128.401 1342.44,-118.742 1333.01,-123.578 1338.09,-128.401"/>
</g>
<!-- connected stream send -->
<g id="node21" class="node"><title>connected stream send</title>
<path fill="none" stroke="black" d="M1482,-48.5C1482,-48.5 1620,-48.5 1620,-48.5 1626,-48.5 1632,-54.5 1632,-60.5 1632,-60.5 1632,-94.5 1632,-94.5 1632,-100.5 1626,-106.5 1620,-106.5 1620,-106.5 1482,-106.5 1482,-106.5 1476,-106.5 1470,-100.5 1470,-94.5 1470,-94.5 1470,-60.5 1470,-60.5 1470,-54.5 1476,-48.5 1482,-48.5"/>
<polygon fill="white" stroke="none" points="1478,-52.5 1478,-102.5 1624,-102.5 1624,-52.5 1478,-52.5"/>
<polygon fill="black" stroke="none" points="1480,-78.5 1480,-100.5 1622,-100.5 1622,-78.5 1480,-78.5"/>
<text text-anchor="start" x="1517.76" y="-84.9" font-family="Times,serif" font-size="14.00" fill="white">stream send</text>
<text text-anchor="start" x="1482.55" y="-60.9" font-family="Times,serif" font-size="14.00">write message to stream</text>
</g>
<!-- connected&#45;&gt;connected stream send -->
<g id="edge35" class="edge"><title>connected&#45;&gt;connected stream send</title>
<path fill="none" stroke="black" d="M1285.15,-227.142C1330.76,-211.965 1398.23,-187.188 1452,-155 1471.35,-143.414 1490.69,-127.66 1507.17,-113.46"/>
<polygon fill="black" stroke="black" points="1509.77,-115.841 1515.02,-106.638 1505.17,-110.558 1509.77,-115.841"/>
</g>
<!-- connected mailbox send -->
<g id="node22" class="node"><title>connected mailbox send</title>
<path fill="none" stroke="black" d="M1662.5,-48.5C1662.5,-48.5 1809.5,-48.5 1809.5,-48.5 1815.5,-48.5 1821.5,-54.5 1821.5,-60.5 1821.5,-60.5 1821.5,-94.5 1821.5,-94.5 1821.5,-100.5 1815.5,-106.5 1809.5,-106.5 1809.5,-106.5 1662.5,-106.5 1662.5,-106.5 1656.5,-106.5 1650.5,-100.5 1650.5,-94.5 1650.5,-94.5 1650.5,-60.5 1650.5,-60.5 1650.5,-54.5 1656.5,-48.5 1662.5,-48.5"/>
<polygon fill="white" stroke="none" points="1658.5,-52.5 1658.5,-102.5 1813.5,-102.5 1813.5,-52.5 1658.5,-52.5"/>
<polygon fill="black" stroke="none" points="1661,-78.5 1661,-100.5 1812,-100.5 1812,-78.5 1661,-78.5"/>
<text text-anchor="start" x="1698.98" y="-84.9" font-family="Times,serif" font-size="14.00" fill="white">mailbox send</text>
<text text-anchor="start" x="1663.77" y="-60.9" font-family="Times,serif" font-size="14.00">write message to mailbox</text>
</g>
<!-- connected&#45;&gt;connected mailbox send -->
<g id="edge37" class="edge"><title>connected&#45;&gt;connected mailbox send</title>
<path fill="none" stroke="black" d="M1288.01,-239.682C1367.02,-231.656 1516.86,-210.168 1632,-155 1653.69,-144.605 1674.84,-128.372 1692.44,-113.528"/>
<polygon fill="black" stroke="black" points="1694.95,-115.993 1700.27,-106.832 1690.4,-110.674 1694.95,-115.993"/>
</g>
<!-- connected service send -->
<g id="node23" class="node"><title>connected service send</title>
<path fill="none" stroke="black" d="M1851.5,-48.5C1851.5,-48.5 1992.5,-48.5 1992.5,-48.5 1998.5,-48.5 2004.5,-54.5 2004.5,-60.5 2004.5,-60.5 2004.5,-94.5 2004.5,-94.5 2004.5,-100.5 1998.5,-106.5 1992.5,-106.5 1992.5,-106.5 1851.5,-106.5 1851.5,-106.5 1845.5,-106.5 1839.5,-100.5 1839.5,-94.5 1839.5,-94.5 1839.5,-60.5 1839.5,-60.5 1839.5,-54.5 1845.5,-48.5 1851.5,-48.5"/>
<polygon fill="white" stroke="none" points="1847.5,-52.5 1847.5,-102.5 1996.5,-102.5 1996.5,-52.5 1847.5,-52.5"/>
<polygon fill="black" stroke="none" points="1850,-78.5 1850,-100.5 1995,-100.5 1995,-78.5 1850,-78.5"/>
<text text-anchor="start" x="1888.1" y="-84.9" font-family="Times,serif" font-size="14.00" fill="white">service send</text>
<text text-anchor="start" x="1852.89" y="-60.9" font-family="Times,serif" font-size="14.00">write message to service</text>
</g>
<!-- connected&#45;&gt;connected service send -->
<g id="edge39" class="edge"><title>connected&#45;&gt;connected service send</title>
<path fill="none" stroke="black" d="M1288.19,-239.427C1414.68,-228.218 1725.4,-197.82 1821,-155 1842.87,-145.207 1863.7,-128.71 1880.82,-113.538"/>
<polygon fill="black" stroke="black" points="1883.34,-115.985 1888.42,-106.689 1878.65,-110.787 1883.34,-115.985"/>
</g>
<!-- connected service offer -->
<g id="node24" class="node"><title>connected service offer</title>
<path fill="none" stroke="black" d="M12,-24.5C12,-24.5 126,-24.5 126,-24.5 132,-24.5 138,-30.5 138,-36.5 138,-36.5 138,-118.5 138,-118.5 138,-124.5 132,-130.5 126,-130.5 126,-130.5 12,-130.5 12,-130.5 6,-130.5 0,-124.5 0,-118.5 0,-118.5 0,-36.5 0,-36.5 0,-30.5 6,-24.5 12,-24.5"/>
<polygon fill="white" stroke="none" points="8,-28.5 8,-126.5 130,-126.5 130,-28.5 8,-28.5"/>
<polygon fill="black" stroke="none" points="10,-102.5 10,-124.5 128,-124.5 128,-102.5 10,-102.5"/>
<text text-anchor="start" x="33.832" y="-108.9" font-family="Times,serif" font-size="14.00" fill="white">service offer</text>
<text text-anchor="start" x="13" y="-84.9" font-family="Times,serif" font-size="14.00">store service offer</text>
<text text-anchor="start" x="13" y="-60.9" font-family="Times,serif" font-size="14.00">send</text>
<text text-anchor="start" x="12.8001" y="-36.9" font-family="Times,serif" font-size="14.00">dispatch the service</text>
</g>
<!-- connected&#45;&gt;connected service offer -->
<g id="edge41" class="edge"><title>connected&#45;&gt;connected service offer</title>
<path fill="none" stroke="black" d="M1179.57,-244.537C984.986,-245.164 326.138,-241.005 138,-155 128.326,-150.578 119.148,-144.422 110.806,-137.505"/>
<polygon fill="black" stroke="black" points="112.887,-134.672 103.077,-130.671 108.25,-139.916 112.887,-134.672"/>
</g>
<!-- connected confirm -->
<g id="node25" class="node"><title>connected confirm</title>
<path fill="none" stroke="black" d="M168.5,-48.5C168.5,-48.5 325.5,-48.5 325.5,-48.5 331.5,-48.5 337.5,-54.5 337.5,-60.5 337.5,-60.5 337.5,-94.5 337.5,-94.5 337.5,-100.5 331.5,-106.5 325.5,-106.5 325.5,-106.5 168.5,-106.5 168.5,-106.5 162.5,-106.5 156.5,-100.5 156.5,-94.5 156.5,-94.5 156.5,-60.5 156.5,-60.5 156.5,-54.5 162.5,-48.5 168.5,-48.5"/>
<polygon fill="white" stroke="none" points="164.5,-52.5 164.5,-102.5 329.5,-102.5 329.5,-52.5 164.5,-52.5"/>
<polygon fill="black" stroke="none" points="167,-78.5 167,-100.5 328,-100.5 328,-78.5 167,-78.5"/>
<text text-anchor="start" x="225.341" y="-84.9" font-family="Times,serif" font-size="14.00" fill="white">confirm</text>
<text text-anchor="start" x="169.917" y="-60.9" font-family="Times,serif" font-size="14.00">have message confirmation</text>
</g>
<!-- connected&#45;&gt;connected confirm -->
<g id="edge43" class="edge"><title>connected&#45;&gt;connected confirm</title>
<path fill="none" stroke="black" d="M1179.73,-242.748C1009.88,-237.52 491.293,-216.446 337,-155 313.551,-145.661 290.991,-129.039 274.187,-113.668"/>
<polygon fill="black" stroke="black" points="276.547,-111.082 266.889,-106.725 271.722,-116.154 276.547,-111.082"/>
</g>
<!-- connected credit -->
<g id="node26" class="node"><title>connected credit</title>
<path fill="none" stroke="black" d="M367.5,-48.5C367.5,-48.5 458.5,-48.5 458.5,-48.5 464.5,-48.5 470.5,-54.5 470.5,-60.5 470.5,-60.5 470.5,-94.5 470.5,-94.5 470.5,-100.5 464.5,-106.5 458.5,-106.5 458.5,-106.5 367.5,-106.5 367.5,-106.5 361.5,-106.5 355.5,-100.5 355.5,-94.5 355.5,-94.5 355.5,-60.5 355.5,-60.5 355.5,-54.5 361.5,-48.5 367.5,-48.5"/>
<polygon fill="white" stroke="none" points="363.5,-52.5 363.5,-102.5 462.5,-102.5 462.5,-52.5 363.5,-52.5"/>
<polygon fill="black" stroke="none" points="366,-78.5 366,-100.5 461,-100.5 461,-78.5 366,-78.5"/>
<text text-anchor="start" x="397.565" y="-84.9" font-family="Times,serif" font-size="14.00" fill="white">credit</text>
<text text-anchor="start" x="368.961" y="-60.9" font-family="Times,serif" font-size="14.00">credit the client</text>
</g>
<!-- connected&#45;&gt;connected credit -->
<g id="edge45" class="edge"><title>connected&#45;&gt;connected credit</title>
<path fill="none" stroke="black" d="M1179.65,-242.938C1026.13,-238.548 592.976,-220.32 470,-155 452.647,-145.783 437.844,-129.985 427.435,-115.131"/>
<polygon fill="black" stroke="black" points="430.229,-113.007 421.829,-106.55 424.369,-116.836 430.229,-113.007"/>
</g>
<!-- connected connection ping -->
<g id="node27" class="node"><title>connected connection ping</title>
<path fill="none" stroke="black" d="M500.5,-48.5C500.5,-48.5 593.5,-48.5 593.5,-48.5 599.5,-48.5 605.5,-54.5 605.5,-60.5 605.5,-60.5 605.5,-94.5 605.5,-94.5 605.5,-100.5 599.5,-106.5 593.5,-106.5 593.5,-106.5 500.5,-106.5 500.5,-106.5 494.5,-106.5 488.5,-100.5 488.5,-94.5 488.5,-94.5 488.5,-60.5 488.5,-60.5 488.5,-54.5 494.5,-48.5 500.5,-48.5"/>
<polygon fill="white" stroke="none" points="496.5,-52.5 496.5,-102.5 597.5,-102.5 597.5,-52.5 496.5,-52.5"/>
<polygon fill="black" stroke="none" points="499,-78.5 499,-100.5 596,-100.5 596,-78.5 499,-78.5"/>
<text text-anchor="start" x="502.592" y="-84.9" font-family="Times,serif" font-size="14.00" fill="white">connection ping</text>
<text text-anchor="start" x="502" y="-60.9" font-family="Times,serif" font-size="14.00">send</text>
</g>
<!-- connected&#45;&gt;connected connection ping -->
<g id="edge47" class="edge"><title>connected&#45;&gt;connected connection ping</title>
<path fill="none" stroke="black" d="M1179.83,-241.397C1046.11,-233.507 704.601,-208.052 606,-155 588.602,-145.639 573.49,-129.98 562.697,-115.259"/>
<polygon fill="black" stroke="black" points="565.403,-113.017 556.857,-106.755 559.633,-116.979 565.403,-113.017"/>
</g>
<!-- start mailbox message&#45;&gt;connected -->
<g id="edge6" class="edge"><title>start mailbox message&#45;&gt;connected</title>
<path fill="none" stroke="black" d="M1647.73,-458.762C1580.98,-424.357 1488.98,-376.966 1408,-335.362 1369.09,-315.369 1325.25,-292.903 1291.32,-275.522"/>
<polygon fill="black" stroke="black" points="1292.51,-272.203 1282.02,-270.76 1289.32,-278.434 1292.51,-272.203"/>
</g>
<!-- start service message&#45;&gt;connected -->
<g id="edge8" class="edge"><title>start service message&#45;&gt;connected</title>
<path fill="none" stroke="black" d="M1188.32,-466.702C1197.07,-424.48 1210.94,-357.495 1221.11,-308.42"/>
<polygon fill="black" stroke="black" points="1224.55,-309.049 1223.15,-298.547 1217.7,-307.629 1224.55,-309.049"/>
</g>
<!-- start expired&#45;&gt;settling -->
<g id="edge10" class="edge"><title>start expired&#45;&gt;settling</title>
<path fill="none" stroke="black" d="M2053.89,-621.655C2078,-597.395 2106.15,-569.077 2128.21,-546.884"/>
<polygon fill="black" stroke="black" points="2130.87,-549.167 2135.44,-539.607 2125.91,-544.232 2130.87,-549.167"/>
</g>
<!-- start exception&#45;&gt;settling -->
<g id="edge12" class="edge"><title>start exception&#45;&gt;settling</title>
<path fill="none" stroke="black" d="M2166,-597.641C2166,-585.487 2166,-573.15 2166,-561.694"/>
<polygon fill="black" stroke="black" points="2169.5,-561.451 2166,-551.451 2162.5,-561.451 2169.5,-561.451"/>
</g>
<!-- start connection open&#45;&gt;connected -->
<g id="edge14" class="edge"><title>start connection open&#45;&gt;connected</title>
<path fill="none" stroke="black" d="M1340.41,-454.736C1317.99,-410.81 1285.99,-348.079 1262.94,-302.903"/>
<polygon fill="black" stroke="black" points="1265.97,-301.145 1258.31,-293.828 1259.74,-304.326 1265.97,-301.145"/>
</g>
<!-- start *&#45;&gt;start -->
<g id="edge16" class="edge"><title>start *&#45;&gt;start</title>
<path fill="none" stroke="black" d="M2312.05,-716.107C2297.48,-729.691 2279.15,-743.613 2260,-752.362 2129.19,-812.134 1954.08,-819.475 1874.84,-819.618"/>
<polygon fill="black" stroke="black" points="1874.77,-816.118 1864.76,-819.598 1874.75,-823.118 1874.77,-816.118"/>
</g>
<!-- connected connection close&#45;&gt;settling -->
<g id="edge18" class="edge"><title>connected connection close&#45;&gt;settling</title>
<path fill="none" stroke="black" d="M2461.28,-142.503C2463.89,-217.138 2456.73,-340.224 2392,-418.362 2349.03,-470.229 2271.61,-491.828 2219.52,-500.737"/>
<polygon fill="black" stroke="black" points="2218.77,-497.312 2209.45,-502.354 2219.88,-504.223 2218.77,-497.312"/>
</g>
<!-- connected stream message&#45;&gt;connected -->
<g id="edge20" class="edge"><title>connected stream message&#45;&gt;connected</title>
<path fill="none" stroke="black" d="M744.478,-118.795C759.06,-132.216 776.072,-146.018 794,-155 917.541,-216.893 1080.38,-235.851 1169.33,-241.645"/>
<polygon fill="black" stroke="black" points="1169.35,-245.152 1179.54,-242.273 1169.78,-238.166 1169.35,-245.152"/>
</g>
<!-- connected mailbox message&#45;&gt;connected -->
<g id="edge22" class="edge"><title>connected mailbox message&#45;&gt;connected</title>
<path fill="none" stroke="black" d="M959.492,-130.673C971.954,-139.461 985.056,-147.991 998,-155 1054.42,-185.55 1123.46,-209.608 1172.33,-224.999"/>
<polygon fill="black" stroke="black" points="1171.55,-228.42 1182.14,-228.056 1173.63,-221.737 1171.55,-228.42"/>
</g>
<!-- connected service message&#45;&gt;connected -->
<g id="edge24" class="edge"><title>connected service message&#45;&gt;connected</title>
<path fill="none" stroke="black" d="M1118.79,-118.782C1142.11,-141.872 1170.37,-171.018 1193.11,-195.399"/>
<polygon fill="black" stroke="black" points="1190.6,-197.85 1199.97,-202.8 1195.74,-193.089 1190.6,-197.85"/>
</g>
<!-- connected expired&#45;&gt;settling -->
<g id="edge26" class="edge"><title>connected expired&#45;&gt;settling</title>
<path fill="none" stroke="black" d="M2608.12,-130.645C2581.48,-204.948 2522.76,-340.853 2428,-418.362 2367,-468.259 2276.51,-490.553 2219.43,-500.129"/>
<polygon fill="black" stroke="black" points="2218.84,-496.678 2209.52,-501.719 2219.95,-503.59 2218.84,-496.678"/>
</g>
<!-- connected exception&#45;&gt;settling -->
<g id="edge28" class="edge"><title>connected exception&#45;&gt;settling</title>
<path fill="none" stroke="black" d="M2022.44,-152.841C1979.13,-200.414 1929.14,-266.051 1906,-335.362 1894.32,-370.353 1884.53,-388.368 1906,-418.362 1952.77,-483.69 2050.62,-501.361 2112.03,-505.808"/>
<polygon fill="black" stroke="black" points="2112.11,-509.32 2122.31,-506.454 2112.55,-502.334 2112.11,-509.32"/>
</g>
<!-- connected *&#45;&gt;settling -->
<g id="edge30" class="edge"><title>connected *&#45;&gt;settling</title>
<path fill="none" stroke="black" d="M2284.7,-142.803C2292.45,-213.666 2296.25,-329.386 2256,-418.362 2245.82,-440.87 2227.15,-460.717 2209.45,-475.881"/>
<polygon fill="black" stroke="black" points="2206.9,-473.447 2201.41,-482.512 2211.35,-478.845 2206.9,-473.447"/>
</g>
<!-- connected stream write&#45;&gt;connected -->
<g id="edge32" class="edge"><title>connected stream write&#45;&gt;connected</title>
<path fill="none" stroke="black" d="M1239.88,-118.548C1240.72,-137.325 1240.95,-160.145 1240.58,-181.158"/>
<polygon fill="black" stroke="black" points="1237.07,-181.225 1240.34,-191.303 1244.07,-181.386 1237.07,-181.225"/>
</g>
<!-- connected stream read&#45;&gt;connected -->
<g id="edge34" class="edge"><title>connected stream read&#45;&gt;connected</title>
<path fill="none" stroke="black" d="M1354.29,-118.646C1332.96,-143.264 1304.27,-174.805 1280.21,-200.111"/>
<polygon fill="black" stroke="black" points="1277.61,-197.764 1273.23,-207.411 1282.67,-202.601 1277.61,-197.764"/>
</g>
<!-- connected stream send&#45;&gt;connected -->
<g id="edge36" class="edge"><title>connected stream send&#45;&gt;connected</title>
<path fill="none" stroke="black" d="M1530.77,-106.638C1515.02,-122.393 1492.52,-141.518 1470,-155 1414.99,-187.928 1345.65,-213.102 1296.31,-228.175"/>
<polygon fill="black" stroke="black" points="1295.29,-224.827 1286.72,-231.054 1297.3,-231.531 1295.29,-224.827"/>
</g>
<!-- connected mailbox send&#45;&gt;connected -->
<g id="edge38" class="edge"><title>connected mailbox send&#45;&gt;connected</title>
<path fill="none" stroke="black" d="M1715.86,-106.832C1699.31,-123.262 1675.02,-143.013 1650,-155 1534.03,-210.566 1382.86,-231.965 1298.29,-239.854"/>
<polygon fill="black" stroke="black" points="1297.95,-236.369 1288.31,-240.75 1298.58,-243.341 1297.95,-236.369"/>
</g>
<!-- connected service send&#45;&gt;connected -->
<g id="edge40" class="edge"><title>connected service send&#45;&gt;connected</title>
<path fill="none" stroke="black" d="M1903.89,-106.689C1888.06,-123.5 1864.21,-143.707 1839,-155 1743.61,-197.723 1434.09,-228.08 1298.5,-239.35"/>
<polygon fill="black" stroke="black" points="1297.94,-235.884 1288.26,-240.192 1298.52,-242.861 1297.94,-235.884"/>
</g>
<!-- connected service offer&#45;&gt;connected -->
<g id="edge42" class="edge"><title>connected service offer&#45;&gt;connected</title>
<path fill="none" stroke="black" d="M120.642,-130.671C131.332,-140.31 143.235,-149.164 156,-155 338.701,-238.52 965.3,-244.855 1169.31,-244.578"/>
<polygon fill="black" stroke="black" points="1169.57,-248.077 1179.56,-244.558 1169.55,-241.077 1169.57,-248.077"/>
</g>
<!-- connected confirm&#45;&gt;connected -->
<g id="edge44" class="edge"><title>connected confirm&#45;&gt;connected</title>
<path fill="none" stroke="black" d="M282.308,-106.725C302.102,-123.776 327.959,-144.231 355,-155 503.986,-214.333 992.636,-236.022 1169.48,-242.151"/>
<polygon fill="black" stroke="black" points="1169.55,-245.656 1179.67,-242.499 1169.79,-238.66 1169.55,-245.656"/>
</g>
<!-- connected credit&#45;&gt;connected -->
<g id="edge46" class="edge"><title>connected credit&#45;&gt;connected</title>
<path fill="none" stroke="black" d="M437.247,-106.55C450.132,-123.531 467.242,-143.974 488,-155 606.195,-217.78 1010.92,-237.059 1169.57,-242.361"/>
<polygon fill="black" stroke="black" points="1169.55,-245.862 1179.66,-242.69 1169.78,-238.866 1169.55,-245.862"/>
</g>
<!-- connected connection ping&#45;&gt;connected -->
<g id="edge48" class="edge"><title>connected connection ping&#45;&gt;connected</title>
<path fill="none" stroke="black" d="M572.333,-106.755C585.647,-123.591 603.188,-143.802 624,-155 718.001,-205.577 1032.78,-231.072 1169.65,-240.177"/>
<polygon fill="black" stroke="black" points="1169.77,-243.692 1179.98,-240.855 1170.23,-236.707 1169.77,-243.692"/>
</g>
<!-- settling settled&#45;&gt;settling -->
<g id="edge50" class="edge"><title>settling settled&#45;&gt;settling</title>
<path fill="none" stroke="black" d="M2314.5,-406.063C2309.05,-410.206 2303.38,-414.407 2298,-418.362 2269.71,-439.142 2237.5,-462.3 2211.87,-479.713"/>
<polygon fill="black" stroke="black" points="2209.78,-476.899 2203.44,-485.387 2213.69,-482.705 2209.78,-476.899"/>
</g>
<!-- settling connection open&#45;&gt;connected -->
<g id="edge52" class="edge"><title>settling connection open&#45;&gt;connected</title>
<path fill="none" stroke="black" d="M1686.21,-359.285C1657.04,-351.944 1622.31,-343.211 1591,-335.362 1487.58,-309.436 1367.27,-279.409 1296.05,-261.649"/>
<polygon fill="black" stroke="black" points="1296.88,-258.249 1286.33,-259.226 1295.19,-265.041 1296.88,-258.249"/>
</g>
<!-- settling stream message&#45;&gt;settling -->
<g id="edge54" class="edge"><title>settling stream message&#45;&gt;settling</title>
<path fill="none" stroke="black" d="M2034.69,-405.883C2062.43,-425.378 2097.98,-451.495 2125.15,-472.285"/>
<polygon fill="black" stroke="black" points="2123.24,-475.227 2133.29,-478.552 2127.5,-469.68 2123.24,-475.227"/>
</g>
<!-- settling *&#45;&gt;settling -->
<g id="edge56" class="edge"><title>settling *&#45;&gt;settling</title>
<path fill="none" stroke="black" d="M2172.3,-418.004C2172.75,-429.575 2172.86,-442.371 2172.64,-454.563"/>
<polygon fill="black" stroke="black" points="2169.14,-454.535 2172.38,-464.622 2176.14,-454.717 2169.14,-454.535"/>
</g>
</g>
</svg>
