<?xml version="1.0" encoding="UTF-8" standalone="no"?>
<!DOCTYPE svg PUBLIC "-//W3C//DTD SVG 1.1//EN"
 "http://www.w3.org/Graphics/SVG/1.1/DTD/svg11.dtd">
<!-- Generated by graphviz version 2.38.0 (20140413.2041)
 -->
<!-- Title: mlm_server Pages: 1 -->
<svg width="2924pt" height="581pt"
 viewBox="0.00 0.00 2924.00 580.79" xmlns="http://www.w3.org/2000/svg" xmlns:xlink="http://www.w3.org/1999/xlink">
<g id="graph0" class="graph" transform="scale(1 1) rotate(0) translate(4 576.787)">
<title>mlm_server</title>
<polygon fill="white" stroke="none" points="-4,4 -4,-576.787 2920,-576.787 2920,4 -4,4"/>
<!-- start -->
<g id="node1" class="node"><title>start</title>
<ellipse fill="none" stroke="black" cx="1750" cy="-542.789" rx="25.9957" ry="25.9957"/>
<ellipse fill="none" stroke="black" cx="1750" cy="-542.789" rx="29.9954" ry="29.9954"/>
<text text-anchor="middle" x="1750" y="-539.089" font-family="Times,serif" font-size="14.00">start</text>
</g>
<!-- start connection close -->
<g id="node2" class="node"><title>start connection close</title>
<path fill="none" stroke="black" stroke-dasharray="5,2" d="M943,-339.791C943,-339.791 1087,-339.791 1087,-339.791 1093,-339.791 1099,-345.791 1099,-351.791 1099,-351.791 1099,-452.791 1099,-452.791 1099,-458.791 1093,-464.791 1087,-464.791 1087,-464.791 943,-464.791 943,-464.791 937,-464.791 931,-458.791 931,-452.791 931,-452.791 931,-351.791 931,-351.791 931,-345.791 937,-339.791 943,-339.791"/>
<polygon fill="white" stroke="none" points="939,-343.791 939,-460.791 1091,-460.791 1091,-343.791 939,-343.791"/>
<polygon fill="black" stroke="none" points="941,-437.291 941,-458.291 1089,-458.291 1089,-437.291 941,-437.291"/>
<text text-anchor="start" x="966.5" y="-444.091" font-family="Times,serif" font-size="14.00" fill="white">connection close</text>
<text text-anchor="start" x="944" y="-421.091" font-family="Times,serif" font-size="14.00">send</text>
<text text-anchor="start" x="944" y="-398.091" font-family="Times,serif" font-size="14.00">client closed connection</text>
<text text-anchor="start" x="944" y="-375.091" font-family="Times,serif" font-size="14.00">deregister the client</text>
<text text-anchor="start" x="944" y="-352.091" font-family="Times,serif" font-size="14.00">terminate</text>
</g>
<!-- start&#45;&gt;start connection close -->
<g id="edge1" class="edge"><title>start&#45;&gt;start connection close</title>
<path fill="none" stroke="black" d="M1719.74,-541.061C1607.04,-537.872 1213.48,-523.16 1099,-476.791 1094.18,-474.837 1089.4,-472.552 1084.71,-470.021"/>
<polygon fill="black" stroke="black" points="1086.23,-466.857 1075.83,-464.87 1082.72,-472.913 1086.23,-466.857"/>
</g>
<!-- start stream message -->
<g id="node3" class="node"><title>start stream message</title>
<path fill="none" stroke="black" stroke-dasharray="5,2" d="M1129,-362.791C1129,-362.791 1263,-362.791 1263,-362.791 1269,-362.791 1275,-368.791 1275,-374.791 1275,-374.791 1275,-429.791 1275,-429.791 1275,-435.791 1269,-441.791 1263,-441.791 1263,-441.791 1129,-441.791 1129,-441.791 1123,-441.791 1117,-435.791 1117,-429.791 1117,-429.791 1117,-374.791 1117,-374.791 1117,-368.791 1123,-362.791 1129,-362.791"/>
<polygon fill="white" stroke="none" points="1125,-366.791 1125,-437.791 1267,-437.791 1267,-366.791 1125,-366.791"/>
<polygon fill="black" stroke="none" points="1127,-414.291 1127,-435.291 1265,-435.291 1265,-414.291 1127,-414.291"/>
<text text-anchor="start" x="1150.5" y="-421.091" font-family="Times,serif" font-size="14.00" fill="white">stream message</text>
<text text-anchor="start" x="1130" y="-398.091" font-family="Times,serif" font-size="14.00">get message to deliver</text>
<text text-anchor="start" x="1130" y="-375.091" font-family="Times,serif" font-size="14.00">send</text>
</g>
<!-- start&#45;&gt;start stream message -->
<g id="edge3" class="edge"><title>start&#45;&gt;start stream message</title>
<path fill="none" stroke="black" d="M1720.13,-539.776C1630.16,-533.376 1363.07,-511.837 1284,-476.791 1268.63,-469.978 1253.82,-459.659 1240.88,-448.889"/>
<polygon fill="black" stroke="black" points="1242.93,-446.036 1233.07,-442.152 1238.35,-451.335 1242.93,-446.036"/>
</g>
<!-- start mailbox message -->
<g id="node5" class="node"><title>start mailbox message</title>
<path fill="none" stroke="black" stroke-dasharray="5,2" d="M1305.5,-351.291C1305.5,-351.291 1472.5,-351.291 1472.5,-351.291 1478.5,-351.291 1484.5,-357.291 1484.5,-363.291 1484.5,-363.291 1484.5,-441.291 1484.5,-441.291 1484.5,-447.291 1478.5,-453.291 1472.5,-453.291 1472.5,-453.291 1305.5,-453.291 1305.5,-453.291 1299.5,-453.291 1293.5,-447.291 1293.5,-441.291 1293.5,-441.291 1293.5,-363.291 1293.5,-363.291 1293.5,-357.291 1299.5,-351.291 1305.5,-351.291"/>
<polygon fill="white" stroke="none" points="1301.5,-355.291 1301.5,-449.291 1476.5,-449.291 1476.5,-355.291 1301.5,-355.291"/>
<polygon fill="black" stroke="none" points="1304,-426.291 1304,-447.291 1475,-447.291 1475,-426.291 1304,-426.291"/>
<text text-anchor="start" x="1340" y="-433.091" font-family="Times,serif" font-size="14.00" fill="white">mailbox message</text>
<text text-anchor="start" x="1307" y="-410.091" font-family="Times,serif" font-size="14.00">get message to deliver</text>
<text text-anchor="start" x="1307" y="-387.091" font-family="Times,serif" font-size="14.00">send</text>
<text text-anchor="start" x="1307" y="-364.091" font-family="Times,serif" font-size="14.00">check for mailbox messages</text>
</g>
<!-- start&#45;&gt;start mailbox message -->
<g id="edge5" class="edge"><title>start&#45;&gt;start mailbox message</title>
<path fill="none" stroke="black" d="M1720.04,-537.778C1671.01,-530.436 1571.33,-512.226 1494,-476.791 1482.99,-471.744 1471.91,-465.52 1461.29,-458.846"/>
<polygon fill="black" stroke="black" points="1463.18,-455.902 1452.88,-453.412 1459.38,-461.781 1463.18,-455.902"/>
</g>
<!-- start service message -->
<g id="node6" class="node"><title>start service message</title>
<path fill="none" stroke="black" stroke-dasharray="5,2" d="M1515,-362.791C1515,-362.791 1649,-362.791 1649,-362.791 1655,-362.791 1661,-368.791 1661,-374.791 1661,-374.791 1661,-429.791 1661,-429.791 1661,-435.791 1655,-441.791 1649,-441.791 1649,-441.791 1515,-441.791 1515,-441.791 1509,-441.791 1503,-435.791 1503,-429.791 1503,-429.791 1503,-374.791 1503,-374.791 1503,-368.791 1509,-362.791 1515,-362.791"/>
<polygon fill="white" stroke="none" points="1511,-366.791 1511,-437.791 1653,-437.791 1653,-366.791 1511,-366.791"/>
<polygon fill="black" stroke="none" points="1513,-414.291 1513,-435.291 1651,-435.291 1651,-414.291 1513,-414.291"/>
<text text-anchor="start" x="1535" y="-421.091" font-family="Times,serif" font-size="14.00" fill="white">service message</text>
<text text-anchor="start" x="1516" y="-398.091" font-family="Times,serif" font-size="14.00">get message to deliver</text>
<text text-anchor="start" x="1516" y="-375.091" font-family="Times,serif" font-size="14.00">send</text>
</g>
<!-- start&#45;&gt;start service message -->
<g id="edge7" class="edge"><title>start&#45;&gt;start service message</title>
<path fill="none" stroke="black" d="M1726.83,-523.099C1710.82,-510.154 1689.06,-492.493 1670,-476.791 1658.89,-467.639 1647.03,-457.793 1635.74,-448.375"/>
<polygon fill="black" stroke="black" points="1637.95,-445.658 1628.03,-441.937 1633.46,-451.032 1637.95,-445.658"/>
</g>
<!-- start expired -->
<g id="node7" class="node"><title>start expired</title>
<path fill="none" stroke="black" stroke-dasharray="5,2" d="M1691,-351.291C1691,-351.291 1809,-351.291 1809,-351.291 1815,-351.291 1821,-357.291 1821,-363.291 1821,-363.291 1821,-441.291 1821,-441.291 1821,-447.291 1815,-453.291 1809,-453.291 1809,-453.291 1691,-453.291 1691,-453.291 1685,-453.291 1679,-447.291 1679,-441.291 1679,-441.291 1679,-363.291 1679,-363.291 1679,-357.291 1685,-351.291 1691,-351.291"/>
<polygon fill="white" stroke="none" points="1687,-355.291 1687,-449.291 1813,-449.291 1813,-355.291 1687,-355.291"/>
<polygon fill="black" stroke="none" points="1689,-426.291 1689,-447.291 1811,-447.291 1811,-426.291 1689,-426.291"/>
<text text-anchor="start" x="1728.5" y="-433.091" font-family="Times,serif" font-size="14.00" fill="white">expired</text>
<text text-anchor="start" x="1692" y="-410.091" font-family="Times,serif" font-size="14.00">client expired</text>
<text text-anchor="start" x="1692" y="-387.091" font-family="Times,serif" font-size="14.00">deregister the client</text>
<text text-anchor="start" x="1692" y="-364.091" font-family="Times,serif" font-size="14.00">terminate</text>
</g>
<!-- start&#45;&gt;start expired -->
<g id="edge9" class="edge"><title>start&#45;&gt;start expired</title>
<path fill="none" stroke="black" d="M1744.41,-513.092C1743.47,-498.72 1743.11,-480.749 1743.3,-463.533"/>
<polygon fill="black" stroke="black" points="1746.8,-463.579 1743.48,-453.517 1739.8,-463.452 1746.8,-463.579"/>
</g>
<!-- start exception -->
<g id="node8" class="node"><title>start exception</title>
<path fill="none" stroke="black" stroke-dasharray="5,2" d="M1851.5,-328.291C1851.5,-328.291 1982.5,-328.291 1982.5,-328.291 1988.5,-328.291 1994.5,-334.291 1994.5,-340.291 1994.5,-340.291 1994.5,-464.291 1994.5,-464.291 1994.5,-470.291 1988.5,-476.291 1982.5,-476.291 1982.5,-476.291 1851.5,-476.291 1851.5,-476.291 1845.5,-476.291 1839.5,-470.291 1839.5,-464.291 1839.5,-464.291 1839.5,-340.291 1839.5,-340.291 1839.5,-334.291 1845.5,-328.291 1851.5,-328.291"/>
<polygon fill="white" stroke="none" points="1847.5,-332.291 1847.5,-472.291 1986.5,-472.291 1986.5,-332.291 1847.5,-332.291"/>
<polygon fill="black" stroke="none" points="1850,-449.291 1850,-470.291 1985,-470.291 1985,-449.291 1850,-449.291"/>
<text text-anchor="start" x="1889.5" y="-456.091" font-family="Times,serif" font-size="14.00" fill="white">exception</text>
<text text-anchor="start" x="1853" y="-433.091" font-family="Times,serif" font-size="14.00">signal operation failed</text>
<text text-anchor="start" x="1853" y="-410.091" font-family="Times,serif" font-size="14.00">send</text>
<text text-anchor="start" x="1853" y="-387.091" font-family="Times,serif" font-size="14.00">client had exception</text>
<text text-anchor="start" x="1853" y="-364.091" font-family="Times,serif" font-size="14.00">deregister the client</text>
<text text-anchor="start" x="1853" y="-341.091" font-family="Times,serif" font-size="14.00">terminate</text>
</g>
<!-- start&#45;&gt;start exception -->
<g id="edge11" class="edge"><title>start&#45;&gt;start exception</title>
<path fill="none" stroke="black" d="M1769.58,-519.657C1783.99,-507.147 1803.64,-491.177 1821,-476.791 1824.43,-473.947 1827.94,-471.034 1831.48,-468.085"/>
<polygon fill="black" stroke="black" points="1833.83,-470.679 1839.27,-461.588 1829.35,-465.301 1833.83,-470.679"/>
</g>
<!-- start connection open -->
<g id="node9" class="node"><title>start connection open</title>
<path fill="none" stroke="black" d="M2024.5,-351.291C2024.5,-351.291 2191.5,-351.291 2191.5,-351.291 2197.5,-351.291 2203.5,-357.291 2203.5,-363.291 2203.5,-363.291 2203.5,-441.291 2203.5,-441.291 2203.5,-447.291 2197.5,-453.291 2191.5,-453.291 2191.5,-453.291 2024.5,-453.291 2024.5,-453.291 2018.5,-453.291 2012.5,-447.291 2012.5,-441.291 2012.5,-441.291 2012.5,-363.291 2012.5,-363.291 2012.5,-357.291 2018.5,-351.291 2024.5,-351.291"/>
<polygon fill="white" stroke="none" points="2020.5,-355.291 2020.5,-449.291 2195.5,-449.291 2195.5,-355.291 2020.5,-355.291"/>
<polygon fill="black" stroke="none" points="2023,-426.291 2023,-447.291 2194,-447.291 2194,-426.291 2023,-426.291"/>
<text text-anchor="start" x="2061" y="-433.091" font-family="Times,serif" font-size="14.00" fill="white">connection open</text>
<text text-anchor="start" x="2026" y="-410.091" font-family="Times,serif" font-size="14.00">register new client</text>
<text text-anchor="start" x="2026" y="-387.091" font-family="Times,serif" font-size="14.00">send</text>
<text text-anchor="start" x="2026" y="-364.091" font-family="Times,serif" font-size="14.00">check for mailbox messages</text>
</g>
<!-- start&#45;&gt;start connection open -->
<g id="edge13" class="edge"><title>start&#45;&gt;start connection open</title>
<path fill="none" stroke="black" d="M1779.74,-537.774C1828.42,-530.427 1927.35,-512.211 2004,-476.791 2014.82,-471.792 2025.69,-465.639 2036.12,-459.04"/>
<polygon fill="black" stroke="black" points="2038.29,-461.8 2044.76,-453.407 2034.47,-455.935 2038.29,-461.8"/>
</g>
<!-- start * -->
<g id="node10" class="node"><title>start *</title>
<path fill="none" stroke="black" d="M2234,-362.791C2234,-362.791 2374,-362.791 2374,-362.791 2380,-362.791 2386,-368.791 2386,-374.791 2386,-374.791 2386,-429.791 2386,-429.791 2386,-435.791 2380,-441.791 2374,-441.791 2374,-441.791 2234,-441.791 2234,-441.791 2228,-441.791 2222,-435.791 2222,-429.791 2222,-429.791 2222,-374.791 2222,-374.791 2222,-368.791 2228,-362.791 2234,-362.791"/>
<polygon fill="white" stroke="none" points="2230,-366.791 2230,-437.791 2378,-437.791 2378,-366.791 2230,-366.791"/>
<polygon fill="black" stroke="none" points="2232,-414.291 2232,-435.291 2376,-435.291 2376,-414.291 2232,-414.291"/>
<text text-anchor="start" x="2300.5" y="-421.091" font-family="Times,serif" font-size="14.00" fill="white">*</text>
<text text-anchor="start" x="2235" y="-398.091" font-family="Times,serif" font-size="14.00">signal command invalid</text>
<text text-anchor="start" x="2235" y="-375.091" font-family="Times,serif" font-size="14.00">send</text>
</g>
<!-- start&#45;&gt;start * -->
<g id="edge15" class="edge"><title>start&#45;&gt;start *</title>
<path fill="none" stroke="black" d="M1780.07,-539.36C1868.69,-532.355 2126.47,-510.438 2204,-476.791 2219.88,-469.898 2235.28,-459.443 2249.09,-448.563"/>
<polygon fill="black" stroke="black" points="2251.46,-451.147 2257.03,-442.132 2247.05,-445.708 2251.46,-451.147"/>
</g>
<!-- start connection close&#45;&gt;start -->
<g id="edge2" class="edge"><title>start connection close&#45;&gt;start</title>
<path fill="none" stroke="black" d="M1093.75,-464.87C1101.29,-469.487 1109.08,-473.585 1117,-476.791 1225.96,-520.928 1587.79,-536.382 1709.65,-540.518"/>
<polygon fill="black" stroke="black" points="1709.57,-544.017 1719.68,-540.851 1709.81,-537.021 1709.57,-544.017"/>
</g>
<!-- connected -->
<g id="node4" class="node"><title>connected</title>
<ellipse fill="none" stroke="black" cx="1485" cy="-238.396" rx="49.2992" ry="49.2992"/>
<ellipse fill="none" stroke="black" cx="1485" cy="-238.396" rx="53.2914" ry="53.2914"/>
<text text-anchor="middle" x="1485" y="-234.696" font-family="Times,serif" font-size="14.00">connected</text>
</g>
<!-- start stream message&#45;&gt;connected -->
<g id="edge4" class="edge"><title>start stream message&#45;&gt;connected</title>
<path fill="none" stroke="black" d="M1237.57,-362.47C1251.67,-350.449 1267.93,-337.757 1284,-327.791 1328.93,-299.926 1384.18,-276.308 1425.37,-260.514"/>
<polygon fill="black" stroke="black" points="1426.62,-263.784 1434.73,-256.968 1424.14,-257.239 1426.62,-263.784"/>
</g>
<!-- connected connection close -->
<g id="node11" class="node"><title>connected connection close</title>
<path fill="none" stroke="black" stroke-dasharray="5,2" d="M12,-12C12,-12 156,-12 156,-12 162,-12 168,-18 168,-24 168,-24 168,-125 168,-125 168,-131 162,-137 156,-137 156,-137 12,-137 12,-137 6,-137 0,-131 0,-125 0,-125 0,-24 0,-24 0,-18 6,-12 12,-12"/>
<polygon fill="white" stroke="none" points="8,-16 8,-133 160,-133 160,-16 8,-16"/>
<polygon fill="black" stroke="none" points="10,-109.5 10,-130.5 158,-130.5 158,-109.5 10,-109.5"/>
<text text-anchor="start" x="35.5" y="-116.3" font-family="Times,serif" font-size="14.00" fill="white">connection close</text>
<text text-anchor="start" x="13" y="-93.3" font-family="Times,serif" font-size="14.00">send</text>
<text text-anchor="start" x="13" y="-70.3" font-family="Times,serif" font-size="14.00">client closed connection</text>
<text text-anchor="start" x="13" y="-47.3" font-family="Times,serif" font-size="14.00">deregister the client</text>
<text text-anchor="start" x="13" y="-24.3" font-family="Times,serif" font-size="14.00">terminate</text>
</g>
<!-- connected&#45;&gt;connected connection close -->
<g id="edge17" class="edge"><title>connected&#45;&gt;connected connection close</title>
<path fill="none" stroke="black" d="M1431.25,-237.943C1214.24,-239.626 403.71,-239.921 168,-149 162.9,-147.033 157.857,-144.682 152.924,-142.05"/>
<polygon fill="black" stroke="black" points="154.591,-138.971 144.176,-137.027 151.106,-145.042 154.591,-138.971"/>
</g>
<!-- connected stream message -->
<g id="node12" class="node"><title>connected stream message</title>
<path fill="none" stroke="black" stroke-dasharray="5,2" d="M198,-35C198,-35 332,-35 332,-35 338,-35 344,-41 344,-47 344,-47 344,-102 344,-102 344,-108 338,-114 332,-114 332,-114 198,-114 198,-114 192,-114 186,-108 186,-102 186,-102 186,-47 186,-47 186,-41 192,-35 198,-35"/>
<polygon fill="white" stroke="none" points="194,-39 194,-110 336,-110 336,-39 194,-39"/>
<polygon fill="black" stroke="none" points="196,-86.5 196,-107.5 334,-107.5 334,-86.5 196,-86.5"/>
<text text-anchor="start" x="219.5" y="-93.3" font-family="Times,serif" font-size="14.00" fill="white">stream message</text>
<text text-anchor="start" x="199" y="-70.3" font-family="Times,serif" font-size="14.00">get message to deliver</text>
<text text-anchor="start" x="199" y="-47.3" font-family="Times,serif" font-size="14.00">send</text>
</g>
<!-- connected&#45;&gt;connected stream message -->
<g id="edge19" class="edge"><title>connected&#45;&gt;connected stream message</title>
<path fill="none" stroke="black" d="M1431.42,-237.495C1233.35,-237.263 544.355,-230.63 344,-149 328.123,-142.531 312.969,-132.096 300.191,-121.096"/>
<polygon fill="black" stroke="black" points="302.325,-118.307 292.557,-114.204 297.634,-123.503 302.325,-118.307"/>
</g>
<!-- connected mailbox message -->
<g id="node13" class="node"><title>connected mailbox message</title>
<path fill="none" stroke="black" stroke-dasharray="5,2" d="M374.5,-23.5C374.5,-23.5 541.5,-23.5 541.5,-23.5 547.5,-23.5 553.5,-29.5 553.5,-35.5 553.5,-35.5 553.5,-113.5 553.5,-113.5 553.5,-119.5 547.5,-125.5 541.5,-125.5 541.5,-125.5 374.5,-125.5 374.5,-125.5 368.5,-125.5 362.5,-119.5 362.5,-113.5 362.5,-113.5 362.5,-35.5 362.5,-35.5 362.5,-29.5 368.5,-23.5 374.5,-23.5"/>
<polygon fill="white" stroke="none" points="370.5,-27.5 370.5,-121.5 545.5,-121.5 545.5,-27.5 370.5,-27.5"/>
<polygon fill="black" stroke="none" points="373,-98.5 373,-119.5 544,-119.5 544,-98.5 373,-98.5"/>
<text text-anchor="start" x="409" y="-105.3" font-family="Times,serif" font-size="14.00" fill="white">mailbox message</text>
<text text-anchor="start" x="376" y="-82.3" font-family="Times,serif" font-size="14.00">get message to deliver</text>
<text text-anchor="start" x="376" y="-59.3" font-family="Times,serif" font-size="14.00">send</text>
<text text-anchor="start" x="376" y="-36.3" font-family="Times,serif" font-size="14.00">check for mailbox messages</text>
</g>
<!-- connected&#45;&gt;connected mailbox message -->
<g id="edge21" class="edge"><title>connected&#45;&gt;connected mailbox message</title>
<path fill="none" stroke="black" d="M1431.65,-235.958C1258.79,-230.6 716.573,-208.925 554,-149 541.772,-144.492 529.642,-138.2 518.315,-131.176"/>
<polygon fill="black" stroke="black" points="520.118,-128.173 509.821,-125.679 516.314,-134.05 520.118,-128.173"/>
</g>
<!-- connected service message -->
<g id="node14" class="node"><title>connected service message</title>
<path fill="none" stroke="black" stroke-dasharray="5,2" d="M584,-35C584,-35 718,-35 718,-35 724,-35 730,-41 730,-47 730,-47 730,-102 730,-102 730,-108 724,-114 718,-114 718,-114 584,-114 584,-114 578,-114 572,-108 572,-102 572,-102 572,-47 572,-47 572,-41 578,-35 584,-35"/>
<polygon fill="white" stroke="none" points="580,-39 580,-110 722,-110 722,-39 580,-39"/>
<polygon fill="black" stroke="none" points="582,-86.5 582,-107.5 720,-107.5 720,-86.5 582,-86.5"/>
<text text-anchor="start" x="604" y="-93.3" font-family="Times,serif" font-size="14.00" fill="white">service message</text>
<text text-anchor="start" x="585" y="-70.3" font-family="Times,serif" font-size="14.00">get message to deliver</text>
<text text-anchor="start" x="585" y="-47.3" font-family="Times,serif" font-size="14.00">send</text>
</g>
<!-- connected&#45;&gt;connected service message -->
<g id="edge23" class="edge"><title>connected&#45;&gt;connected service message</title>
<path fill="none" stroke="black" d="M1431.44,-235.197C1280.7,-228.165 856.284,-203.422 730,-149 714.407,-142.28 699.436,-131.879 686.736,-120.995"/>
<polygon fill="black" stroke="black" points="688.919,-118.252 679.136,-114.185 684.247,-123.465 688.919,-118.252"/>
</g>
<!-- connected expired -->
<g id="node15" class="node"><title>connected expired</title>
<path fill="none" stroke="black" stroke-dasharray="5,2" d="M760,-23.5C760,-23.5 878,-23.5 878,-23.5 884,-23.5 890,-29.5 890,-35.5 890,-35.5 890,-113.5 890,-113.5 890,-119.5 884,-125.5 878,-125.5 878,-125.5 760,-125.5 760,-125.5 754,-125.5 748,-119.5 748,-113.5 748,-113.5 748,-35.5 748,-35.5 748,-29.5 754,-23.5 760,-23.5"/>
<polygon fill="white" stroke="none" points="756,-27.5 756,-121.5 882,-121.5 882,-27.5 756,-27.5"/>
<polygon fill="black" stroke="none" points="758,-98.5 758,-119.5 880,-119.5 880,-98.5 758,-98.5"/>
<text text-anchor="start" x="797.5" y="-105.3" font-family="Times,serif" font-size="14.00" fill="white">expired</text>
<text text-anchor="start" x="761" y="-82.3" font-family="Times,serif" font-size="14.00">client expired</text>
<text text-anchor="start" x="761" y="-59.3" font-family="Times,serif" font-size="14.00">deregister the client</text>
<text text-anchor="start" x="761" y="-36.3" font-family="Times,serif" font-size="14.00">terminate</text>
</g>
<!-- connected&#45;&gt;connected expired -->
<g id="edge25" class="edge"><title>connected&#45;&gt;connected expired</title>
<path fill="none" stroke="black" d="M1431.44,-233.69C1303.67,-223.824 985.125,-194.529 890,-149 880.718,-144.557 871.758,-138.669 863.492,-132.154"/>
<polygon fill="black" stroke="black" points="865.716,-129.452 855.792,-125.743 861.237,-134.831 865.716,-129.452"/>
</g>
<!-- connected exception -->
<g id="node16" class="node"><title>connected exception</title>
<path fill="none" stroke="black" stroke-dasharray="5,2" d="M920.5,-0.5C920.5,-0.5 1051.5,-0.5 1051.5,-0.5 1057.5,-0.5 1063.5,-6.5 1063.5,-12.5 1063.5,-12.5 1063.5,-136.5 1063.5,-136.5 1063.5,-142.5 1057.5,-148.5 1051.5,-148.5 1051.5,-148.5 920.5,-148.5 920.5,-148.5 914.5,-148.5 908.5,-142.5 908.5,-136.5 908.5,-136.5 908.5,-12.5 908.5,-12.5 908.5,-6.5 914.5,-0.5 920.5,-0.5"/>
<polygon fill="white" stroke="none" points="916.5,-4.5 916.5,-144.5 1055.5,-144.5 1055.5,-4.5 916.5,-4.5"/>
<polygon fill="black" stroke="none" points="919,-121.5 919,-142.5 1054,-142.5 1054,-121.5 919,-121.5"/>
<text text-anchor="start" x="958.5" y="-128.3" font-family="Times,serif" font-size="14.00" fill="white">exception</text>
<text text-anchor="start" x="922" y="-105.3" font-family="Times,serif" font-size="14.00">signal operation failed</text>
<text text-anchor="start" x="922" y="-82.3" font-family="Times,serif" font-size="14.00">send</text>
<text text-anchor="start" x="922" y="-59.3" font-family="Times,serif" font-size="14.00">client had exception</text>
<text text-anchor="start" x="922" y="-36.3" font-family="Times,serif" font-size="14.00">deregister the client</text>
<text text-anchor="start" x="922" y="-13.3" font-family="Times,serif" font-size="14.00">terminate</text>
</g>
<!-- connected&#45;&gt;connected exception -->
<g id="edge27" class="edge"><title>connected&#45;&gt;connected exception</title>
<path fill="none" stroke="black" d="M1431.62,-234.659C1350.75,-228.662 1194.19,-209.993 1072.29,-152.959"/>
<polygon fill="black" stroke="black" points="1073.73,-149.771 1063.2,-148.605 1070.71,-156.083 1073.73,-149.771"/>
</g>
<!-- connected * -->
<g id="node17" class="node"><title>connected *</title>
<path fill="none" stroke="black" stroke-dasharray="5,2" d="M1094,-12C1094,-12 1234,-12 1234,-12 1240,-12 1246,-18 1246,-24 1246,-24 1246,-125 1246,-125 1246,-131 1240,-137 1234,-137 1234,-137 1094,-137 1094,-137 1088,-137 1082,-131 1082,-125 1082,-125 1082,-24 1082,-24 1082,-18 1088,-12 1094,-12"/>
<polygon fill="white" stroke="none" points="1090,-16 1090,-133 1238,-133 1238,-16 1090,-16"/>
<polygon fill="black" stroke="none" points="1092,-109.5 1092,-130.5 1236,-130.5 1236,-109.5 1092,-109.5"/>
<text text-anchor="start" x="1160.5" y="-116.3" font-family="Times,serif" font-size="14.00" fill="white">*</text>
<text text-anchor="start" x="1095" y="-93.3" font-family="Times,serif" font-size="14.00">signal command invalid</text>
<text text-anchor="start" x="1095" y="-70.3" font-family="Times,serif" font-size="14.00">send</text>
<text text-anchor="start" x="1095" y="-47.3" font-family="Times,serif" font-size="14.00">deregister the client</text>
<text text-anchor="start" x="1095" y="-24.3" font-family="Times,serif" font-size="14.00">terminate</text>
</g>
<!-- connected&#45;&gt;connected * -->
<g id="edge29" class="edge"><title>connected&#45;&gt;connected *</title>
<path fill="none" stroke="black" d="M1433.23,-224.667C1383.13,-210.149 1306.4,-183.838 1246,-149 1242.58,-147.03 1239.16,-144.936 1235.76,-142.749"/>
<polygon fill="black" stroke="black" points="1237.62,-139.78 1227.36,-137.135 1233.73,-145.601 1237.62,-139.78"/>
</g>
<!-- connected stream write -->
<g id="node18" class="node"><title>connected stream write</title>
<path fill="none" stroke="black" d="M1276,-35C1276,-35 1386,-35 1386,-35 1392,-35 1398,-41 1398,-47 1398,-47 1398,-102 1398,-102 1398,-108 1392,-114 1386,-114 1386,-114 1276,-114 1276,-114 1270,-114 1264,-108 1264,-102 1264,-102 1264,-47 1264,-47 1264,-41 1270,-35 1276,-35"/>
<polygon fill="white" stroke="none" points="1272,-39 1272,-110 1390,-110 1390,-39 1272,-39"/>
<polygon fill="black" stroke="none" points="1274,-86.5 1274,-107.5 1388,-107.5 1388,-86.5 1274,-86.5"/>
<text text-anchor="start" x="1296" y="-93.3" font-family="Times,serif" font-size="14.00" fill="white">stream write</text>
<text text-anchor="start" x="1277" y="-70.3" font-family="Times,serif" font-size="14.00">store stream writer</text>
<text text-anchor="start" x="1277" y="-47.3" font-family="Times,serif" font-size="14.00">send</text>
</g>
<!-- connected&#45;&gt;connected stream write -->
<g id="edge31" class="edge"><title>connected&#45;&gt;connected stream write</title>
<path fill="none" stroke="black" d="M1445.5,-201.867C1421.9,-178.332 1392.15,-147.225 1368.84,-121.763"/>
<polygon fill="black" stroke="black" points="1371.15,-119.097 1361.83,-114.057 1365.97,-123.809 1371.15,-119.097"/>
</g>
<!-- connected stream read -->
<g id="node19" class="node"><title>connected stream read</title>
<path fill="none" stroke="black" d="M1428.5,-35C1428.5,-35 1541.5,-35 1541.5,-35 1547.5,-35 1553.5,-41 1553.5,-47 1553.5,-47 1553.5,-102 1553.5,-102 1553.5,-108 1547.5,-114 1541.5,-114 1541.5,-114 1428.5,-114 1428.5,-114 1422.5,-114 1416.5,-108 1416.5,-102 1416.5,-102 1416.5,-47 1416.5,-47 1416.5,-41 1422.5,-35 1428.5,-35"/>
<polygon fill="white" stroke="none" points="1424.5,-39 1424.5,-110 1545.5,-110 1545.5,-39 1424.5,-39"/>
<polygon fill="black" stroke="none" points="1427,-86.5 1427,-107.5 1544,-107.5 1544,-86.5 1427,-86.5"/>
<text text-anchor="start" x="1452" y="-93.3" font-family="Times,serif" font-size="14.00" fill="white">stream read</text>
<text text-anchor="start" x="1430" y="-70.3" font-family="Times,serif" font-size="14.00">store stream reader</text>
<text text-anchor="start" x="1430" y="-47.3" font-family="Times,serif" font-size="14.00">send</text>
</g>
<!-- connected&#45;&gt;connected stream read -->
<g id="edge33" class="edge"><title>connected&#45;&gt;connected stream read</title>
<path fill="none" stroke="black" d="M1478.65,-185.28C1478.09,-165.691 1478.12,-143.512 1478.75,-124.242"/>
<polygon fill="black" stroke="black" points="1482.25,-124.296 1479.15,-114.166 1475.26,-124.02 1482.25,-124.296"/>
</g>
<!-- connected stream cancel -->
<g id="node20" class="node"><title>connected stream cancel</title>
<path fill="none" stroke="black" d="M1584,-35C1584,-35 1706,-35 1706,-35 1712,-35 1718,-41 1718,-47 1718,-47 1718,-102 1718,-102 1718,-108 1712,-114 1706,-114 1706,-114 1584,-114 1584,-114 1578,-114 1572,-108 1572,-102 1572,-102 1572,-47 1572,-47 1572,-41 1578,-35 1584,-35"/>
<polygon fill="white" stroke="none" points="1580,-39 1580,-110 1710,-110 1710,-39 1580,-39"/>
<polygon fill="black" stroke="none" points="1582,-86.5 1582,-107.5 1708,-107.5 1708,-86.5 1582,-86.5"/>
<text text-anchor="start" x="1605.5" y="-93.3" font-family="Times,serif" font-size="14.00" fill="white">stream cancel</text>
<text text-anchor="start" x="1585" y="-70.3" font-family="Times,serif" font-size="14.00">cancel stream reader</text>
<text text-anchor="start" x="1585" y="-47.3" font-family="Times,serif" font-size="14.00">send</text>
</g>
<!-- connected&#45;&gt;connected stream cancel -->
<g id="edge35" class="edge"><title>connected&#45;&gt;connected stream cancel</title>
<path fill="none" stroke="black" d="M1519.03,-196.96C1540.75,-173.959 1569.22,-145.077 1593.64,-121.249"/>
<polygon fill="black" stroke="black" points="1596.34,-123.506 1601.08,-114.028 1591.46,-118.484 1596.34,-123.506"/>
</g>
<!-- connected stream send -->
<g id="node21" class="node"><title>connected stream send</title>
<path fill="none" stroke="black" d="M1748,-46.5C1748,-46.5 1890,-46.5 1890,-46.5 1896,-46.5 1902,-52.5 1902,-58.5 1902,-58.5 1902,-90.5 1902,-90.5 1902,-96.5 1896,-102.5 1890,-102.5 1890,-102.5 1748,-102.5 1748,-102.5 1742,-102.5 1736,-96.5 1736,-90.5 1736,-90.5 1736,-58.5 1736,-58.5 1736,-52.5 1742,-46.5 1748,-46.5"/>
<polygon fill="white" stroke="none" points="1744,-50.5 1744,-98.5 1894,-98.5 1894,-50.5 1744,-50.5"/>
<polygon fill="black" stroke="none" points="1746,-75.5 1746,-96.5 1892,-96.5 1892,-75.5 1746,-75.5"/>
<text text-anchor="start" x="1785" y="-82.3" font-family="Times,serif" font-size="14.00" fill="white">stream send</text>
<text text-anchor="start" x="1749" y="-59.3" font-family="Times,serif" font-size="14.00">write message to stream</text>
</g>
<!-- connected&#45;&gt;connected stream send -->
<g id="edge37" class="edge"><title>connected&#45;&gt;connected stream send</title>
<path fill="none" stroke="black" d="M1535.91,-221.979C1584.53,-207.233 1658.74,-182.317 1718,-149 1737.6,-137.98 1757.35,-122.86 1774.2,-109.198"/>
<polygon fill="black" stroke="black" points="1776.71,-111.672 1782.23,-102.632 1772.28,-106.252 1776.71,-111.672"/>
</g>
<!-- connected mailbox send -->
<g id="node22" class="node"><title>connected mailbox send</title>
<path fill="none" stroke="black" d="M1932,-46.5C1932,-46.5 2082,-46.5 2082,-46.5 2088,-46.5 2094,-52.5 2094,-58.5 2094,-58.5 2094,-90.5 2094,-90.5 2094,-96.5 2088,-102.5 2082,-102.5 2082,-102.5 1932,-102.5 1932,-102.5 1926,-102.5 1920,-96.5 1920,-90.5 1920,-90.5 1920,-58.5 1920,-58.5 1920,-52.5 1926,-46.5 1932,-46.5"/>
<polygon fill="white" stroke="none" points="1928,-50.5 1928,-98.5 2086,-98.5 2086,-50.5 1928,-50.5"/>
<polygon fill="black" stroke="none" points="1930,-75.5 1930,-96.5 2084,-96.5 2084,-75.5 1930,-75.5"/>
<text text-anchor="start" x="1969" y="-82.3" font-family="Times,serif" font-size="14.00" fill="white">mailbox send</text>
<text text-anchor="start" x="1933" y="-59.3" font-family="Times,serif" font-size="14.00">write message to mailbox</text>
</g>
<!-- connected&#45;&gt;connected mailbox send -->
<g id="edge39" class="edge"><title>connected&#45;&gt;connected mailbox send</title>
<path fill="none" stroke="black" d="M1538.48,-233.448C1620.21,-225.992 1779.22,-205.163 1902,-149 1923.68,-139.081 1945.03,-123.491 1962.85,-109.218"/>
<polygon fill="black" stroke="black" points="1965.22,-111.799 1970.78,-102.777 1960.81,-106.365 1965.22,-111.799"/>
</g>
<!-- connected service send -->
<g id="node23" class="node"><title>connected service send</title>
<path fill="none" stroke="black" d="M2124.5,-46.5C2124.5,-46.5 2269.5,-46.5 2269.5,-46.5 2275.5,-46.5 2281.5,-52.5 2281.5,-58.5 2281.5,-58.5 2281.5,-90.5 2281.5,-90.5 2281.5,-96.5 2275.5,-102.5 2269.5,-102.5 2269.5,-102.5 2124.5,-102.5 2124.5,-102.5 2118.5,-102.5 2112.5,-96.5 2112.5,-90.5 2112.5,-90.5 2112.5,-58.5 2112.5,-58.5 2112.5,-52.5 2118.5,-46.5 2124.5,-46.5"/>
<polygon fill="white" stroke="none" points="2120.5,-50.5 2120.5,-98.5 2273.5,-98.5 2273.5,-50.5 2120.5,-50.5"/>
<polygon fill="black" stroke="none" points="2123,-75.5 2123,-96.5 2272,-96.5 2272,-75.5 2123,-75.5"/>
<text text-anchor="start" x="2162" y="-82.3" font-family="Times,serif" font-size="14.00" fill="white">service send</text>
<text text-anchor="start" x="2126" y="-59.3" font-family="Times,serif" font-size="14.00">write message to service</text>
</g>
<!-- connected&#45;&gt;connected service send -->
<g id="edge41" class="edge"><title>connected&#45;&gt;connected service send</title>
<path fill="none" stroke="black" d="M1538.35,-232.944C1667.54,-222.067 1993.42,-191.862 2094,-149 2115.98,-139.633 2137.23,-123.787 2154.78,-109.202"/>
<polygon fill="black" stroke="black" points="2157.19,-111.746 2162.57,-102.617 2152.67,-106.4 2157.19,-111.746"/>
</g>
<!-- connected service offer -->
<g id="node24" class="node"><title>connected service offer</title>
<path fill="none" stroke="black" d="M2312,-23.5C2312,-23.5 2428,-23.5 2428,-23.5 2434,-23.5 2440,-29.5 2440,-35.5 2440,-35.5 2440,-113.5 2440,-113.5 2440,-119.5 2434,-125.5 2428,-125.5 2428,-125.5 2312,-125.5 2312,-125.5 2306,-125.5 2300,-119.5 2300,-113.5 2300,-113.5 2300,-35.5 2300,-35.5 2300,-29.5 2306,-23.5 2312,-23.5"/>
<polygon fill="white" stroke="none" points="2308,-27.5 2308,-121.5 2432,-121.5 2432,-27.5 2308,-27.5"/>
<polygon fill="black" stroke="none" points="2310,-98.5 2310,-119.5 2430,-119.5 2430,-98.5 2310,-98.5"/>
<text text-anchor="start" x="2333.5" y="-105.3" font-family="Times,serif" font-size="14.00" fill="white">service offer</text>
<text text-anchor="start" x="2313" y="-82.3" font-family="Times,serif" font-size="14.00">store service offer</text>
<text text-anchor="start" x="2313" y="-59.3" font-family="Times,serif" font-size="14.00">send</text>
<text text-anchor="start" x="2313" y="-36.3" font-family="Times,serif" font-size="14.00">dispatch the service</text>
</g>
<!-- connected&#45;&gt;connected service offer -->
<g id="edge43" class="edge"><title>connected&#45;&gt;connected service offer</title>
<path fill="none" stroke="black" d="M1538.34,-235.762C1694.59,-230.448 2148.08,-210.302 2282,-149 2291.42,-144.687 2300.46,-138.805 2308.94,-132.235"/>
<polygon fill="black" stroke="black" points="2311.34,-134.787 2316.88,-125.753 2306.92,-129.363 2311.34,-134.787"/>
</g>
<!-- connected confirm -->
<g id="node25" class="node"><title>connected confirm</title>
<path fill="none" stroke="black" d="M2470,-46.5C2470,-46.5 2630,-46.5 2630,-46.5 2636,-46.5 2642,-52.5 2642,-58.5 2642,-58.5 2642,-90.5 2642,-90.5 2642,-96.5 2636,-102.5 2630,-102.5 2630,-102.5 2470,-102.5 2470,-102.5 2464,-102.5 2458,-96.5 2458,-90.5 2458,-90.5 2458,-58.5 2458,-58.5 2458,-52.5 2464,-46.5 2470,-46.5"/>
<polygon fill="white" stroke="none" points="2466,-50.5 2466,-98.5 2634,-98.5 2634,-50.5 2466,-50.5"/>
<polygon fill="black" stroke="none" points="2468,-75.5 2468,-96.5 2632,-96.5 2632,-75.5 2468,-75.5"/>
<text text-anchor="start" x="2527" y="-82.3" font-family="Times,serif" font-size="14.00" fill="white">confirm</text>
<text text-anchor="start" x="2471" y="-59.3" font-family="Times,serif" font-size="14.00">have message confirmation</text>
</g>
<!-- connected&#45;&gt;connected confirm -->
<g id="edge45" class="edge"><title>connected&#45;&gt;connected confirm</title>
<path fill="none" stroke="black" d="M1538.53,-236.117C1714.42,-231.459 2272.21,-212.208 2440,-149 2463.79,-140.036 2486.98,-123.865 2505.99,-108.969"/>
<polygon fill="black" stroke="black" points="2508.23,-111.658 2513.87,-102.688 2503.87,-106.185 2508.23,-111.658"/>
</g>
<!-- connected credit -->
<g id="node26" class="node"><title>connected credit</title>
<path fill="none" stroke="black" d="M2672,-46.5C2672,-46.5 2766,-46.5 2766,-46.5 2772,-46.5 2778,-52.5 2778,-58.5 2778,-58.5 2778,-90.5 2778,-90.5 2778,-96.5 2772,-102.5 2766,-102.5 2766,-102.5 2672,-102.5 2672,-102.5 2666,-102.5 2660,-96.5 2660,-90.5 2660,-90.5 2660,-58.5 2660,-58.5 2660,-52.5 2666,-46.5 2672,-46.5"/>
<polygon fill="white" stroke="none" points="2668,-50.5 2668,-98.5 2770,-98.5 2770,-50.5 2668,-50.5"/>
<polygon fill="black" stroke="none" points="2670,-75.5 2670,-96.5 2768,-96.5 2768,-75.5 2670,-75.5"/>
<text text-anchor="start" x="2702" y="-82.3" font-family="Times,serif" font-size="14.00" fill="white">credit</text>
<text text-anchor="start" x="2673" y="-59.3" font-family="Times,serif" font-size="14.00">credit the client</text>
</g>
<!-- connected&#45;&gt;connected credit -->
<g id="edge47" class="edge"><title>connected&#45;&gt;connected credit</title>
<path fill="none" stroke="black" d="M1538.44,-235.524C1752.6,-227.941 2541.46,-197.562 2642,-149 2659.7,-140.452 2675.03,-125.118 2687.4,-110.659"/>
<polygon fill="black" stroke="black" points="2690.27,-112.691 2693.97,-102.765 2684.88,-108.214 2690.27,-112.691"/>
</g>
<!-- connected connection ping -->
<g id="node27" class="node"><title>connected connection ping</title>
<path fill="none" stroke="black" d="M2808,-46.5C2808,-46.5 2904,-46.5 2904,-46.5 2910,-46.5 2916,-52.5 2916,-58.5 2916,-58.5 2916,-90.5 2916,-90.5 2916,-96.5 2910,-102.5 2904,-102.5 2904,-102.5 2808,-102.5 2808,-102.5 2802,-102.5 2796,-96.5 2796,-90.5 2796,-90.5 2796,-58.5 2796,-58.5 2796,-52.5 2802,-46.5 2808,-46.5"/>
<polygon fill="white" stroke="none" points="2804,-50.5 2804,-98.5 2908,-98.5 2908,-50.5 2804,-50.5"/>
<polygon fill="black" stroke="none" points="2806,-75.5 2806,-96.5 2906,-96.5 2906,-75.5 2806,-75.5"/>
<text text-anchor="start" x="2810" y="-82.3" font-family="Times,serif" font-size="14.00" fill="white">connection ping</text>
<text text-anchor="start" x="2809" y="-59.3" font-family="Times,serif" font-size="14.00">send</text>
</g>
<!-- connected&#45;&gt;connected connection ping -->
<g id="edge49" class="edge"><title>connected&#45;&gt;connected connection ping</title>
<path fill="none" stroke="black" d="M1538.65,-235.981C1768.69,-229.773 2664.36,-202.829 2778,-149 2795.88,-140.529 2811.43,-125.204 2823.99,-110.731"/>
<polygon fill="black" stroke="black" points="2826.88,-112.728 2830.66,-102.827 2821.53,-108.215 2826.88,-112.728"/>
</g>
<!-- start mailbox message&#45;&gt;connected -->
<g id="edge6" class="edge"><title>start mailbox message&#45;&gt;connected</title>
<path fill="none" stroke="black" d="M1418.85,-350.954C1429.68,-332.684 1441.96,-311.974 1452.98,-293.401"/>
<polygon fill="black" stroke="black" points="1456.01,-295.142 1458.1,-284.755 1449.99,-291.571 1456.01,-295.142"/>
</g>
<!-- start service message&#45;&gt;connected -->
<g id="edge8" class="edge"><title>start service message&#45;&gt;connected</title>
<path fill="none" stroke="black" d="M1558.77,-362.513C1546.4,-341.867 1530.98,-316.144 1517.45,-293.557"/>
<polygon fill="black" stroke="black" points="1520.31,-291.526 1512.17,-284.747 1514.31,-295.124 1520.31,-291.526"/>
</g>
<!-- start expired&#45;&gt;start -->
<g id="edge10" class="edge"><title>start expired&#45;&gt;start</title>
<path fill="none" stroke="black" d="M1756.52,-453.517C1756.92,-469.799 1756.8,-487.601 1756.14,-502.927"/>
<polygon fill="black" stroke="black" points="1752.63,-502.92 1755.59,-513.092 1759.62,-503.293 1752.63,-502.92"/>
</g>
<!-- start exception&#45;&gt;start -->
<g id="edge12" class="edge"><title>start exception&#45;&gt;start</title>
<path fill="none" stroke="black" d="M1839.46,-476.412C1839.3,-476.539 1839.15,-476.665 1839,-476.791 1821.16,-491.569 1800.91,-508.02 1784.08,-520.673"/>
<polygon fill="black" stroke="black" points="1781.59,-518.161 1775.63,-526.915 1785.75,-523.793 1781.59,-518.161"/>
</g>
<!-- start connection open&#45;&gt;connected -->
<g id="edge14" class="edge"><title>start connection open&#45;&gt;connected</title>
<path fill="none" stroke="black" d="M2046.57,-351.199C2033.17,-342.229 2018.61,-333.83 2004,-327.791 1848.84,-263.654 1649.13,-246.047 1548.69,-241.218"/>
<polygon fill="black" stroke="black" points="1548.85,-237.721 1538.7,-240.764 1548.53,-244.714 1548.85,-237.721"/>
</g>
<!-- start *&#45;&gt;start -->
<g id="edge16" class="edge"><title>start *&#45;&gt;start</title>
<path fill="none" stroke="black" d="M2273.89,-442.132C2259.31,-455.202 2241,-468.545 2222,-476.791 2144.95,-510.229 1889.88,-532.083 1790.23,-539.228"/>
<polygon fill="black" stroke="black" points="1789.7,-535.757 1779.97,-539.951 1790.19,-542.739 1789.7,-535.757"/>
</g>
<!-- connected connection close&#45;&gt;connected -->
<g id="edge18" class="edge"><title>connected connection close&#45;&gt;connected</title>
<path fill="none" stroke="black" d="M162.093,-137.027C169.826,-141.724 177.84,-145.852 186,-149 415.92,-237.687 1192.77,-239.585 1421.31,-238.064"/>
<polygon fill="black" stroke="black" points="1421.48,-241.562 1431.46,-237.991 1421.43,-234.563 1421.48,-241.562"/>
</g>
<!-- connected stream message&#45;&gt;connected -->
<g id="edge20" class="edge"><title>connected stream message&#45;&gt;connected</title>
<path fill="none" stroke="black" d="M309.35,-114.204C324.71,-127.594 342.828,-141.189 362,-149 556.785,-228.36 1213.41,-236.836 1421.35,-237.46"/>
<polygon fill="black" stroke="black" points="1421.49,-240.96 1431.5,-237.485 1421.51,-233.96 1421.49,-240.96"/>
</g>
<!-- connected mailbox message&#45;&gt;connected -->
<g id="edge22" class="edge"><title>connected mailbox message&#45;&gt;connected</title>
<path fill="none" stroke="black" d="M527.395,-125.679C541.465,-134.876 556.654,-143.344 572,-149 729.164,-206.932 1241.13,-229.115 1421.5,-235.368"/>
<polygon fill="black" stroke="black" points="1421.51,-238.871 1431.62,-235.714 1421.75,-231.875 1421.51,-238.871"/>
</g>
<!-- connected service message&#45;&gt;connected -->
<g id="edge24" class="edge"><title>connected service message&#45;&gt;connected</title>
<path fill="none" stroke="black" d="M695.964,-114.185C711.248,-127.403 729.171,-140.886 748,-149 869.252,-201.254 1265.36,-226.146 1421.25,-234.271"/>
<polygon fill="black" stroke="black" points="1421.44,-237.786 1431.61,-234.805 1421.8,-230.795 1421.44,-237.786"/>
</g>
<!-- connected expired&#45;&gt;connected -->
<g id="edge26" class="edge"><title>connected expired&#45;&gt;connected</title>
<path fill="none" stroke="black" d="M873.391,-125.743C884.064,-134.758 895.751,-143.137 908,-149 998.471,-192.301 1291.04,-220.919 1421.42,-232.102"/>
<polygon fill="black" stroke="black" points="1421.38,-235.612 1431.64,-232.973 1421.98,-228.637 1421.38,-235.612"/>
</g>
<!-- connected exception&#45;&gt;connected -->
<g id="edge28" class="edge"><title>connected exception&#45;&gt;connected</title>
<path fill="none" stroke="black" d="M1063.65,-138.435C1069.65,-142.36 1075.79,-145.95 1082,-149 1193.94,-203.96 1339.47,-224.92 1421.58,-232.792"/>
<polygon fill="black" stroke="black" points="1421.48,-236.297 1431.76,-233.732 1422.12,-229.327 1421.48,-236.297"/>
</g>
<!-- connected *&#45;&gt;connected -->
<g id="edge30" class="edge"><title>connected *&#45;&gt;connected</title>
<path fill="none" stroke="black" d="M1245.31,-137.135C1251.49,-141.382 1257.75,-145.398 1264,-149 1315.44,-178.669 1378.72,-202.153 1424.44,-217.436"/>
<polygon fill="black" stroke="black" points="1423.62,-220.85 1434.21,-220.667 1425.81,-214.204 1423.62,-220.85"/>
</g>
<!-- connected stream write&#45;&gt;connected -->
<g id="edge32" class="edge"><title>connected stream write&#45;&gt;connected</title>
<path fill="none" stroke="black" d="M1373.66,-114.192C1395.91,-136.493 1422.92,-164.739 1444.8,-188.559"/>
<polygon fill="black" stroke="black" points="1442.38,-191.102 1451.71,-196.124 1447.55,-186.38 1442.38,-191.102"/>
</g>
<!-- connected stream read&#45;&gt;connected -->
<g id="edge34" class="edge"><title>connected stream read&#45;&gt;connected</title>
<path fill="none" stroke="black" d="M1490.85,-114.166C1491.7,-132.378 1491.95,-154.562 1491.59,-175.061"/>
<polygon fill="black" stroke="black" points="1488.08,-175.202 1491.35,-185.28 1495.08,-175.363 1488.08,-175.202"/>
</g>
<!-- connected stream cancel&#45;&gt;connected -->
<g id="edge36" class="edge"><title>connected stream cancel&#45;&gt;connected</title>
<path fill="none" stroke="black" d="M1612.66,-114.143C1589.6,-138.639 1558.33,-170.324 1532.47,-195.434"/>
<polygon fill="black" stroke="black" points="1529.74,-193.201 1524.98,-202.665 1534.61,-198.236 1529.74,-193.201"/>
</g>
<!-- connected stream send&#45;&gt;connected -->
<g id="edge38" class="edge"><title>connected stream send&#45;&gt;connected</title>
<path fill="none" stroke="black" d="M1797.98,-102.632C1781.81,-117.802 1758.81,-136.177 1736,-149 1675.56,-182.977 1599.59,-208.217 1547.05,-222.843"/>
<polygon fill="black" stroke="black" points="1545.92,-219.524 1537.2,-225.538 1547.77,-226.276 1545.92,-219.524"/>
</g>
<!-- connected mailbox send&#45;&gt;connected -->
<g id="edge40" class="edge"><title>connected mailbox send&#45;&gt;connected</title>
<path fill="none" stroke="black" d="M1986.37,-102.777C1969.56,-118.583 1945.01,-137.562 1920,-149 1796.28,-205.593 1635.77,-226.309 1548.35,-233.617"/>
<polygon fill="black" stroke="black" points="1548.01,-230.134 1538.32,-234.424 1548.57,-237.111 1548.01,-230.134"/>
</g>
<!-- connected service send&#45;&gt;connected -->
<g id="edge42" class="edge"><title>connected service send&#45;&gt;connected</title>
<path fill="none" stroke="black" d="M2178.04,-102.617C2161.73,-118.782 2137.35,-138.199 2112,-149 2011.69,-191.748 1687.27,-221.906 1548.64,-232.857"/>
<polygon fill="black" stroke="black" points="1548.29,-229.374 1538.59,-233.643 1548.83,-236.352 1548.29,-229.374"/>
</g>
<!-- connected service offer&#45;&gt;connected -->
<g id="edge44" class="edge"><title>connected service offer&#45;&gt;connected</title>
<path fill="none" stroke="black" d="M2334.46,-125.753C2324.2,-134.886 2312.43,-143.308 2300,-149 2166.64,-210.049 1716.32,-230.281 1548.58,-235.695"/>
<polygon fill="black" stroke="black" points="1548.3,-232.202 1538.42,-236.016 1548.52,-239.198 1548.3,-232.202"/>
</g>
<!-- connected confirm&#45;&gt;connected -->
<g id="edge46" class="edge"><title>connected confirm&#45;&gt;connected</title>
<path fill="none" stroke="black" d="M2529.29,-102.688C2511.59,-119.098 2485.19,-138.756 2458,-149 2290.92,-211.939 1737.16,-231.294 1548.51,-236.057"/>
<polygon fill="black" stroke="black" points="1548.38,-232.558 1538.47,-236.305 1548.56,-239.556 1548.38,-232.558"/>
</g>
<!-- connected credit&#45;&gt;connected -->
<g id="edge48" class="edge"><title>connected credit&#45;&gt;connected</title>
<path fill="none" stroke="black" d="M2709.39,-102.765C2698.62,-119.206 2680.98,-138.869 2660,-149 2560.02,-197.289 1779.45,-227.598 1548.87,-235.394"/>
<polygon fill="black" stroke="black" points="1548.51,-231.904 1538.63,-235.737 1548.75,-238.9 1548.51,-231.904"/>
</g>
<!-- connected connection ping&#45;&gt;connected -->
<g id="edge50" class="edge"><title>connected connection ping&#45;&gt;connected</title>
<path fill="none" stroke="black" d="M2846.07,-102.827C2835.11,-119.293 2817.2,-138.96 2796,-149 2682.96,-202.545 1796.13,-229.488 1548.8,-235.881"/>
<polygon fill="black" stroke="black" points="1548.45,-232.388 1538.54,-236.143 1548.63,-239.386 1548.45,-232.388"/>
</g>
</g>
</svg>
